<svg width="319" height="31" viewBox="0 0 319 31" fill="none" xmlns="http://www.w3.org/2000/svg">
<path d="M298.175 16.5181C297.741 16.5433 297.302 16.5607 296.876 16.5985C296.599 16.6221 296.481 16.5528 296.296 16.5166C296.235 16.504 296.169 16.4788 296.112 16.4819C295.681 16.5071 295.251 16.5355 294.821 16.5638C294.689 16.6252 294.606 16.7071 294.404 16.7371C294.206 16.7654 293.973 16.7654 293.754 16.7796C293.464 16.7969 293.174 16.8142 292.885 16.83C292.74 16.8379 292.621 16.8678 292.573 16.9245C292.564 16.9339 292.661 16.9575 292.713 16.9717C292.889 17.019 293.06 17.0725 293.253 17.1087C293.438 17.1434 293.666 17.0867 293.864 17.1308C294.307 17.23 294.312 17.2284 294.65 17.2095C294.939 17.1922 295.229 17.1733 295.519 17.1607C295.576 17.1576 295.642 17.1812 295.703 17.1938C295.888 17.2284 296.006 17.3072 296.279 17.2772C296.485 17.2536 296.713 17.2489 296.928 17.2363C297.108 17.282 297.275 17.3339 297.468 17.3701C297.648 17.4048 297.701 17.4316 297.605 17.4772C297.517 17.5198 297.394 17.5371 297.231 17.5402C297.086 17.5418 296.941 17.556 296.797 17.5639C296.722 17.5686 296.652 17.5717 296.581 17.5765C296.305 17.5938 296.305 17.5938 295.8 17.493C295.602 17.4536 295.378 17.5087 295.19 17.4709C295.062 17.4457 294.953 17.408 294.83 17.3812C294.777 17.3702 294.694 17.3686 294.628 17.3717C294.408 17.3827 294.189 17.3906 293.978 17.4111C293.829 17.4253 293.741 17.4694 293.758 17.5135C293.763 17.5308 293.868 17.556 293.93 17.5576C294.07 17.5607 294.219 17.5387 294.355 17.5497C294.487 17.5607 294.623 17.5922 294.72 17.6269C294.917 17.6993 295.141 17.6347 295.33 17.6536C295.528 17.6741 295.69 17.7371 295.879 17.7749C295.927 17.7843 296.019 17.7686 296.094 17.7639C296.309 17.7528 296.524 17.7434 296.74 17.7324C296.92 17.778 297.113 17.819 297.275 17.871C297.569 17.9655 297.886 18.0017 298.268 17.956C298.483 17.9308 298.693 17.9403 298.865 18.0017C299.04 18.0647 299.242 18.0584 299.466 18.0458C299.673 18.0332 299.883 17.9985 300.094 18.0426C300.551 18.1403 300.555 18.145 301.095 18.1072C301.258 18.0962 301.38 18.093 301.503 18.1292C301.617 18.1623 301.74 18.1907 301.859 18.2222C302.074 18.2111 302.294 18.2001 302.509 18.1875C302.785 18.1702 302.939 18.1922 303.005 18.2804C303.044 18.334 303.062 18.3828 303.159 18.419C303.273 18.4631 303.396 18.4615 303.562 18.4489C303.721 18.4379 303.835 18.4206 303.901 18.3639C303.927 18.3403 303.98 18.3182 304.028 18.2993C304.067 18.2851 304.129 18.2631 304.164 18.2663C304.23 18.2726 304.318 18.2899 304.34 18.3103C304.555 18.5009 304.555 18.5025 304.774 18.5576C305.016 18.619 305.266 18.6741 305.486 18.7434C305.683 18.8048 305.881 18.7781 306.096 18.7781C306.258 18.7781 306.364 18.819 306.351 18.86C306.342 18.8836 306.28 18.9182 306.228 18.9214C305.797 18.9529 305.363 18.9797 304.928 19.0017C304.875 19.0049 304.81 18.9765 304.748 18.9623C304.625 18.934 304.515 18.8899 304.384 18.8804C304.252 18.871 304.098 18.8946 303.953 18.9025C303.808 18.9104 303.655 18.9308 303.523 18.9182C303.391 18.9056 303.286 18.86 303.163 18.83C303.106 18.8159 303.027 18.7954 302.979 18.8001C302.658 18.8379 302.421 18.786 302.193 18.7167C302.144 18.7025 302.061 18.693 302 18.6962C301.49 18.723 300.985 18.7544 300.476 18.7844C300.27 18.797 300.103 18.7419 300.059 18.6489C300.037 18.597 299.993 18.545 299.993 18.493C299.993 18.3985 299.752 18.3466 299.576 18.3576C299.286 18.3733 298.992 18.3859 298.707 18.4096C298.474 18.4285 298.276 18.4096 298.118 18.3529C297.934 18.2883 297.723 18.3009 297.512 18.3182C297.354 18.3308 297.31 18.3828 297.319 18.5135C297.328 18.619 297.253 18.6521 296.968 18.6694C296.608 18.6915 296.243 18.7135 295.879 18.7308C295.822 18.734 295.756 18.7072 295.699 18.693C295.576 18.6647 295.466 18.619 295.335 18.6096C295.203 18.5985 295.049 18.6222 294.904 18.6316C294.759 18.6395 294.606 18.6615 294.474 18.6505C294.342 18.6395 294.232 18.5923 294.114 18.5623C294.057 18.5482 293.987 18.5277 293.93 18.5308C293.64 18.5434 293.35 18.5623 293.06 18.5797C292.735 18.5985 292.735 18.5985 292.274 18.5009C292.064 18.4568 291.853 18.4915 291.646 18.5041C291.427 18.5167 291.22 18.523 291.049 18.46C290.935 18.419 290.808 18.3938 290.672 18.4017C290.307 18.4206 289.947 18.4442 289.583 18.4631C289.521 18.4663 289.438 18.4584 289.39 18.4442C289.157 18.3781 288.929 18.3261 288.604 18.3592C288.323 18.3875 288.02 18.3891 287.739 18.4159C287.585 18.43 287.515 18.4804 287.546 18.5198C287.563 18.5403 287.655 18.5639 287.717 18.5639C287.857 18.5655 288.011 18.5418 288.143 18.5513C288.415 18.5702 288.551 18.7025 288.907 18.6663C289.117 18.6442 289.337 18.6363 289.556 18.63C289.614 18.6285 289.675 18.6584 289.736 18.6741C289.912 18.7167 290.066 18.7718 290.32 18.7434C290.531 18.7214 290.755 18.7151 290.97 18.7025C291.313 18.682 291.313 18.6836 291.756 18.7797C291.967 18.8253 292.178 18.7891 292.384 18.7781C292.538 18.7702 292.683 18.7545 292.806 18.7765C292.994 18.8096 293.13 18.8852 293.363 18.8804C293.583 18.8757 293.798 18.8537 294.017 18.8458C294.153 18.8411 294.281 18.8663 294.391 18.9088C294.505 18.9513 294.628 18.9702 294.777 18.9608C294.992 18.9482 295.212 18.9324 295.431 18.9245C295.493 18.923 295.563 18.9371 295.62 18.9497C295.743 18.9781 295.861 19.0112 295.98 19.0411C296.195 19.0316 296.415 19.0285 296.625 19.0096C296.788 18.9954 296.902 19.0017 297.034 19.0332C297.201 19.0757 297.337 19.1513 297.609 19.1151C297.745 19.0978 297.903 19.1025 298.039 19.0868C298.206 19.0663 298.32 19.0741 298.439 19.1214C298.663 19.2112 298.944 19.2127 299.233 19.1781C299.55 19.1403 299.787 19.1844 300.024 19.2537C300.274 19.3261 300.274 19.3246 300.467 19.4994C300.524 19.5498 300.687 19.5734 300.823 19.5639C301.051 19.5482 301.249 19.5561 301.416 19.6159C301.591 19.6805 301.802 19.6726 302.017 19.6553C302.302 19.6316 302.588 19.6112 302.821 19.7025C302.935 19.7466 303.058 19.7576 303.211 19.7466C303.646 19.7183 304.085 19.701 304.511 19.6663C304.77 19.6443 304.919 19.6946 305.095 19.7372C305.332 19.7954 305.591 19.8474 305.591 19.9718C305.591 19.9923 305.652 20.0159 305.705 20.0317C305.819 20.0647 305.942 20.0931 306.061 20.1246C306.236 20.1718 306.408 20.2112 306.649 20.186C306.86 20.1655 307.084 20.1592 307.299 20.1451C307.514 20.1309 307.712 20.123 307.905 20.1828C308.129 20.2506 308.366 20.3151 308.621 20.3655C308.801 20.4018 309.038 20.3403 309.231 20.3892C309.349 20.4191 309.464 20.4537 309.591 20.4789C309.643 20.4899 309.727 20.4821 309.797 20.4789C309.942 20.4726 310.091 20.4679 310.232 20.4522C310.394 20.4348 310.517 20.438 310.64 20.4742C310.754 20.5073 310.869 20.5529 311 20.5624C311.198 20.5766 311.417 20.5136 311.615 20.586C311.716 20.6222 311.843 20.6569 311.975 20.6679C312.107 20.6789 312.26 20.6553 312.401 20.6569C312.462 20.6569 312.537 20.6821 312.572 20.7026C312.594 20.7136 312.563 20.7435 312.533 20.7592C312.493 20.7781 312.436 20.8034 312.379 20.8065C311.944 20.8349 311.51 20.8585 311.075 20.8852C310.816 20.901 310.816 20.901 310.293 20.8018C310.17 20.7782 310.034 20.7829 309.881 20.7939C309.674 20.8081 309.464 20.8349 309.248 20.8065C308.967 20.6994 308.621 20.6899 308.252 20.7309C308.098 20.7482 307.958 20.7482 307.843 20.7183C307.602 20.6585 307.347 20.6033 307.132 20.5325C306.965 20.4774 306.886 20.4726 306.816 20.5482C306.794 20.5718 306.772 20.597 306.776 20.6191C306.803 20.6978 306.851 20.775 306.877 20.8537C306.886 20.8758 306.851 20.901 306.829 20.9246C306.759 20.9908 306.667 20.986 306.513 20.9309C306.359 20.8758 306.175 20.8396 305.929 20.8648C305.718 20.8868 305.49 20.8837 305.279 20.9073C304.954 20.9419 304.726 20.8915 304.493 20.8238C304.445 20.8097 304.362 20.8018 304.3 20.8049C303.646 20.8411 302.996 20.8821 302.342 20.9183C302.202 20.9262 302.074 20.9026 301.964 20.86C301.85 20.8175 301.723 20.7955 301.582 20.8034C301.003 20.8364 300.423 20.8664 299.844 20.9073C299.607 20.9246 299.418 20.9041 299.255 20.849C299.132 20.8081 299.018 20.7955 298.865 20.8002C298.698 20.8049 298.579 20.8207 298.496 20.8663C298.417 20.9104 298.474 20.9372 298.649 20.9719C298.838 21.0096 299.014 21.0585 299.194 21.1026C299.339 21.0963 299.484 21.0837 299.624 21.0852C299.686 21.0852 299.743 21.1136 299.804 21.1293C299.98 21.175 300.142 21.2207 300.393 21.1955C300.603 21.1734 300.827 21.1687 301.042 21.1545C301.341 21.1372 301.341 21.1372 301.824 21.2364C301.947 21.2616 302.078 21.26 302.237 21.2459C302.373 21.2349 302.513 21.2569 302.61 21.3041C302.649 21.323 302.636 21.3546 302.553 21.4585C302.553 21.5357 302.645 21.501 302.676 21.4506C302.724 21.3782 302.632 21.3546 302.456 21.3939C302.333 21.4223 302.272 21.4632 302.302 21.4963C302.32 21.5136 302.403 21.5357 302.553 21.4585C302.939 21.364 303.233 21.353 303.514 21.3278C303.681 21.3136 303.786 21.3199 303.918 21.3608C304.076 21.4097 304.234 21.4616 304.493 21.4364C304.774 21.4081 305.073 21.4049 305.358 21.3813C305.622 21.3593 305.758 21.4286 305.925 21.4695C306.127 21.5183 306.351 21.4632 306.535 21.4916C306.728 21.5199 306.864 21.5892 307.088 21.6018C307.413 21.5593 307.619 21.638 307.865 21.69C308.059 21.7294 308.287 21.6947 308.493 21.6774C308.726 21.6585 308.919 21.6758 309.082 21.7325C309.266 21.7971 309.472 21.7829 309.683 21.7687C310.175 21.7372 310.192 21.7325 310.478 21.8191C310.684 21.8821 310.882 21.8538 311.088 21.8459C311.268 21.8884 311.444 21.9341 311.633 21.9719C311.681 21.9813 311.773 21.9656 311.848 21.9609C312.063 21.9483 312.282 21.9357 312.497 21.9231C312.642 21.9152 312.796 21.8916 312.928 21.901C313.059 21.912 313.169 21.9577 313.288 21.9876C313.406 22.0176 313.529 22.0475 313.643 22.079C313.819 22.1262 313.986 22.1656 314.232 22.142C314.442 22.1215 314.662 22.1152 314.882 22.101C315.158 22.0837 315.149 22.0884 315.663 22.1829C315.94 22.2349 316.225 22.1719 316.506 22.1656C316.647 22.1625 316.783 22.1798 316.879 22.2255C316.919 22.2444 316.906 22.2758 316.919 22.3026C316.194 22.3451 315.465 22.3814 314.75 22.4333C314.473 22.4538 314.328 22.3971 314.179 22.3499C313.933 22.2743 313.608 22.3845 313.376 22.2869C313.235 22.2286 313.033 22.1955 312.792 22.2239C312.651 22.2396 312.502 22.238 312.357 22.2522C311.988 22.2869 311.65 22.2884 311.356 22.1798C311.255 22.142 311.11 22.1215 311.005 22.0853C310.882 22.0459 310.763 22.0239 310.618 22.0317C309.964 22.0695 309.314 22.1073 308.664 22.1483C308.607 22.1514 308.55 22.175 308.502 22.1924C308.379 22.2365 308.419 22.2711 308.616 22.2995C308.682 22.3089 308.735 22.3294 308.796 22.3451C308.915 22.375 309.024 22.4223 309.156 22.4333C309.288 22.4443 309.442 22.4223 309.587 22.4144C309.731 22.4066 309.885 22.3829 310.017 22.3924C310.149 22.4034 310.258 22.4491 310.381 22.4774C310.438 22.4916 310.509 22.5152 310.566 22.5136C310.855 22.5042 311.141 22.4869 311.431 22.4727C311.611 22.5152 311.764 22.5766 311.979 22.5908C312.116 22.6003 312.26 22.5829 312.401 22.5861C312.462 22.5877 312.541 22.6113 312.572 22.6318C312.59 22.6444 312.533 22.6759 312.489 22.6916C312.322 22.7514 312.094 22.7404 311.887 22.7593C311.663 22.7798 311.461 22.7735 311.29 22.7121C311.176 22.6711 311.048 22.6491 310.908 22.657C310.544 22.6774 310.184 22.7011 309.819 22.7184C309.758 22.7215 309.683 22.7074 309.626 22.6963C309.165 22.6003 309.165 22.5971 308.84 22.6176C308.361 22.6475 308.362 22.6475 308.041 22.564C307.98 22.5483 307.914 22.5184 307.861 22.52C307.352 22.5451 306.847 22.5703 306.342 22.6066C306.175 22.6176 306.061 22.6176 305.938 22.5766C305.833 22.542 305.71 22.5026 305.578 22.4932C305.442 22.4837 305.292 22.5073 305.148 22.5152C305.003 22.5231 304.849 22.5436 304.722 22.531C304.59 22.5184 304.476 22.4743 304.362 22.4428C304.243 22.4097 304.116 22.4113 303.953 22.4239C303.453 22.4601 303.448 22.4554 302.952 22.3577C302.895 22.3467 302.821 22.3341 302.759 22.3373C302.395 22.3562 302.035 22.3798 301.67 22.3987C301.53 22.4066 301.394 22.3861 301.297 22.3404C301.257 22.3215 301.271 22.29 301.244 22.2286C301.214 22.2144 301.249 22.2396 301.257 22.2632C301.323 22.2601 301.402 22.2632 301.451 22.2506C301.574 22.2207 301.635 22.1813 301.604 22.1483C301.587 22.1309 301.503 22.1089 301.451 22.1089C301.354 22.1089 301.271 22.1435 301.244 22.2286C300.968 22.2806 300.673 22.2916 300.388 22.3168C300.221 22.3325 300.116 22.3247 299.984 22.2837C299.826 22.2333 299.664 22.1845 299.405 22.2097C299.124 22.238 298.825 22.2428 298.535 22.2648C298.202 22.29 298.057 22.1483 297.776 22.1514C297.486 22.1546 297.196 22.1814 296.906 22.2002C296.652 22.216 296.652 22.216 296.125 22.1136C295.932 22.0758 295.703 22.1309 295.515 22.0916C295.387 22.0664 295.277 22.0286 295.155 22.0018C295.102 21.9908 295.018 21.9908 294.953 21.9939C294.588 22.0128 294.219 22.0254 293.868 22.0601C293.469 22.101 293.166 22.0569 292.88 21.964C292.52 21.9813 292.156 21.9908 291.8 22.0207C291.541 22.0428 291.392 21.9908 291.216 21.9483C291.155 21.9341 291.102 21.9105 291.036 21.9042C290.97 21.8979 290.891 21.9105 290.821 21.9152C290.531 21.9325 290.233 21.9404 289.952 21.9688C289.605 22.005 289.473 21.8758 289.205 21.8601C289.025 21.9372 288.929 22.0428 288.573 22.0506C288.283 22.0569 287.993 22.0821 287.704 22.0995C287.559 22.1073 287.414 22.1168 287.269 22.1247C287.036 22.1388 286.927 22.2002 286.975 22.2947C287.001 22.3467 287.023 22.3987 287.045 22.4506C287.089 22.5436 286.979 22.6223 286.795 22.6333C286.285 22.6633 285.781 22.6947 285.271 22.7215C285.135 22.7294 285.003 22.7026 284.894 22.6601C284.779 22.6176 284.652 22.5987 284.512 22.6066C284.002 22.6365 283.497 22.668 282.988 22.6948C282.931 22.6979 282.856 22.6822 282.799 22.6696C282.676 22.6412 282.558 22.6081 282.439 22.5782C282.15 22.5924 281.864 22.6018 281.579 22.6207C281.118 22.6491 281.118 22.6506 280.78 22.564C280.718 22.5483 280.657 22.5184 280.6 22.52C280.38 22.5262 280.165 22.542 279.945 22.5562C279.3 22.5971 279.3 22.5971 279.111 22.5499C278.94 22.5058 278.786 22.4522 278.527 22.4774C278.246 22.5058 277.948 22.5152 277.658 22.531C277.443 22.542 277.228 22.5546 277.012 22.5577C276.955 22.5593 276.894 22.5294 276.833 22.5136C276.657 22.4648 276.486 22.4254 276.244 22.4522C276.104 22.468 275.954 22.4711 275.809 22.479C275.432 22.5011 275.432 22.501 274.813 22.4065C274.751 22.3971 274.677 22.3861 274.615 22.3908C274.106 22.4191 273.601 22.4507 273.092 22.4774C273.03 22.4806 272.956 22.4711 272.894 22.4632C272.2 22.3719 272.2 22.3719 271.463 22.416C271.182 22.4318 271.173 22.438 270.879 22.3546C270.747 22.3184 270.637 22.301 270.484 22.3121C269.904 22.3499 269.32 22.3751 268.745 22.4192C268.486 22.4381 268.337 22.3908 268.161 22.3483C268.1 22.3341 268.034 22.3026 267.981 22.3042C267.402 22.3341 266.822 22.3703 266.242 22.4003C266.19 22.4034 266.124 22.3719 266.062 22.3577C265.944 22.3294 265.83 22.2869 265.698 22.2774C265.562 22.268 265.412 22.2916 265.263 22.2995C264.899 22.3199 264.899 22.3184 264.477 22.2255C264.42 22.2129 264.346 22.1955 264.289 22.1987C263.709 22.2302 263.125 22.2569 262.55 22.3026C262.221 22.3278 261.997 22.2821 261.764 22.216C261.716 22.2018 261.632 22.1955 261.571 22.1987C260.917 22.2349 260.267 22.2758 259.613 22.3121C259.476 22.3199 259.345 22.2932 259.235 22.2522C259.059 22.1876 258.853 22.1955 258.633 22.2097C258.129 22.2428 258.124 22.2412 257.826 22.1656C257.764 22.1499 257.711 22.1294 257.646 22.1215C257.584 22.1136 257.505 22.1184 257.439 22.1215C257.149 22.1373 256.86 22.1546 256.57 22.1719C256.28 22.1892 255.986 22.1987 255.7 22.2255C255.349 22.2585 255.182 22.1561 254.936 22.1089C254.576 22.1294 254.208 22.142 253.852 22.175C253.58 22.2002 253.453 22.1309 253.273 22.0947C253.211 22.0821 253.145 22.0554 253.088 22.0585C252.434 22.0932 251.78 22.1309 251.13 22.1735C250.972 22.1829 250.866 22.1703 250.735 22.1325C250.441 22.0475 250.427 22.0506 249.936 22.0821C249.72 22.0963 249.514 22.1089 249.33 22.0443C249.167 21.9861 248.97 21.9719 248.737 21.9908C248.452 22.0144 248.157 22.027 247.868 22.0428C247.578 22.0601 247.288 22.0837 246.998 22.0916C246.766 22.0994 246.625 22.0254 246.441 21.9876C246.384 21.9766 246.305 21.975 246.239 21.9782C245.949 21.9924 245.65 22.0034 245.369 22.0302C245.027 22.0632 244.838 21.9766 244.597 21.9262C244.544 21.9152 244.456 21.9215 244.39 21.9262C243.881 21.9546 243.376 21.9861 242.867 22.016C242.687 21.9735 242.502 21.9325 242.322 21.89C242.032 21.9058 241.743 21.9231 241.453 21.9388C241.233 21.9514 241.009 21.9561 240.803 21.9798C240.535 22.0113 240.404 21.9372 240.224 21.901C240.162 21.8884 240.096 21.8617 240.039 21.8648C239.675 21.8821 239.31 21.901 238.95 21.9278C238.608 21.9546 238.472 21.8128 238.191 21.8144C237.901 21.816 237.602 21.8365 237.321 21.8648C236.996 21.8979 236.768 21.8475 236.535 21.7798C236.487 21.7656 236.404 21.7577 236.342 21.7609C235.978 21.7798 235.618 21.8034 235.253 21.8223C235.192 21.8254 235.117 21.8176 235.056 21.8081C234.362 21.7152 234.362 21.7136 234.059 21.7325C233.844 21.7451 233.625 21.7609 233.405 21.7687C233.344 21.7719 233.269 21.7577 233.212 21.7451C232.755 21.649 232.755 21.6475 232.426 21.6664C232.136 21.6837 231.846 21.701 231.556 21.7183C231.376 21.6758 231.192 21.6349 231.012 21.5924C230.652 21.6128 230.283 21.6286 229.928 21.6569C229.761 21.6695 229.651 21.6648 229.524 21.6254C229.366 21.5782 229.208 21.5231 228.944 21.5498C228.663 21.5782 228.365 21.5813 228.079 21.6049C227.737 21.6333 227.596 21.49 227.32 21.4916C227.03 21.4931 226.731 21.5136 226.45 21.542C226.125 21.575 225.897 21.5246 225.664 21.4569C225.616 21.4427 225.533 21.4349 225.471 21.438C224.672 21.4837 223.877 21.5293 223.078 21.5782C222.587 21.6081 222.587 21.6097 221.651 21.5231C221.585 21.5168 221.515 21.5105 221.449 21.5136C221.159 21.5278 220.861 21.5388 220.58 21.5656C220.237 21.5986 220.049 21.5136 219.807 21.4616C219.755 21.4506 219.671 21.4569 219.601 21.4601C219.381 21.4711 219.166 21.4853 218.947 21.4979C218.657 21.5152 218.367 21.5325 218.077 21.5498C217.897 21.5089 217.713 21.4664 217.533 21.4254C217.173 21.4459 216.804 21.4569 216.448 21.49C216.176 21.5152 216.049 21.449 215.869 21.4112C215.807 21.3986 215.742 21.3719 215.684 21.3734C215.03 21.4081 214.376 21.4443 213.726 21.4884C213.458 21.5073 213.335 21.4364 213.155 21.4002C213.094 21.3892 213.024 21.3687 212.967 21.3719C212.532 21.3939 212.097 21.4207 211.663 21.4475C211.417 21.4632 211.417 21.4632 210.881 21.3656C210.82 21.3545 210.749 21.3435 210.688 21.3467C209.309 21.4254 207.935 21.5089 206.556 21.5876C206.416 21.5955 206.289 21.5719 206.179 21.5294C206.065 21.4868 205.937 21.4648 205.797 21.4727C205.217 21.5057 204.633 21.5357 204.058 21.5766C203.821 21.5939 203.632 21.5734 203.47 21.5183C203.347 21.4774 203.233 21.4616 203.079 21.4711C202.789 21.49 202.499 21.5057 202.21 21.5231C201.92 21.5404 201.63 21.5577 201.34 21.575C201.051 21.5924 200.756 21.6018 200.471 21.6286C200.12 21.6616 199.949 21.564 199.707 21.5152C199.272 21.5388 198.838 21.5624 198.407 21.5876C197.828 21.6207 197.248 21.6569 196.669 21.6884C196.616 21.6916 196.55 21.6632 196.489 21.649C196.309 21.6097 196.177 21.5546 195.909 21.5719C194.609 21.6553 193.301 21.7262 191.997 21.8081C191.725 21.8254 191.606 21.7577 191.422 21.7215C191.36 21.7105 191.29 21.6884 191.233 21.6916C190.509 21.7309 189.784 21.775 189.06 21.8176C188.766 21.8349 188.766 21.8349 188.274 21.7372C188.217 21.7262 188.142 21.712 188.081 21.7152C187.137 21.7687 186.197 21.8254 185.253 21.8805C185.113 21.8884 184.985 21.8664 184.871 21.8239C184.761 21.7813 184.63 21.7577 184.494 21.7656C183.624 21.816 182.75 21.8648 181.886 21.9199C181.653 21.9357 181.46 21.9215 181.293 21.8648C181.174 21.8239 181.056 21.8065 180.906 21.816C179.602 21.8931 178.298 21.9672 176.994 22.0491C176.744 22.0648 176.568 22.0349 176.41 21.9829C176.283 21.942 176.173 21.9341 176.015 21.9404C175.848 21.9483 175.747 21.9656 175.655 22.0128C175.537 22.0743 175.462 22.1514 175.181 22.1561C174.891 22.1609 174.597 22.1798 174.312 22.2066C174.039 22.2333 173.912 22.1625 173.741 22.1199C173.614 22.09 173.495 22.0853 173.333 22.0995C173.183 22.1121 173.091 22.1388 173.003 22.1892C172.81 22.2963 172.793 22.2963 172.555 22.2286C172.428 22.1924 172.314 22.164 172.173 22.1703C171.594 22.2018 171.014 22.2365 170.435 22.2727C170.101 22.2932 170.097 22.2963 169.846 22.2176C169.724 22.1782 169.605 22.1593 169.46 22.1687C167.866 22.2632 166.273 22.3546 164.679 22.4538C164.433 22.4695 164.266 22.4365 164.09 22.3892C164.033 22.3735 163.976 22.3514 163.91 22.3451C163.845 22.3388 163.77 22.3451 163.7 22.3483C162.541 22.416 161.377 22.4806 160.222 22.5562C159.959 22.5735 159.818 22.5231 159.638 22.4822C159.577 22.468 159.524 22.4459 159.458 22.4396C159.392 22.4349 159.313 22.4459 159.243 22.4506C158.084 22.5184 156.921 22.5829 155.766 22.6585C155.489 22.6759 155.371 22.6097 155.191 22.5751C155.129 22.5625 155.063 22.5388 155.006 22.542C154.642 22.5593 154.282 22.5829 153.917 22.6034C153.048 22.6554 152.179 22.7042 151.309 22.7578C150.976 22.7782 150.831 22.6381 150.55 22.6444C150.185 22.6522 149.825 22.6837 149.461 22.7058C149.171 22.7231 148.881 22.7389 148.591 22.7578C148.306 22.7751 148.306 22.7751 147.595 22.6837C147.533 22.6758 147.459 22.6648 147.397 22.668C146.383 22.7262 145.364 22.7845 144.355 22.8475C144.122 22.8617 143.929 22.8538 143.762 22.7956C143.643 22.7546 143.52 22.7341 143.375 22.7436C141.852 22.8333 140.333 22.9231 138.809 23.0113C138.752 23.0145 138.677 22.9987 138.62 22.9861C138.497 22.9578 138.379 22.9247 138.26 22.8948C138.173 22.931 138.058 22.9641 138.001 23.005C137.922 23.0601 137.817 23.0759 137.65 23.0853C137.483 23.0948 137.378 23.0916 137.246 23.0507C137.088 23.0003 136.926 22.9609 136.667 22.9766C135.073 23.0759 133.479 23.1656 131.885 23.2633C131.622 23.279 131.499 23.2097 131.314 23.1735C131.253 23.1625 131.183 23.1452 131.126 23.1483C130.471 23.1845 129.822 23.2239 129.167 23.2617C127.354 23.3688 125.541 23.4712 123.732 23.5846C123.403 23.605 123.179 23.5657 122.946 23.4979C122.898 23.4838 122.814 23.4759 122.753 23.479C120.215 23.6271 117.677 23.7767 115.144 23.9263C115.008 23.9342 114.876 23.909 114.766 23.868C114.652 23.8255 114.525 23.805 114.384 23.8129C113.225 23.8806 112.066 23.9483 110.907 24.0176C110.617 24.035 110.613 24.0365 110.314 23.9609C110.253 23.9452 110.187 23.9153 110.139 23.9184C110.038 23.9263 109.941 23.9657 109.871 24.0192C109.8 24.0759 109.691 24.0916 109.528 24.1027C109.361 24.1137 109.252 24.109 109.124 24.0712C108.962 24.0239 108.813 23.9783 108.549 23.994C105.217 24.1956 101.884 24.3893 98.5517 24.5893C98.2838 24.605 98.1609 24.5389 97.9765 24.5027C97.915 24.4917 97.8536 24.4759 97.7877 24.4728C97.7175 24.4696 97.6428 24.4791 97.5726 24.4838C92.137 24.8035 86.7015 25.1248 81.2659 25.4445C80.941 25.4634 80.9454 25.4634 80.5897 25.6082C80.5458 25.6256 80.4887 25.6492 80.4272 25.6523C78.7632 25.7531 77.0948 25.8508 75.4264 25.9484C74.7019 25.9909 73.9775 26.035 73.253 26.076C72.994 26.0901 72.994 26.0902 72.3749 26.2602C72.3222 26.2744 72.2607 26.2933 72.1992 26.2965C69.3014 26.4681 66.4036 26.6398 63.5014 26.8083C63.2731 26.8209 63.0887 26.8492 62.9833 26.9248C62.9087 26.9784 62.8121 27.0099 62.6672 27.0193C60.6387 27.139 58.6103 27.2603 56.5775 27.3768C56.336 27.391 56.191 27.4351 56.0725 27.5012C56.033 27.5233 55.9978 27.5485 55.9408 27.5642C55.8881 27.5784 55.8091 27.5831 55.7432 27.5878C54.0045 27.6902 52.2659 27.7957 50.5228 27.8934C50.2638 27.9075 50.1583 27.9658 50.031 28.0272C49.9871 28.0477 49.9563 28.0761 49.8993 28.0902C49.8422 28.1028 49.7588 28.1028 49.6885 28.106C48.2396 28.191 46.7908 28.2776 45.3419 28.3627C45.0609 28.3548 44.9994 28.4461 44.8633 28.5013C44.815 28.5202 44.7799 28.5454 44.7228 28.558C44.6614 28.5706 44.5822 28.569 44.5076 28.5721C43.3485 28.6398 42.1894 28.7123 41.0259 28.7753C40.758 28.7895 40.7053 28.8698 40.5604 28.9249C40.5121 28.9422 40.4639 28.969 40.4068 28.9737C39.6824 29.0194 38.9579 29.0619 38.2335 29.1028C37.992 29.117 37.992 29.1155 37.5661 29.2714C37.5178 29.2887 37.4607 29.3076 37.3992 29.3123C36.3147 29.3785 35.2259 29.4415 34.137 29.506C33.9965 29.5139 33.8999 29.5517 33.8297 29.6052C33.7594 29.6588 33.6585 29.6934 33.518 29.7013C32.6486 29.7533 31.7792 29.8068 30.9099 29.8541C30.6684 29.8667 30.5104 29.906 30.405 29.9769C30.326 30.0304 30.2294 30.0572 30.0757 30.0667C29.2064 30.1171 28.337 30.1722 27.4633 30.2163C27.2086 30.2289 27.0769 30.2824 26.9715 30.3486C26.8881 30.4021 26.7915 30.421 26.629 30.4305C25.0352 30.5218 23.4371 30.6131 21.8477 30.7139C21.5799 30.7312 21.4437 30.6761 21.2681 30.6368C21.0178 30.5816 20.7852 30.5218 20.7852 30.399C20.7852 30.3801 20.7105 30.358 20.6579 30.3423C20.2671 30.2241 20.2671 30.2242 20.2056 30.0982C20.1705 30.021 20.131 29.9423 20.1002 29.8635C20.0432 29.7344 19.9026 29.7013 19.4987 29.7249C19.3538 29.7328 19.2089 29.7438 19.064 29.7501C18.8489 29.7611 18.6864 29.7092 18.6469 29.6147C18.625 29.5627 18.5987 29.5107 18.5767 29.4588C18.7962 29.4462 18.7918 29.4446 19.1782 29.254C19.3406 29.1737 19.3407 29.1737 19.029 29.0934C18.9104 29.0635 18.7962 29.0304 18.6689 29.0021C18.6118 28.9895 18.5372 28.9816 18.4757 28.9847C18.1113 29.0036 17.7513 29.0257 17.3913 29.0477C16.8117 29.0824 16.8116 29.0824 16.2233 28.9217C16.175 28.9091 16.1004 28.8855 16.1091 28.8729C16.1574 28.8147 16.276 28.7894 16.4252 28.7831C16.6448 28.7737 16.8599 28.758 17.075 28.7454C17.2199 28.7375 17.3648 28.728 17.5097 28.7202C17.6458 28.6603 17.7864 28.6021 17.9137 28.5406C18.1157 28.4461 18.1156 28.443 17.839 28.3768C17.6634 28.3327 17.4746 28.2934 17.2946 28.2524C17.0794 28.265 16.8599 28.2792 16.6448 28.2902C16.3726 28.3044 16.2628 28.2745 16.1925 28.1721C16.1311 28.0823 16.2057 28.0052 16.4165 27.9863C16.6316 27.9674 16.8336 27.9548 16.9434 27.8745C17.0488 27.7973 17.2332 27.7674 17.4615 27.7611C17.6064 27.7563 17.7513 27.7453 17.8961 27.7359C18.0849 27.7233 18.186 27.643 18.1464 27.5532C18.1245 27.4949 18.0806 27.4461 17.9093 27.4335C17.1497 27.3784 17.1409 27.38 16.7633 27.2729C16.7282 27.2634 16.7019 27.2351 16.7151 27.2209C16.737 27.1973 16.7854 27.1626 16.838 27.1579C17.343 27.1233 17.8479 27.0918 18.3528 27.0681C18.5196 27.0603 18.6426 27.0492 18.6997 26.991C18.7787 26.9106 18.7436 26.8366 18.5899 26.7815C18.5416 26.7642 18.4625 26.7421 18.4098 26.7437C17.8302 26.7721 17.2551 26.8083 16.6755 26.8366C16.6229 26.8398 16.5263 26.813 16.5044 26.7925C16.4604 26.7547 16.5263 26.7043 16.6799 26.687C16.8819 26.6634 17.0883 26.6618 17.2244 26.5831C17.4132 26.4713 17.6458 26.3689 17.8566 26.2618C17.8917 26.2429 17.9489 26.2067 17.9357 26.2035C17.8259 26.1689 17.6986 26.1421 17.5844 26.109C17.3912 26.0539 17.3912 25.9768 17.4351 25.9027C17.4702 25.8429 17.6019 25.8193 17.7644 25.8193C17.8347 25.8193 17.9225 25.8193 17.9795 25.8051C18.1288 25.7705 18.1771 25.7263 18.1025 25.6933C18.0586 25.6744 17.9796 25.6476 17.9269 25.6508C16.9873 25.7027 16.0433 25.7531 15.1081 25.8177C14.8315 25.8366 14.7042 25.7767 14.5374 25.7342C14.41 25.7012 14.2914 25.6885 14.1334 25.7122C13.9841 25.7342 13.8392 25.7216 13.747 25.6697C13.6724 25.6271 13.8041 25.5909 14.1597 25.55C14.2256 25.5421 14.3002 25.5374 14.3485 25.5216C14.8578 25.3515 14.8578 25.35 15.209 25.3279C15.5515 25.3074 15.5516 25.3059 15.7316 25.2145C15.815 25.172 15.9072 25.1295 15.9862 25.0854C16.0169 25.0681 16.0697 25.0366 16.0521 25.0271C15.9555 24.9783 15.8237 24.9673 15.6701 24.9783C15.3276 25.0051 14.9237 24.983 14.7437 25.1326C14.6735 25.1893 14.5637 25.2051 14.4056 25.2145C12.8162 25.3059 11.2268 25.4035 9.63298 25.4917C9.37393 25.5059 9.25545 25.5641 9.15447 25.6287C9.06666 25.6823 8.97004 25.698 8.8032 25.7075C8.63636 25.7169 8.50457 25.7216 8.40798 25.6697C8.3509 25.6382 8.39921 25.5941 8.53093 25.55C8.71973 25.487 8.68458 25.4082 8.62312 25.3342C8.57921 25.2854 8.4431 25.2508 8.29821 25.2539C8.08307 25.2602 7.87677 25.2775 7.69676 25.2145C7.59138 25.1783 7.45964 25.1531 7.34109 25.1216C7.11278 25.057 6.88446 24.9909 6.56394 25.0334C6.34441 25.0177 6.19074 24.961 6.01512 24.9169C5.72095 24.8444 5.6946 24.8334 5.90535 24.7562C6.14245 24.6696 5.95801 24.5562 6.08972 24.4712C6.23022 24.3798 6.42347 24.2995 6.59471 24.2145C6.63861 24.1925 6.67815 24.172 6.72205 24.1499C6.62107 24.1184 6.52888 24.0791 6.41034 24.057C6.25667 24.0287 6.17763 23.994 6.18641 23.8964C6.15568 23.8822 6.16876 23.9184 6.20388 23.9279C6.2434 23.9373 6.34007 23.9294 6.38836 23.9184C6.5113 23.8885 6.5727 23.8491 6.54197 23.8161C6.52441 23.7987 6.44105 23.7767 6.38836 23.7767C6.29177 23.7767 6.20836 23.8113 6.18202 23.8964C5.69027 23.9609 5.18088 23.9924 4.67156 24.0176C4.61888 24.0208 4.55306 23.9893 4.49159 23.9735C4.28962 23.92 4.28959 23.9216 3.69686 23.9058C3.63539 23.9042 3.55201 23.8822 3.52128 23.8602C3.39395 23.7641 3.39838 23.6586 3.33691 23.5562C3.45106 23.4901 3.56513 23.4255 3.68368 23.3609C3.92077 23.2302 4.22818 23.1152 4.41259 22.9719C4.37307 22.8948 4.32038 22.8176 4.51356 22.7546C5.06239 22.6759 5.05803 22.6759 5.20731 22.6003C5.6332 22.3861 6.05468 22.1703 6.49813 21.9593C6.61667 21.9042 6.61669 21.8743 6.40594 21.8506C6.34008 21.8443 6.26974 21.8428 6.19949 21.8459C5.97996 21.8569 5.76043 21.8853 5.54529 21.879C5.33015 21.8742 5.17209 21.805 4.99647 21.7624C4.81645 21.7183 4.63644 21.6727 4.45643 21.627C4.25007 21.6317 4.04375 21.6758 3.83739 21.6049C3.67933 21.5498 3.48176 21.5105 3.30175 21.4648C3.43786 21.3451 3.69255 21.2537 3.89013 21.1482C4.07015 21.0522 4.07444 21.0538 4.5574 20.9797C4.78572 20.9451 4.86475 20.7671 4.67156 20.7151C4.43886 20.6522 4.19304 20.5939 3.95595 20.534C3.74959 20.5388 3.53888 20.5813 3.3413 20.5104C3.18763 20.4569 3.01197 20.4207 2.75732 20.4411C2.32704 20.4758 1.88799 20.4931 1.45332 20.5214C1.30404 20.5309 1.14154 20.5246 1.07568 20.4711C1.03177 20.4333 1.15911 20.3813 1.304 20.3703C1.52353 20.3545 1.72109 20.3356 1.83085 20.2569C1.93623 20.1781 2.12939 20.1545 2.3577 20.1435C2.41917 20.1403 2.48947 20.1214 2.52021 20.1025C2.67827 20.0112 2.85391 19.9325 3.19198 19.9356C3.33248 19.9041 3.40708 19.8647 3.36317 19.8269C3.33683 19.8065 3.24467 19.7797 3.19198 19.7828C2.82756 19.7986 2.46316 19.8143 2.10752 19.8427C1.94067 19.8553 1.81328 19.8584 1.7079 19.8112C1.63326 19.7797 1.67277 19.7372 1.81327 19.6915C1.93621 19.6521 1.97137 19.6064 1.96259 19.5529C1.94064 19.4285 1.80889 19.3923 1.3874 19.4001C1.08444 19.4064 1.0098 19.386 0.943939 19.2789C0.926376 19.2537 0.882547 19.219 0.913282 19.2017C1.10208 19.0946 1.22502 18.9623 1.58066 18.9119C1.72116 18.893 1.87038 18.893 1.9582 18.8521C2.04601 18.8112 2.12508 18.7639 2.21728 18.7245C2.33144 18.6773 2.41039 18.6332 2.3577 18.6033C2.26989 18.5497 2.12944 18.545 1.96699 18.5639C1.82649 18.5797 1.67721 18.5812 1.53232 18.5907C1.27327 18.608 1.06257 18.567 1.03184 18.4978C0.948415 18.3151 0.860577 18.134 0.785937 17.9513C0.777156 17.9292 0.799049 17.9009 0.834174 17.882C0.957111 17.8158 1.08888 17.7528 1.21621 17.6883C1.36549 17.6143 1.60262 17.6284 1.80459 17.6143C2.08998 17.5938 2.08988 17.5954 2.47186 17.4442C2.62114 17.3843 2.8802 17.408 3.03387 17.3544C3.08217 17.3371 3.15681 17.3087 3.14364 17.293C3.12608 17.2725 3.03831 17.2568 2.97245 17.2473C2.91098 17.2379 2.83636 17.2331 2.7705 17.2379C1.97141 17.2835 1.17673 17.3324 0.37764 17.3765C0.241531 17.3843 0.0922457 17.3497 0.043949 17.3009C-0.00434774 17.2552 0.00878122 17.2001 0 17.1481C0.127328 17.0835 0.272162 17.0237 0.381928 16.9544C0.465349 16.9008 0.56196 16.8772 0.728803 16.8741C0.948334 16.8693 1.1635 16.8504 1.40937 16.8363C1.86599 16.6063 2.31381 16.3654 2.80555 16.1355C3.00313 16.0425 2.95491 15.948 2.99443 15.8488C3.03394 15.7575 3.3281 15.7717 3.52567 15.7449C3.68374 15.7229 3.73636 15.6725 3.67489 15.6378C3.63976 15.6173 3.56077 15.5937 3.49931 15.5937C3.35442 15.5937 3.20953 15.6079 3.06464 15.6158C2.91975 15.6236 2.75291 15.6189 2.63437 15.6457C2.52021 15.6709 2.44553 15.7244 2.37089 15.7701C2.28747 15.8205 2.17778 15.8378 2.01093 15.841C1.79579 15.8441 1.58067 15.8583 1.36553 15.8693C1.12843 15.8079 0.882509 15.7481 0.654197 15.6835C0.610291 15.6709 0.601462 15.6347 0.605853 15.611C0.614634 15.5496 0.548792 15.5118 0.403902 15.4819C0.280965 15.4567 0.179972 15.4205 0.0658163 15.389C0.153629 15.3465 0.250256 15.3055 0.320506 15.2598C0.474178 15.1638 0.667386 15.0945 1.00107 15.0976C1.13279 15.0362 1.23814 14.9606 1.40937 14.9181C1.57182 14.8772 1.84844 14.9181 1.97138 14.8252C2.03285 14.7795 2.1251 14.7275 2.24365 14.7086C2.43245 14.6787 2.67832 14.6945 2.78808 14.6063C2.85394 14.5559 2.9505 14.5102 3.07782 14.4976C3.22271 14.4834 3.37196 14.4803 3.47733 14.4504C3.53441 14.4346 3.59589 14.4094 3.59589 14.3874C3.59589 14.3732 3.50814 14.3511 3.44667 14.3417C3.3896 14.3307 3.31487 14.3228 3.24901 14.326C3.02948 14.3354 2.81434 14.3527 2.59481 14.3622C2.53334 14.3653 2.46312 14.3543 2.39726 14.3449C2.20407 14.3197 2.21722 14.2882 2.37089 14.2315C2.52456 14.1763 2.63438 14.1055 2.76171 14.0409C2.90221 14.0299 3.07781 14.0346 3.1744 14.0047C3.33686 13.9559 3.45098 13.885 3.5827 13.8236C3.72759 13.8141 3.87686 13.811 4.01297 13.7937C4.07005 13.7874 4.09642 13.7527 4.14471 13.7322C4.23252 13.6929 4.30723 13.6362 4.42577 13.6173C4.61896 13.5889 4.85605 13.5999 4.9702 13.5133C5.03606 13.4629 5.13701 13.4094 5.25995 13.4062C5.60241 13.3999 5.74731 13.3133 5.92293 13.2314C6.05465 13.17 6.33566 13.2015 6.48055 13.1401C6.57714 13.1007 6.64743 13.0519 6.74403 13.0141C6.78354 12.9983 6.86694 12.9905 6.93279 12.9857C7.29282 12.9621 7.65723 12.9448 8.01726 12.9196C8.07434 12.9149 8.12707 12.8913 8.17098 12.8724C8.26318 12.8314 8.32019 12.7747 8.43435 12.7479C8.54851 12.7212 8.71094 12.7212 8.85144 12.7133C9.30367 12.6897 9.33883 12.696 9.54519 12.5621C9.71203 12.4534 10.1204 12.5306 10.2565 12.4109C10.3355 12.3416 10.4804 12.2849 10.7394 12.2771C11.1038 12.266 11.4639 12.2361 11.8283 12.2156C12.1532 12.1967 12.1488 12.1967 12.5001 12.0503C12.6581 11.9841 12.8909 11.9936 13.0972 11.981C13.3168 11.9684 13.5187 11.9495 13.6241 11.8708C13.7295 11.7936 13.9226 11.7684 14.1465 11.7574C14.3529 11.7463 14.5857 11.7542 14.7481 11.6912C15.1433 11.54 15.1389 11.5384 15.4155 11.5227C15.8502 11.4975 16.2848 11.4723 16.7195 11.4455C17.0093 11.4282 17.3122 11.4251 17.5844 11.3904C17.782 11.3652 17.8698 11.277 17.9971 11.2156C18.3571 11.192 18.7172 11.1684 19.0772 11.1463C19.5821 11.1148 20.0914 11.0865 20.6007 11.0565C20.8202 10.9967 20.8511 10.8644 21.2199 10.8581C21.4394 10.855 21.6545 10.8345 21.8741 10.8219C22.2385 10.7998 22.5985 10.7715 22.9629 10.7605C23.2395 10.7526 23.2878 10.6675 23.4326 10.614C23.4809 10.5951 23.5249 10.5683 23.582 10.5636C24.1527 10.5195 24.741 10.5101 25.2987 10.4455C25.3557 10.4392 25.4084 10.4061 25.4216 10.3825C25.4304 10.3699 25.3557 10.3463 25.3074 10.3353C25.2504 10.3227 25.1758 10.3101 25.1143 10.3132C23.301 10.4187 21.4877 10.5258 19.6744 10.6313C19.4197 10.6471 19.4197 10.6455 18.8006 10.8187C18.7479 10.8329 18.6864 10.8487 18.6206 10.8534C18.3308 10.8723 18.0366 10.8833 17.7512 10.9069C17.5185 10.9258 17.3254 10.9069 17.1585 10.8502C17.04 10.8093 16.917 10.7967 16.7677 10.7998C16.6009 10.8046 16.4912 10.8219 16.3946 10.8644C16.2673 10.9227 16.2014 10.9983 15.9335 11.014C14.6998 11.0817 13.466 11.1573 12.2366 11.2298C12.0653 11.2077 11.9819 11.1747 12.0258 11.1353C12.0522 11.1117 12.1049 11.0802 12.1576 11.077C12.6625 11.0439 13.1718 11.0156 13.6767 10.9841C13.747 10.9794 13.8435 10.9825 13.8831 10.9668C14.0762 10.8959 14.1466 10.7809 14.511 10.7731C14.7217 10.7683 14.9369 10.7447 15.1388 10.7227C15.1959 10.7164 15.2486 10.6833 15.2618 10.6597C15.2662 10.6471 15.1959 10.6235 15.1432 10.6124C14.95 10.5668 14.7262 10.6219 14.533 10.5904C14.4671 10.5794 14.3748 10.5636 14.3617 10.5447C14.3529 10.5274 14.4275 10.499 14.4802 10.4817C14.5285 10.466 14.5943 10.4518 14.6602 10.4471C15.2398 10.4109 15.8194 10.3731 16.399 10.3447C16.6361 10.3337 16.8029 10.2943 16.9083 10.2219C16.9873 10.1683 17.0839 10.14 17.2332 10.1321C18.2474 10.0738 19.2616 10.0093 20.2802 9.95572C20.5349 9.94312 20.6666 9.89116 20.772 9.82344C20.8554 9.76989 20.952 9.75099 21.1145 9.74154C22.5678 9.65965 24.0123 9.56831 25.4656 9.48957C25.7334 9.4754 25.8125 9.40767 25.9486 9.34941C25.9969 9.32893 26.0275 9.30373 26.089 9.29114C26.1505 9.27854 26.2295 9.2801 26.3041 9.27695C27.4632 9.20923 28.6224 9.1368 29.786 9.0738C30.0582 9.05963 30.1108 8.98088 30.2513 8.92576C30.2996 8.90843 30.3435 8.8801 30.4006 8.87537C31.2699 8.82183 32.1393 8.77143 33.0086 8.71946C33.5882 8.68481 34.1677 8.65016 34.7473 8.61709C35.0326 8.60134 35.0327 8.59976 35.419 8.45015C35.4629 8.43282 35.5245 8.41235 35.5815 8.40762C37.25 8.30683 38.914 8.21078 40.5824 8.11157C40.7229 8.10369 40.8239 8.06745 40.8941 8.01391C40.9644 7.96036 41.0654 7.92414 41.2015 7.91627C42.5056 7.83753 43.8095 7.76036 45.1179 7.68635C45.355 7.67375 45.5218 7.63595 45.6272 7.56508C45.7062 7.51153 45.8028 7.48319 45.9521 7.47532C47.2561 7.39973 48.5602 7.3194 49.8686 7.24695C50.1189 7.23278 50.2418 7.17924 50.3647 7.11625C50.4086 7.0942 50.4438 7.05797 50.4964 7.05482C51.1463 7.01073 51.7916 6.96506 52.4458 6.93513C52.7181 6.92254 52.8103 6.85639 52.9201 6.79339C53.0079 6.743 53.1089 6.72568 53.2757 6.71938C53.6402 6.70521 54.0002 6.67844 54.3558 6.65167C54.4085 6.64695 54.4744 6.6123 54.4788 6.59025C54.4875 6.5493 54.3865 6.52095 54.2197 6.50678C52.481 6.60914 50.738 6.7115 48.9993 6.81387C48.7139 6.83119 48.7139 6.8312 48.3275 6.98081C48.2836 6.99813 48.2221 7.01861 48.1606 7.02334C46.4922 7.12255 44.8282 7.22019 43.1597 7.31941C43.0192 7.32728 42.9183 7.3635 42.848 7.41705C42.7778 7.4706 42.6767 7.50682 42.5406 7.51469C40.9468 7.60918 39.3531 7.70525 37.7549 7.79502C37.5178 7.80762 37.351 7.84382 37.2456 7.91627C37.1666 7.96981 37.07 7.99817 36.9207 8.00605C35.3972 8.09424 33.8779 8.18715 32.35 8.27219C32.1963 8.28006 32.0822 8.23439 32.091 8.19187C32.0954 8.16982 32.1612 8.13362 32.2139 8.13047C33.0086 8.0785 33.799 8.02494 34.598 7.98557C34.8659 7.97297 34.9448 7.90368 35.081 7.84541C35.1249 7.82493 35.16 7.79816 35.2171 7.78714C35.2786 7.77454 35.3576 7.77612 35.4322 7.77297C37.3158 7.66115 39.1994 7.54777 41.0874 7.44225C41.3596 7.4265 41.4122 7.34933 41.5527 7.29421C41.601 7.27531 41.645 7.24697 41.702 7.24382C42.2816 7.20602 42.8611 7.17295 43.4407 7.13987C44.4549 7.08003 45.4691 7.02018 46.4878 6.96034C46.7819 6.94301 46.7819 6.94301 47.1595 6.79497C47.2034 6.77765 47.265 6.75561 47.322 6.75246C50.0047 6.5934 52.6874 6.43434 55.3701 6.27685C55.5106 6.26898 55.6115 6.23276 55.6818 6.17921C55.752 6.12724 55.853 6.08945 55.9891 6.08C59.6157 5.86582 63.238 5.65163 66.8647 5.44059C67.1017 5.42642 67.2686 5.39335 67.3739 5.31933C67.4486 5.26578 67.5495 5.23744 67.6988 5.22799C71.6855 4.99334 75.6722 4.75869 79.6632 4.52246C82.3459 4.36497 85.0286 4.20434 87.7113 4.05C87.9572 4.03583 88.0888 3.987 88.2118 3.92243C88.2513 3.90038 88.2908 3.86416 88.3435 3.86101C88.9187 3.82164 89.4938 3.78542 90.069 3.7492C90.249 3.79172 90.429 3.83267 90.609 3.87519C90.7451 3.81535 90.8769 3.75393 91.013 3.69408C91.8824 3.64841 92.7385 3.57754 93.6166 3.55549C93.6737 3.55392 93.7351 3.58385 93.7966 3.59959C94.2049 3.69881 94.4377 3.69093 94.6967 3.55865C94.7889 3.5114 94.8679 3.46888 95.0084 3.46101C95.4431 3.43266 95.8822 3.41376 96.3125 3.38069C96.5452 3.36336 96.7383 3.37911 96.9052 3.4358C97.0237 3.47675 97.1467 3.49408 97.2916 3.48463C98.0907 3.43739 98.8854 3.39171 99.6845 3.34131C99.7416 3.33817 99.7942 3.31138 99.8381 3.29248C99.9303 3.25154 100.009 3.20745 100.097 3.16493C100.216 3.1917 100.347 3.21218 100.444 3.24683C100.567 3.28777 100.681 3.28776 100.848 3.27674C104.036 3.08618 107.228 2.90035 110.415 2.70822C110.687 2.69247 110.806 2.75862 110.99 2.79327C111.052 2.80587 111.113 2.82161 111.179 2.82476C111.249 2.82791 111.324 2.81847 111.394 2.81374C113.787 2.672 116.18 2.53183 118.573 2.39009C118.889 2.3712 118.889 2.3712 119.359 2.46884C119.416 2.48144 119.491 2.49561 119.552 2.49089C120.641 2.42947 121.73 2.36333 122.814 2.30034C122.955 2.29246 123.073 2.31765 123.201 2.35388C123.451 2.42474 123.468 2.42475 123.653 2.32081C123.741 2.27199 123.833 2.24205 123.978 2.22788C124.136 2.21213 124.263 2.21687 124.386 2.24522C124.562 2.28459 124.689 2.35072 124.957 2.3334C126.116 2.25938 127.279 2.19797 128.434 2.12238C128.698 2.10505 128.838 2.15859 129.014 2.19797C129.075 2.21214 129.132 2.23419 129.198 2.23891C129.264 2.24364 129.343 2.2326 129.413 2.22788C130.862 2.14284 132.315 2.05938 133.76 1.96804C134.032 1.95072 134.151 2.01842 134.335 2.05307C134.397 2.06567 134.467 2.08773 134.524 2.08458C135.393 2.03576 136.267 1.98377 137.136 1.9318C137.448 1.91291 137.448 1.91448 137.922 2.01055C137.979 2.02315 138.054 2.03575 138.116 2.0326C139.13 1.97433 140.148 1.91448 141.163 1.85464C141.474 1.83574 141.474 1.83574 142.374 1.91764C142.44 1.92394 142.51 1.9334 142.576 1.93025C143.735 1.86253 144.899 1.79638 146.058 1.72393C146.291 1.70976 146.484 1.72235 146.651 1.77905C146.769 1.81999 146.892 1.83733 147.037 1.82788C148.341 1.75071 149.65 1.67669 150.949 1.5948C151.2 1.57905 151.362 1.61369 151.538 1.65936C151.595 1.67511 151.652 1.69716 151.718 1.70346C151.783 1.70976 151.858 1.70345 151.928 1.69873C153.232 1.62156 154.541 1.54912 155.84 1.46565C156.104 1.44833 156.244 1.50187 156.42 1.54124C156.481 1.55542 156.547 1.58377 156.6 1.58219C157.109 1.55542 157.619 1.5318 158.123 1.49243C158.396 1.47038 158.514 1.54281 158.699 1.57746C158.76 1.58849 158.83 1.61212 158.887 1.60897C159.976 1.54755 161.065 1.48299 162.15 1.41684C162.303 1.40739 162.418 1.42155 162.54 1.4625C162.703 1.51762 162.892 1.53967 163.129 1.52235C163.634 1.48612 164.143 1.46093 164.652 1.43101C164.951 1.41369 164.951 1.41369 165.864 1.49558C165.93 1.50188 166 1.51133 166.066 1.50818C166.935 1.45778 167.809 1.40896 168.674 1.35384C168.907 1.33809 169.1 1.35226 169.267 1.40896C169.385 1.44991 169.504 1.46724 169.653 1.45779C170.452 1.41054 171.247 1.36329 172.046 1.31605C172.336 1.29873 172.626 1.2688 172.916 1.2688C173.126 1.27037 173.28 1.34596 173.469 1.38376C173.521 1.39478 173.609 1.3822 173.679 1.37905C174.694 1.3192 175.712 1.26408 176.722 1.19636C176.986 1.17903 177.126 1.23258 177.302 1.27195C177.363 1.28612 177.429 1.31447 177.482 1.3129C177.846 1.29557 178.206 1.27195 178.571 1.25147C179.005 1.22628 179.444 1.20738 179.875 1.17273C180.226 1.14438 180.358 1.28139 180.639 1.28612C180.854 1.29084 181.073 1.26407 181.288 1.25147C181.723 1.22628 182.158 1.19793 182.592 1.17588C182.746 1.16801 182.865 1.1428 182.913 1.08611C182.922 1.07508 182.847 1.05147 182.799 1.0373C182.215 0.87666 182.215 0.876652 181.626 0.911299C181.262 0.933347 180.902 0.955399 180.538 0.974297C180.476 0.977447 180.406 0.964849 180.344 0.9554C180.169 0.928627 180.186 0.897133 180.336 0.840438C180.485 0.783743 180.599 0.714455 180.726 0.649886C180.906 0.690833 181.082 0.731764 181.262 0.772711C181.407 0.764836 181.552 0.755401 181.697 0.747527C182.421 0.70658 183.146 0.664056 183.87 0.626259C183.923 0.62311 183.989 0.654612 184.05 0.67036C184.226 0.716031 184.384 0.755392 184.638 0.738068C185.288 0.692397 185.942 0.659325 186.592 0.619954C186.878 0.60263 186.878 0.602632 187.378 0.700273C187.435 0.711297 187.51 0.723897 187.571 0.720747C188.226 0.684525 188.875 0.645159 189.53 0.607362C189.67 0.599488 189.806 0.61996 189.907 0.665631C189.947 0.684529 189.938 0.71602 190.105 0.974297C190.623 1.18375 190.978 1.16172 191.339 1.14282C191.492 1.13494 191.628 1.12706 191.729 1.09556C191.782 1.07824 191.848 1.05304 191.848 1.03257C191.848 1.01682 191.751 0.991615 191.69 0.988465C191.255 0.956968 190.842 1.02312 190.416 1.0373C190.219 1.04359 190.048 0.988474 190.013 0.898707C190.004 0.873509 189.991 0.846738 189.977 0.82154C189.964 0.796343 189.956 0.769572 189.942 0.744374C189.771 0.7365 189.67 0.764842 189.595 0.818388C189.534 0.862484 189.446 0.912879 189.328 0.936502C189.209 0.9617 189.047 0.956984 188.902 0.964858C188.761 0.972732 188.608 0.993203 188.476 0.982179C188.344 0.96958 188.239 0.923902 188.116 0.895554C188.059 0.88138 187.988 0.860915 187.931 0.864065C187.426 0.890837 186.926 0.9176 186.425 0.952247C186.162 0.971145 186.03 0.905011 185.863 0.864065C185.732 0.832568 185.6 0.840432 185.578 0.912875C185.521 1.08611 185.723 1.15855 186.171 1.12548C186.54 1.09713 186.873 1.09242 187.163 1.19951C187.203 1.21368 187.295 1.21998 187.352 1.21683C187.712 1.19793 188.067 1.17431 188.427 1.15541C188.493 1.15226 188.564 1.15855 188.625 1.16485C189.521 1.24989 189.521 1.25147 189.824 1.23258C189.969 1.22313 190.109 1.21525 190.096 0.975874C190.373 0.719172 190.812 0.701851 191.238 0.664055C191.514 0.640432 191.633 0.709729 191.813 0.74595C191.874 0.758549 191.94 0.783742 191.997 0.780593C192.941 0.728622 193.881 0.673494 194.82 0.615225C194.978 0.605776 195.092 0.615226 195.215 0.656173C195.373 0.708143 195.549 0.741222 195.799 0.722324C196.3 0.684527 196.809 0.660909 197.318 0.629412C197.578 0.613664 197.578 0.613648 198.1 0.711289C198.157 0.722313 198.232 0.734912 198.293 0.731763C198.802 0.70499 199.308 0.671928 199.812 0.643581C199.953 0.635706 200.08 0.657752 200.19 0.700273C200.3 0.742794 200.431 0.76484 200.568 0.756966C201.077 0.728618 201.582 0.697131 202.087 0.668784C202.148 0.665634 202.223 0.676657 202.28 0.687681C202.816 0.785323 202.816 0.785306 203.061 0.769558C203.421 0.745935 203.79 0.734923 204.146 0.703426C204.493 0.671929 204.673 0.763263 204.91 0.813658C205.56 0.777437 206.214 0.747522 206.859 0.703426C207.123 0.684528 207.263 0.736493 207.439 0.77744C207.5 0.791614 207.562 0.821539 207.619 0.819964C207.838 0.813665 208.054 0.796344 208.269 0.783745C208.484 0.771146 208.703 0.758549 208.919 0.74595C209.164 0.791621 209.327 0.89871 209.678 0.862488C209.889 0.84044 210.113 0.835716 210.328 0.823117C210.543 0.810518 210.763 0.797921 210.978 0.785322C211.123 0.777447 211.272 0.772716 211.412 0.758542C211.671 0.734919 211.799 0.812097 211.983 0.846744C212.045 0.857768 212.115 0.876654 212.172 0.873504C212.607 0.851456 213.046 0.832559 213.472 0.796337C213.801 0.76799 214.025 0.815242 214.257 0.881386C214.306 0.89556 214.389 0.903433 214.451 0.900283C214.96 0.873511 215.465 0.84043 215.97 0.812082C216.106 0.804208 216.238 0.829405 216.347 0.870351C216.462 0.912872 216.589 0.933361 216.729 0.925487C217.234 0.897139 217.744 0.865633 218.249 0.837285C218.31 0.834135 218.385 0.846737 218.442 0.859336C218.934 0.956977 218.934 0.958553 219.223 0.939655C219.294 0.93493 219.368 0.931768 219.438 0.927044C219.798 0.904996 220.172 0.897132 220.523 0.859336C220.927 0.816814 221.221 0.870362 221.506 0.960129C221.866 0.94123 222.235 0.930204 222.586 0.898707C222.85 0.875084 222.99 0.934926 223.166 0.974297C223.228 0.988471 223.293 1.01682 223.346 1.01367C223.855 0.986896 224.365 0.963282 224.865 0.92391C225.137 0.901862 225.256 0.972718 225.44 1.00894C225.502 1.02154 225.568 1.0436 225.625 1.04045C225.915 1.02785 226.204 1.00894 226.494 0.991618C226.832 0.971145 226.832 0.972718 227.28 1.06878C227.491 1.11446 227.702 1.07823 227.908 1.06721C228.127 1.05461 228.334 1.04516 228.509 1.10973C228.619 1.15068 228.751 1.17588 228.887 1.16958C229.177 1.1554 229.471 1.14124 229.756 1.11761C229.985 1.09872 230.182 1.11131 230.349 1.16958C230.468 1.21052 230.591 1.23101 230.735 1.22156C231.385 1.18376 232.039 1.14438 232.689 1.10816C232.746 1.10501 232.825 1.11919 232.878 1.13336C233.001 1.16171 233.12 1.1932 233.238 1.22469C233.523 1.21052 233.818 1.20424 234.099 1.18219C234.397 1.16014 234.669 1.15226 234.902 1.23888C234.95 1.25778 235.021 1.28454 235.078 1.28296C235.297 1.27666 235.512 1.26092 235.728 1.24832C235.943 1.23572 236.162 1.22312 236.377 1.21053C236.628 1.2499 236.786 1.36329 237.137 1.32706C237.348 1.30502 237.572 1.30029 237.787 1.28769C238.002 1.27509 238.221 1.26092 238.437 1.2499C238.507 1.24675 238.586 1.23887 238.647 1.24517C238.713 1.25147 238.77 1.27352 238.827 1.28927C239.003 1.33494 239.165 1.38062 239.416 1.35384C239.626 1.3318 239.85 1.32707 240.066 1.3129C240.36 1.29557 240.36 1.29558 240.847 1.39479C241.045 1.43574 241.269 1.38219 241.457 1.41684C241.585 1.44046 241.694 1.47983 241.817 1.5066C241.87 1.51762 241.953 1.52234 242.015 1.51919C242.305 1.50502 242.599 1.49085 242.884 1.46723C243.117 1.44833 243.31 1.46723 243.473 1.52392C243.591 1.56487 243.71 1.5822 243.859 1.57275C244.583 1.52866 245.308 1.49085 246.028 1.44203C246.274 1.4247 246.471 1.45148 246.607 1.50818C246.84 1.60582 247.17 1.49086 247.411 1.5696C247.56 1.61842 247.71 1.67512 247.982 1.65149C248.482 1.61055 248.992 1.58849 249.497 1.56014C249.677 1.60266 249.857 1.64519 250.041 1.68771C250.331 1.67039 250.621 1.65306 250.91 1.63731C251.125 1.62471 251.345 1.61054 251.56 1.59951C251.63 1.59636 251.705 1.59006 251.771 1.59794C251.837 1.60581 251.889 1.62629 251.951 1.64204C252.254 1.7192 252.254 1.72079 252.754 1.68929C252.969 1.67512 253.176 1.66567 253.356 1.72866C253.523 1.78693 253.72 1.79795 253.949 1.78062C254.379 1.74913 254.814 1.72551 255.253 1.70346C255.389 1.69558 255.516 1.72236 255.63 1.7633C255.801 1.82787 256.012 1.82157 256.227 1.80425C256.513 1.7822 256.794 1.76016 257.035 1.84835C257.083 1.86725 257.158 1.89401 257.211 1.89243C257.571 1.87983 257.935 1.87039 258.287 1.84047C258.638 1.81055 258.809 1.90819 259.051 1.95543C259.411 1.93496 259.775 1.91448 260.135 1.89401C260.205 1.88928 260.289 1.87512 260.35 1.88299C260.609 1.91607 260.758 2.03418 261.114 1.99796C261.32 1.97748 261.544 1.97119 261.76 1.96647C261.817 1.96489 261.891 1.99165 261.931 2.01212C261.953 2.02315 261.931 2.05307 261.904 2.06882C261.825 2.11291 261.729 2.15387 261.659 2.19954C261.65 2.20584 261.733 2.23418 261.781 2.24678C261.9 2.27512 262.036 2.27041 262.194 2.25781C262.33 2.24679 262.471 2.26883 262.567 2.31608C262.607 2.33498 262.594 2.36647 262.51 2.47041C262.51 2.54758 262.603 2.51293 262.633 2.46253C262.682 2.39009 262.589 2.36647 262.414 2.40584C262.291 2.43419 262.229 2.47514 262.26 2.50821C262.278 2.52553 262.361 2.54758 262.51 2.47041C262.897 2.37592 263.187 2.35861 263.476 2.34128C263.551 2.33656 263.639 2.3208 263.691 2.33025C263.88 2.36804 264.056 2.41372 264.24 2.45624C264.451 2.4468 264.649 2.42316 264.855 2.48458C265.145 2.5712 265.158 2.56333 265.439 2.546C265.584 2.53655 265.729 2.52869 265.874 2.52082C266.018 2.51295 266.133 2.53656 266.26 2.57278C266.519 2.6468 266.541 2.64679 266.712 2.546C266.813 2.48458 266.883 2.46412 267.011 2.49246C267.432 2.58853 267.437 2.59482 267.797 2.56648C268.095 2.54285 268.376 2.53656 268.596 2.62632C268.745 2.68932 268.793 2.67515 268.912 2.609C269.228 2.43419 269.373 2.43734 269.966 2.56332C270.242 2.62317 270.528 2.55861 270.809 2.55073C271.046 2.54443 271.213 2.58222 271.23 2.68144C271.243 2.74286 271.283 2.78696 271.441 2.80744C271.502 2.81531 271.577 2.82633 271.638 2.82318C272.003 2.80428 272.363 2.78223 272.727 2.76018C272.912 2.74916 273.013 2.67515 272.978 2.57751C272.938 2.47357 273.008 2.43576 273.272 2.40584C273.43 2.38852 273.557 2.39168 273.684 2.42003C273.825 2.45152 273.785 2.47987 273.663 2.53656C273.368 2.67515 273.403 2.76018 273.781 2.85625C273.913 2.88932 274.018 2.91925 274.049 2.96807C274.066 2.99327 274.049 3.02634 274.088 3.04524C274.304 3.15076 274.602 3.21848 274.936 3.26888C275.256 3.22636 275.476 3.29721 275.722 3.35391C275.915 3.398 276.143 3.36022 276.35 3.34447C276.582 3.32714 276.775 3.33974 276.942 3.39801C277.061 3.43895 277.184 3.45784 277.329 3.44997C277.618 3.43265 277.913 3.42163 278.198 3.39643C278.444 3.37438 278.628 3.40588 278.782 3.45943C278.975 3.52715 279.19 3.48147 279.392 3.49092C279.664 3.50194 279.801 3.6421 280.156 3.6043C280.367 3.58226 280.587 3.57438 280.806 3.56809C280.863 3.56651 280.933 3.59329 280.982 3.61219C281.214 3.6988 281.487 3.69408 281.785 3.66888C281.991 3.65156 282.193 3.63581 282.395 3.69566C282.729 3.79645 283.098 3.88465 283.449 3.97756C283.497 4.05001 283.462 4.13503 283.713 4.17755C283.844 4.1996 283.967 4.23269 284.068 4.26891C284.191 4.31143 284.305 4.32246 284.463 4.31143C284.749 4.28939 285.047 4.28465 285.328 4.2563C285.587 4.2311 285.75 4.28309 285.908 4.33191C286.035 4.37128 286.154 4.39017 286.307 4.36182C286.466 4.33505 286.58 4.35236 286.707 4.39489C286.887 4.45316 286.9 4.44687 287.497 4.46419C287.559 4.46576 287.633 4.48937 287.669 4.50985C287.686 4.52087 287.647 4.55239 287.616 4.56814C287.576 4.58703 287.515 4.60907 287.458 4.61379C286.808 4.65474 286.154 4.69096 285.504 4.73191C285.438 4.73663 285.368 4.74767 285.32 4.76342C285.267 4.78074 285.201 4.80435 285.201 4.8264C285.201 4.84214 285.289 4.86105 285.35 4.87207C285.543 4.90829 285.772 4.85318 285.961 4.89412C286.088 4.9209 286.193 4.95868 286.321 4.98388C286.373 4.99491 286.457 4.99334 286.523 4.99019C286.742 4.97916 286.957 4.96342 287.177 4.95397C287.238 4.95239 287.309 4.96815 287.366 4.98075C287.787 5.07524 287.787 5.07523 288.152 5.05476C288.296 5.04689 288.45 5.02326 288.586 5.03271C288.718 5.04216 288.832 5.08468 288.951 5.11145C289.197 5.16815 289.429 5.22327 289.447 5.34611C289.456 5.39335 289.6 5.43429 289.745 5.43744C289.886 5.44059 290.035 5.42328 290.18 5.41383C290.522 5.39494 290.522 5.39493 290.966 5.491C291.089 5.51777 291.22 5.52092 291.379 5.50517C291.44 5.49887 291.515 5.50518 291.581 5.51305C291.796 5.53667 291.796 5.56659 291.655 5.62328C291.458 5.70675 291.475 5.71463 292.028 5.7855C292.239 5.81227 292.402 5.86267 292.577 5.90677C292.863 5.97763 292.858 5.97762 292.669 6.07054C292.626 6.09101 292.586 6.11306 292.542 6.13511C292.415 6.19653 292.314 6.26267 292.05 6.26897C291.761 6.27527 291.471 6.30048 291.181 6.3178C290.9 6.33513 290.825 6.37291 290.852 6.48C290.882 6.60914 290.94 6.62331 291.444 6.62174C291.589 6.62174 291.717 6.63433 291.826 6.67686C291.774 6.72725 291.677 6.76662 291.537 6.77607C291.177 6.79969 290.812 6.82017 290.452 6.84065C290.162 6.85797 289.873 6.87529 289.583 6.89261C289.403 6.90363 289.289 6.98553 289.337 7.07688C289.363 7.12885 289.385 7.18081 289.407 7.23278C289.455 7.33673 289.548 7.36351 289.842 7.35878C289.917 7.35721 289.987 7.3446 290.057 7.34775C290.342 7.35877 290.478 7.48948 290.821 7.46271C291.106 7.44066 291.405 7.43594 291.686 7.40759C291.945 7.38239 292.09 7.4391 292.27 7.48162C292.331 7.4958 292.397 7.5257 292.45 7.52413C292.814 7.50681 293.179 7.4895 293.534 7.45957C293.701 7.44698 293.802 7.45642 293.934 7.49422C294.25 7.58556 294.259 7.58083 294.729 7.55249C295.071 7.53044 295.076 7.53359 295.515 7.62965C295.638 7.65642 295.769 7.65642 295.927 7.64382C296.134 7.62807 296.349 7.60288 296.564 7.6265C296.63 7.6328 296.713 7.6517 296.735 7.67218C296.748 7.68635 296.687 7.721 296.634 7.73202C296.248 7.81391 295.796 7.79974 295.374 7.83282C295.242 7.84226 295.111 7.81234 295.001 7.76982C294.887 7.7273 294.764 7.70998 294.615 7.71785C294.325 7.73518 294.031 7.7462 293.745 7.77139C293.499 7.79344 293.328 7.75722 293.157 7.7084C293.1 7.69265 293.034 7.66272 292.977 7.66429C292.327 7.69579 291.673 7.7273 291.027 7.77139C290.768 7.79029 290.619 7.7399 290.443 7.69738C290.382 7.68321 290.321 7.65328 290.263 7.65486C290.044 7.66115 289.829 7.67848 289.609 7.69107C288.81 7.73832 288.015 7.78557 287.216 7.82966C287.164 7.83281 287.098 7.79974 287.036 7.78556C286.918 7.75721 286.795 7.73044 286.672 7.70367C286.452 7.71626 286.237 7.73201 286.018 7.74146C285.86 7.74776 285.719 7.76982 285.697 7.82966C285.684 7.86903 285.829 7.90525 285.983 7.9021C286.132 7.89895 286.281 7.88005 286.404 7.90052C287.014 8.00131 287.014 8.00289 287.396 7.98242C287.73 7.96352 287.695 7.94777 287.989 8.03438C288.116 8.07218 288.231 8.09424 288.375 8.08479C288.735 8.06274 289.1 8.04069 289.464 8.02179C289.521 8.01864 289.596 8.03439 289.653 8.04699C290.083 8.14149 290.083 8.14463 290.439 8.12101C290.904 8.09266 290.922 8.08479 291.234 8.18085C291.449 8.247 291.646 8.20132 291.853 8.19817C292.09 8.25959 292.349 8.31472 292.564 8.38402C292.819 8.46591 293.087 8.45172 293.376 8.4281C293.591 8.41077 293.802 8.40448 293.978 8.46905C294.145 8.52889 294.347 8.5352 294.575 8.51945C294.781 8.50528 294.992 8.47535 295.207 8.50999C295.264 8.51944 295.352 8.54307 295.348 8.55725C295.343 8.57929 295.286 8.6108 295.229 8.62024C294.825 8.68481 294.382 8.68323 293.956 8.71316C293.899 8.71788 293.824 8.70055 293.767 8.68795C293.644 8.65961 293.526 8.62654 293.407 8.59662C293.192 8.60607 292.972 8.60921 292.762 8.62811C292.599 8.64228 292.476 8.64072 292.358 8.60292C292.248 8.56828 292.129 8.52575 291.998 8.51472C291.866 8.5037 291.712 8.52732 291.567 8.53677C291.423 8.54622 291.256 8.54149 291.142 8.56669C291.027 8.59188 290.957 8.64701 290.882 8.69111C290.799 8.73993 290.685 8.75568 290.518 8.76041C290.364 8.76513 290.241 8.75883 290.127 8.71473C290.079 8.69583 290.013 8.68165 289.947 8.66905C289.886 8.65803 289.816 8.6407 289.758 8.64385C289.104 8.68007 288.454 8.71946 287.8 8.75726C287.475 8.77615 287.48 8.77614 286.804 8.68322C286.742 8.67535 286.667 8.66433 286.606 8.66748C286.242 8.68638 285.882 8.70843 285.517 8.73048C285.148 8.75253 285.153 8.74937 284.525 8.65016C284.411 8.63126 284.244 8.65646 284.108 8.65331C283.822 8.64544 283.682 8.51315 283.348 8.53835C283.063 8.5604 282.764 8.56512 282.479 8.59347C282.22 8.61866 282.071 8.56355 281.895 8.52103C281.833 8.50685 281.768 8.47535 281.715 8.4785C281.061 8.51315 280.411 8.55252 279.542 8.55725C279.326 8.55725 279.423 8.59032 279.563 8.60135C279.765 8.61867 279.831 8.5856 279.722 8.5226C279.643 8.47851 279.528 8.45644 279.436 8.46747C279.388 8.47377 279.326 8.5037 279.542 8.55725C279.77 8.61709 279.757 8.65016 279.796 8.66905C279.893 8.71473 280.029 8.73362 280.169 8.72732C280.389 8.7163 280.604 8.70055 280.824 8.69111C280.885 8.68796 280.96 8.69898 281.017 8.71158C281.5 8.80922 281.504 8.81553 282.018 8.77773C282.18 8.76671 282.299 8.76671 282.426 8.79663C282.602 8.83757 282.729 8.90686 282.997 8.88481C283.353 8.85489 283.717 8.83758 284.081 8.82026C284.138 8.81711 284.2 8.84545 284.266 8.85805C284.446 8.89585 284.578 8.96671 284.845 8.93679C285.052 8.91317 285.276 8.90686 285.495 8.90213C285.552 8.90056 285.64 8.92576 285.666 8.94623C285.719 8.98245 285.653 9.02499 285.504 9.05491C285.443 9.06751 285.359 9.06435 285.289 9.06908C284.999 9.0864 284.709 9.10529 284.419 9.11946C284.266 9.12734 284.121 9.15097 284.103 9.20924C284.09 9.24861 284.248 9.28325 284.398 9.2801C284.617 9.27538 284.837 9.26278 285.047 9.24231C285.421 9.20766 285.745 9.2171 286.048 9.31632C286.264 9.38561 286.25 9.36043 286.479 9.56516C286.536 9.61713 286.707 9.62185 286.856 9.6187C287.216 9.61083 287.383 9.63445 287.352 9.68327C287.313 9.74312 287.186 9.76201 287.023 9.76988C286.733 9.78248 286.444 9.80296 286.154 9.82029C286.084 9.82501 286.004 9.83445 285.939 9.8313C285.873 9.82815 285.811 9.80926 285.754 9.79508C285.631 9.76516 285.526 9.71948 285.394 9.70846C285.262 9.69743 285.109 9.72106 284.964 9.73051C284.819 9.73838 284.665 9.76201 284.534 9.75098C284.402 9.73996 284.292 9.69272 284.174 9.66438C284.117 9.6502 284.046 9.62814 283.989 9.62971C283.699 9.64231 283.41 9.6628 283.12 9.67854C282.764 9.69902 282.764 9.69902 282.334 9.60138C282.211 9.57303 282.084 9.57461 281.921 9.58721C281.57 9.61241 281.566 9.60767 280.925 9.51633C280.863 9.50688 280.788 9.49586 280.727 9.50059C280.073 9.53681 279.423 9.57617 278.773 9.61397C278.216 9.64704 278.216 9.64706 277.908 9.80454C277.68 9.92108 277.675 9.92107 277.899 9.97462C278.079 10.0187 278.242 10.0833 278.439 10.1069C278.624 10.129 278.852 10.0581 279.054 10.1305C279.155 10.1668 279.287 10.2061 279.414 10.2124C279.616 10.2203 279.831 10.1746 280.025 10.2439C280.121 10.2786 280.266 10.3148 280.389 10.3164C280.604 10.3195 280.824 10.2943 281.039 10.2833C281.105 10.2801 281.179 10.2801 281.241 10.288C281.307 10.2975 281.364 10.3164 281.421 10.3321C281.596 10.3857 281.785 10.4109 282.013 10.3841C282.387 10.34 282.72 10.362 283.01 10.4628C283.05 10.477 283.146 10.4786 283.208 10.4723C283.366 10.4565 283.502 10.455 283.62 10.4849C283.669 10.4975 283.739 10.5195 283.73 10.5337C283.717 10.5573 283.664 10.5888 283.607 10.5967C283.194 10.6502 282.751 10.6565 282.325 10.6849C282.268 10.688 282.198 10.6675 282.141 10.6534C282.018 10.625 281.912 10.5778 281.781 10.5668C281.649 10.5557 281.495 10.5762 281.35 10.5841C281.206 10.592 281.052 10.6156 280.92 10.6061C280.788 10.5951 280.666 10.5557 280.56 10.5211C280.437 10.4817 280.319 10.477 280.156 10.4928C279.945 10.5132 279.726 10.5164 279.511 10.5274C279.392 10.4975 279.274 10.4644 279.151 10.436C279.094 10.4219 279.023 10.4046 278.962 10.4061C278.672 10.4187 278.382 10.4376 278.093 10.4549C277.803 10.4723 277.803 10.4723 277.311 10.3746C277.254 10.3636 277.179 10.351 277.118 10.3542C276.753 10.3731 276.393 10.3967 276.029 10.4156C275.888 10.4234 275.761 10.4014 275.647 10.3589C275.537 10.3164 275.406 10.2927 275.269 10.3006C274.69 10.3337 274.11 10.3652 273.531 10.4046C273.298 10.4203 273.1 10.4061 272.942 10.3494C272.758 10.2849 272.552 10.3006 272.337 10.3132C271.849 10.3447 271.845 10.3431 271.533 10.2628C271.472 10.2471 271.41 10.2171 271.353 10.2187C270.848 10.2423 270.339 10.2644 269.838 10.3022C269.575 10.3227 269.434 10.2675 269.259 10.2266C269.197 10.2124 269.131 10.1825 269.079 10.1856C268.714 10.203 268.35 10.2187 267.994 10.2502C267.639 10.2817 267.502 10.1353 267.235 10.1368C266.87 10.1384 266.51 10.1746 266.15 10.1967C265.86 10.214 265.571 10.2313 265.281 10.2486C264.991 10.266 264.701 10.2801 264.411 10.3006C264.258 10.3116 264.144 10.2975 264.016 10.2581C263.854 10.2061 263.661 10.1652 263.485 10.1179C263.217 10.0502 263.217 10.0502 262.892 10.0691C262.822 10.0738 262.747 10.077 262.677 10.0817C262.146 10.1163 262.146 10.1132 261.47 10.014C261.439 10.0093 261.36 10.0266 261.329 10.0392C261.237 10.0801 261.154 10.1242 261.07 10.1667C260.952 10.1416 260.807 10.1274 260.728 10.0912C260.504 9.98879 260.153 10.129 259.924 10.0282C259.841 9.99036 259.696 9.95729 259.564 9.94784C259.428 9.93839 259.274 9.96044 259.134 9.96989C258.77 9.99351 258.77 9.99194 258.458 10.1321C258.3 10.2014 258.071 10.1888 257.865 10.2045C257.65 10.2219 257.444 10.2313 257.264 10.1667C257.101 10.1085 256.904 10.0943 256.671 10.1132C256.385 10.1368 256.091 10.151 255.802 10.1652C255.74 10.1683 255.665 10.1605 255.604 10.151C254.932 10.0581 254.932 10.0565 254.607 10.077C254.462 10.0864 254.313 10.0896 254.173 10.1037C253.935 10.1289 253.755 10.0959 253.584 10.0455C253.527 10.0297 253.461 9.99982 253.404 10.0014C253.114 10.0093 252.829 10.0234 252.544 10.0376C252.324 10.0486 252.105 10.0549 251.894 10.077C251.543 10.1132 251.371 10.0108 251.13 9.96358C250.77 9.98406 250.405 9.99824 250.045 10.0266C249.879 10.0392 249.769 10.0345 249.641 9.99667C249.479 9.94942 249.33 9.89588 249.066 9.9195C248.715 9.951 248.346 9.96203 247.986 9.98092C247.745 9.9321 247.569 9.83288 247.222 9.8691C247.012 9.89114 246.788 9.89587 246.572 9.90847C246.283 9.92579 245.993 9.94155 245.703 9.96045C245.391 9.97935 245.396 9.97462 244.917 9.88171C244.641 9.82659 244.355 9.888 244.074 9.89745C243.855 9.90533 243.745 9.97777 243.798 10.0707C243.85 10.1636 243.732 10.236 243.53 10.2486C243.025 10.2786 242.515 10.3101 242.011 10.3368C241.949 10.34 241.874 10.329 241.817 10.3179C241.277 10.2187 241.277 10.2203 241.036 10.2345C240.676 10.2581 240.307 10.2707 239.951 10.3006C239.705 10.3211 239.525 10.288 239.367 10.2345C239.244 10.1935 239.13 10.1841 238.972 10.1935C237.234 10.299 235.495 10.3967 233.761 10.5053C233.502 10.5211 233.352 10.4754 233.177 10.4329C233.115 10.4187 233.058 10.3888 232.997 10.3888C232.852 10.3888 232.707 10.403 232.562 10.4124C231.912 10.4502 231.262 10.4959 230.608 10.5242C230.332 10.5368 230.257 10.6093 230.138 10.6691C230.046 10.7148 229.941 10.7337 229.778 10.74C229.62 10.7463 229.506 10.7384 229.383 10.6975C229.225 10.6439 229.045 10.6109 228.799 10.6329C228.514 10.6581 228.224 10.6691 227.93 10.6865C227.781 10.6943 227.666 10.7227 227.618 10.7794C227.609 10.7888 227.702 10.8124 227.754 10.8266C227.93 10.8739 228.097 10.929 228.294 10.9621C228.496 10.9951 228.716 10.9573 228.926 10.9479C229.001 10.9447 229.071 10.9353 229.142 10.9369C229.207 10.9384 229.287 10.9463 229.335 10.9605C229.563 11.0314 229.805 11.0802 230.121 11.0376C230.393 11.0581 230.534 11.1888 230.88 11.1542C231.091 11.1337 231.311 11.1243 231.53 11.1164C231.587 11.1148 231.649 11.1432 231.71 11.1573C231.886 11.1967 232.026 11.2597 232.29 11.2329C232.571 11.2046 232.869 11.1999 233.155 11.1778C233.313 11.1652 233.427 11.1762 233.55 11.2172C233.708 11.2692 233.888 11.3085 234.134 11.2833C234.345 11.2613 234.568 11.2565 234.784 11.2424C235.065 11.225 235.065 11.2266 235.565 11.3243C235.622 11.3353 235.697 11.3479 235.758 11.3447C236.123 11.3258 236.483 11.3022 236.847 11.2833C236.988 11.2754 237.124 11.2959 237.22 11.3416C237.26 11.3605 237.247 11.392 237.26 11.4188C236.535 11.4613 235.811 11.4975 235.091 11.5495C234.819 11.57 234.696 11.5054 234.516 11.4692C234.454 11.4566 234.388 11.4298 234.331 11.4329C233.822 11.4597 233.317 11.4881 232.812 11.5227C232.654 11.5337 232.536 11.5274 232.417 11.4818C232.114 11.3605 231.745 11.4266 231.403 11.444C231.139 11.4566 231.056 11.5054 231.087 11.6093C231.126 11.7322 231.284 11.77 231.688 11.7479C231.833 11.74 231.978 11.729 232.123 11.7227C232.263 11.7164 232.391 11.7369 232.505 11.7794C232.615 11.8219 232.746 11.844 232.882 11.8377C233.172 11.8235 233.466 11.8093 233.747 11.7857C233.98 11.7668 234.173 11.7826 234.336 11.8408C234.516 11.9054 234.727 11.8912 234.937 11.877C235.429 11.8455 235.433 11.8471 235.741 11.9259C235.802 11.9416 235.864 11.9715 235.921 11.97C236.426 11.9463 236.935 11.9259 237.431 11.8881C237.69 11.8692 237.84 11.9196 238.011 11.9605C238.072 11.9747 238.134 12.0062 238.191 12.003C238.555 11.9857 238.92 11.9684 239.275 11.9385C239.442 11.9243 239.543 11.9337 239.679 11.9715C240.004 12.0644 240.013 12.0613 240.474 12.0314C240.614 12.0219 240.768 12.0046 240.9 12.0172C241.031 12.0298 241.137 12.0755 241.26 12.1038C241.317 12.1164 241.387 12.1337 241.449 12.1306C241.738 12.118 242.028 12.0991 242.318 12.0818C242.59 12.0645 242.59 12.066 243.099 12.1637C243.306 12.2046 243.521 12.17 243.727 12.1574C243.951 12.1432 244.153 12.1432 244.324 12.2046C244.496 12.266 244.702 12.2629 244.922 12.2503C245.128 12.2377 245.339 12.2031 245.549 12.2456C246.032 12.3432 246.032 12.3448 246.331 12.3259C246.766 12.2991 247.196 12.2739 247.635 12.2503C247.692 12.2471 247.767 12.266 247.824 12.2786C247.947 12.307 248.052 12.3542 248.184 12.3652C248.315 12.3778 248.469 12.3589 248.61 12.3495C249.062 12.3196 249.093 12.3086 249.396 12.4125C249.65 12.4975 249.966 12.3747 250.203 12.4723C250.34 12.5275 250.524 12.5716 250.779 12.5448C250.989 12.5227 251.209 12.5164 251.428 12.5038C251.775 12.4834 251.775 12.485 252.214 12.5794C252.271 12.592 252.346 12.6078 252.403 12.6046C252.693 12.592 252.987 12.581 253.268 12.5527C253.597 12.5196 253.808 12.5794 254.054 12.6377C254.247 12.6834 254.476 12.6456 254.682 12.6298C254.906 12.6141 255.108 12.6188 255.275 12.6802C255.45 12.7432 255.657 12.7353 255.876 12.7227C256.082 12.7117 256.293 12.6755 256.504 12.7196C256.956 12.8172 256.956 12.8172 257.285 12.7983C257.575 12.781 257.865 12.7621 258.155 12.7495C258.212 12.7464 258.282 12.7668 258.339 12.781C258.462 12.8094 258.568 12.8566 258.699 12.8676C258.831 12.8787 258.985 12.8582 259.13 12.8503C259.274 12.8424 259.428 12.8188 259.56 12.8283C259.692 12.8377 259.814 12.8771 259.92 12.9117C260.043 12.9527 260.157 12.9574 260.324 12.9416C260.535 12.9212 260.754 12.9165 260.969 12.9054C261.088 12.9354 261.211 12.9653 261.325 12.9983C261.443 13.033 261.571 13.0298 261.733 13.0188C262.273 12.981 262.278 12.9857 262.73 13.0834C262.936 13.1275 263.151 13.0913 263.358 13.0802C263.577 13.0676 263.784 13.0613 263.955 13.1243C264.122 13.1842 264.328 13.192 264.548 13.1731C264.688 13.1605 264.837 13.1527 264.982 13.148C265.048 13.1464 265.127 13.1527 265.175 13.1653C265.408 13.2314 265.636 13.2913 265.957 13.2488C266.238 13.2614 266.378 13.3905 266.717 13.3653C267.002 13.3432 267.3 13.3385 267.581 13.3102C267.841 13.285 268.025 13.3291 268.157 13.3842C268.394 13.4818 268.727 13.3495 268.965 13.4456C269.101 13.5007 269.276 13.5448 269.54 13.5212C269.829 13.496 269.922 13.5291 270.005 13.6283C270.053 13.685 270.045 13.7307 269.957 13.7748C269.869 13.8204 269.772 13.8126 269.632 13.7606C269.47 13.7023 269.276 13.6913 269.044 13.7039C268.815 13.7165 268.675 13.6346 268.486 13.6031C268.297 13.57 268.073 13.6251 267.876 13.5826C267.41 13.4834 267.41 13.4834 267.094 13.5023C266.879 13.5149 266.655 13.5212 266.444 13.5433C266.194 13.57 266.032 13.5212 265.86 13.4771C265.799 13.4614 265.737 13.4314 265.685 13.433C265.18 13.4566 264.67 13.4787 264.17 13.5181C263.907 13.5385 263.766 13.4818 263.59 13.4425C263.529 13.4283 263.463 13.3999 263.41 13.4031C262.976 13.4251 262.545 13.4535 262.111 13.4803C262.027 13.5228 261.935 13.5637 261.856 13.6094C261.773 13.6566 261.659 13.6771 261.492 13.6755C261.215 13.6755 260.943 13.7417 260.666 13.6582C260.381 13.5732 260.359 13.5779 260.082 13.5984C259.731 13.6251 259.358 13.6188 259.029 13.6803C258.971 13.6913 258.91 13.7212 258.91 13.7432C258.906 13.7574 258.998 13.7779 259.055 13.7905C259.248 13.8283 259.472 13.7732 259.665 13.8125C259.793 13.8377 259.898 13.8755 260.025 13.9023C260.078 13.9133 260.157 13.9118 260.227 13.9102C260.302 13.9086 260.372 13.8976 260.442 13.8992C260.508 13.9007 260.579 13.9102 260.631 13.9244C260.873 13.9842 261.127 14.0393 261.342 14.1102C261.553 14.1795 261.751 14.1322 261.961 14.1291C262.804 14.2393 262.805 14.2409 263.371 14.2063C263.511 14.1984 263.656 14.1889 263.801 14.1905C263.863 14.1905 263.92 14.2189 263.981 14.2346C264.157 14.2818 264.324 14.3244 264.57 14.2992C264.78 14.2771 265.004 14.2724 265.219 14.2582C265.509 14.2409 265.509 14.2409 266.001 14.3401C266.124 14.3653 266.256 14.3622 266.414 14.3496C266.55 14.3386 266.69 14.3622 266.787 14.4079C266.826 14.4267 266.813 14.4582 266.826 14.485C266.392 14.5102 265.953 14.5275 265.531 14.5653C265.259 14.589 265.136 14.5212 264.956 14.485C264.894 14.4724 264.829 14.4456 264.772 14.4488C264.341 14.4724 263.911 14.4992 263.481 14.5307C263.428 14.5338 263.362 14.57 263.358 14.5921C263.349 14.633 263.459 14.6724 263.617 14.6708C263.827 14.6693 264.034 14.6425 264.223 14.7071C264.381 14.7638 264.578 14.789 264.811 14.7638C264.951 14.7496 265.101 14.7496 265.241 14.737C265.615 14.6992 265.953 14.7071 266.234 14.8142C266.449 14.8425 266.659 14.8157 266.866 14.8016C267.02 14.7905 267.169 14.7795 267.279 14.8094C267.511 14.8724 267.74 14.9354 268.06 14.8929C268.407 14.937 268.67 15.0299 268.96 15.1055C269.096 15.1417 269.202 15.1622 269.36 15.1386C269.426 15.1291 269.505 15.1291 269.575 15.1244C269.72 15.1165 269.873 15.0929 270.005 15.1023C270.137 15.1134 270.247 15.159 270.365 15.1874C270.422 15.2016 270.488 15.2252 270.545 15.2236C270.765 15.2157 270.98 15.2 271.195 15.1874C271.41 15.1764 271.625 15.1654 271.84 15.1543C272.02 15.1953 272.205 15.2362 272.385 15.2772C272.675 15.2599 272.964 15.2425 273.25 15.2268C273.57 15.2079 273.57 15.2094 274.031 15.3071C274.238 15.3512 274.457 15.3228 274.655 15.3024C274.984 15.2693 275.204 15.3291 275.436 15.3921C275.485 15.4047 275.572 15.4126 275.629 15.4063C275.858 15.3843 276.055 15.4016 276.222 15.4598C276.341 15.5008 276.459 15.5197 276.604 15.5118C277.109 15.4819 277.614 15.4504 278.119 15.4236C278.18 15.4205 278.251 15.4347 278.308 15.4473C278.756 15.5433 278.76 15.548 279.089 15.5228C279.383 15.5008 279.656 15.4913 279.888 15.578C279.937 15.5969 280.011 15.6236 280.064 15.6221C280.424 15.6063 280.788 15.589 281.144 15.5622C281.307 15.5496 281.421 15.5543 281.548 15.5906C281.71 15.6362 281.855 15.6914 282.123 15.6709C282.865 15.6126 282.87 15.6221 283.748 15.7307C283.809 15.7386 283.893 15.726 283.963 15.7197C284.112 15.704 284.222 15.726 284.354 15.7622C284.648 15.8441 284.657 15.8394 284.938 15.8221C285.153 15.8079 285.377 15.8047 285.587 15.7811C285.912 15.7465 286.127 15.8079 286.369 15.8662C286.562 15.9118 286.786 15.874 286.992 15.8599C287.216 15.8441 287.418 15.8488 287.585 15.9087C287.699 15.9496 287.822 15.9717 287.967 15.9638C288.472 15.9355 288.977 15.904 289.482 15.8756C289.543 15.8725 289.618 15.8851 289.675 15.8961C290.176 15.9937 290.176 15.9985 290.672 15.9622C290.83 15.9512 290.961 15.9481 291.08 15.9811C291.194 16.0126 291.317 16.0425 291.436 16.0725C291.651 16.0614 291.87 16.0583 292.081 16.0394C292.244 16.0252 292.358 16.0315 292.485 16.0646C292.652 16.1071 292.792 16.1811 293.056 16.1449C293.192 16.1276 293.35 16.1323 293.486 16.1166C293.649 16.0961 293.758 16.1087 293.886 16.1496C294.044 16.1985 294.206 16.2488 294.461 16.2236C294.742 16.1953 295.04 16.1906 295.326 16.1685C295.484 16.1559 295.594 16.1685 295.721 16.2095C295.879 16.2614 296.059 16.2945 296.305 16.2741C296.805 16.2347 296.81 16.2425 297.297 16.3418C297.42 16.367 297.552 16.3638 297.71 16.3512C297.846 16.3402 297.986 16.3638 298.083 16.4095C298.175 16.4599 298.166 16.4914 298.175 16.5181ZM259.051 2.3145C258.906 2.32238 258.761 2.33183 258.55 2.19481C258.537 2.17119 258.546 2.14285 258.515 2.12238C258.445 2.07985 258.335 2.04993 258.203 2.04521C257.966 2.03891 257.681 2.09244 257.685 2.13339C257.689 2.16804 257.764 2.19795 257.909 2.2263C257.97 2.23733 258.019 2.25623 258.076 2.26883C258.243 2.30505 258.374 2.37593 258.616 2.33971C258.594 2.29089 258.572 2.24207 258.616 2.33971C258.594 2.39955 258.66 2.44207 258.818 2.4594C258.862 2.46412 258.928 2.46096 258.963 2.45152C259.099 2.41687 259.121 2.36963 259.02 2.24522C259.002 2.26569 259.015 2.3019 259.055 2.31135C259.094 2.3208 259.191 2.31294 259.239 2.30191C259.362 2.27199 259.424 2.23261 259.393 2.19954C259.375 2.18222 259.292 2.16017 259.239 2.16017C259.147 2.16017 259.064 2.19481 259.051 2.3145ZM294.553 20.5781C294.232 20.6081 293.864 20.597 293.543 20.6585C293.486 20.6695 293.429 20.6978 293.425 20.7199C293.42 20.7341 293.508 20.7545 293.561 20.7656C293.679 20.7908 293.811 20.7829 293.965 20.775C294.197 20.764 294.333 20.8364 294.514 20.8726C294.571 20.8837 294.645 20.8915 294.707 20.8884C295.062 20.8695 295.414 20.849 295.769 20.827C295.831 20.8223 295.897 20.8112 295.949 20.797C296.125 20.7514 296.107 20.7215 295.936 20.6868C295.747 20.649 295.598 20.586 295.405 20.5561C295.128 20.5136 294.847 20.5703 294.553 20.5781ZM269.619 21.7278C269.404 21.7404 269.193 21.753 268.978 21.7656C268.907 21.7703 268.833 21.7719 268.767 21.7782C268.631 21.7892 268.53 21.8223 268.464 21.8742C268.565 21.9152 268.688 21.9388 268.824 21.9341C269.039 21.9246 269.25 21.9042 269.465 21.8994C269.698 21.8931 269.834 21.964 270.014 22.0002C270.071 22.0113 270.141 22.0128 270.207 22.0144C270.532 22.0207 270.73 21.9388 270.668 21.8239C270.624 21.7341 270.457 21.6805 270.255 21.6916C270.045 21.7026 269.83 21.7152 269.619 21.7278ZM296.055 18.2505C296.107 18.2237 296.164 18.2048 296.191 18.1812C296.27 18.1009 296.239 18.041 296.094 17.978C295.918 17.9009 295.703 17.9528 295.506 17.9607C295.458 17.9623 295.405 17.9954 295.378 18.0158C295.361 18.03 295.361 18.0599 295.387 18.0678C295.602 18.1308 295.831 18.1891 296.055 18.2505ZM257.966 13.5984C257.755 13.611 257.54 13.6204 257.329 13.6377C257.277 13.6425 257.228 13.6724 257.198 13.6929C257.141 13.7307 257.202 13.7826 257.382 13.7873C257.588 13.7936 257.804 13.7669 258.019 13.7543C258.291 13.7385 258.453 13.6803 258.352 13.6299C258.256 13.581 258.124 13.5716 257.966 13.5984ZM26.8486 10.2329C26.9891 10.225 27.1339 10.2187 27.2744 10.2077C27.4061 10.1967 27.5072 10.162 27.5731 10.1101C27.4633 10.0691 27.3403 10.0471 27.2042 10.0518C26.9891 10.0612 26.7784 10.0738 26.5676 10.0896C26.4359 10.099 26.3086 10.1337 26.2779 10.1872C26.2471 10.2282 26.5412 10.2518 26.8486 10.2329ZM239.398 9.99036C239.455 10.0045 239.512 10.0329 239.569 10.0329C239.71 10.0329 239.855 10.0234 239.987 10.0077C240.044 10.0014 240.087 9.97304 240.114 9.95099C240.131 9.93682 240.127 9.91163 240.101 9.89903C239.973 9.82344 239.464 9.85021 239.381 9.93682C239.372 9.95257 239.394 9.97304 239.398 9.99036ZM225.546 1.36644C225.559 1.39163 225.563 1.41683 225.581 1.44203C225.616 1.48927 225.713 1.52393 225.853 1.54755C225.963 1.50818 226.02 1.46409 226.016 1.41684C226.011 1.39164 225.998 1.36643 225.98 1.34123C225.945 1.29399 225.849 1.25935 225.708 1.23573C225.598 1.27353 225.546 1.31761 225.546 1.36644ZM306.201 22.0018C306.162 22.0223 306.122 22.0428 306.078 22.0617C306.197 22.1073 306.307 22.1215 306.39 22.0963C306.443 22.0806 306.474 22.0569 306.513 22.0365C306.395 21.9908 306.289 21.9782 306.201 22.0018ZM303.47 22.216C303.527 22.2302 303.58 22.2491 303.642 22.2585C303.743 22.2743 303.835 22.2475 303.905 22.1908C303.848 22.1766 303.795 22.1577 303.734 22.1483C303.633 22.1325 303.541 22.1593 303.47 22.216ZM305.2 21.9278C305.169 21.9656 305.231 21.9971 305.393 22.0239C305.433 22.0034 305.486 21.9845 305.512 21.9624C305.556 21.9262 305.481 21.8932 305.323 21.868C305.279 21.8869 305.24 21.9073 305.2 21.9278ZM295.932 20.2301C295.901 20.2679 295.962 20.2994 296.125 20.3262C296.164 20.3057 296.217 20.2868 296.243 20.2647C296.287 20.2285 296.213 20.1955 296.055 20.1703C296.011 20.1892 295.971 20.2096 295.932 20.2301ZM283.304 9.0864C283.265 9.10687 283.225 9.12734 283.181 9.14624C283.3 9.19191 283.41 9.20608 283.493 9.18088C283.546 9.16514 283.576 9.14151 283.616 9.12104C283.497 9.07537 283.392 9.06277 283.304 9.0864ZM271.208 3.17437C271.313 3.18539 271.401 3.16336 271.476 3.10509C271.419 3.09091 271.366 3.07201 271.305 3.06256C271.204 3.04681 271.112 3.07359 271.041 3.13029C271.098 3.14604 271.155 3.1602 271.208 3.17437ZM264.785 2.80428C264.745 2.82476 264.706 2.84523 264.662 2.86413C264.78 2.9098 264.89 2.92397 264.973 2.89877C265.026 2.88302 265.057 2.8594 265.096 2.83892C264.978 2.79325 264.873 2.78223 264.785 2.80428ZM221.225 1.36486C221.186 1.38533 221.146 1.40581 221.102 1.4247C221.221 1.47038 221.331 1.48454 221.414 1.45935C221.467 1.4436 221.498 1.41997 221.537 1.3995C221.419 1.35383 221.313 1.34281 221.225 1.36486ZM4.33348 14.1779C4.2764 14.1637 4.21937 14.1496 4.16669 14.1338C4.03936 14.1763 3.99986 14.2157 4.07011 14.2456C4.11401 14.2645 4.17982 14.2756 4.2369 14.2897C4.36862 14.2472 4.39934 14.2094 4.33348 14.1779Z" fill="#FFE492"/>
<path d="M29.7981 8.61683C29.2932 8.64675 28.7927 8.68454 28.2878 8.70344C28.02 8.71289 27.9234 8.78061 27.8137 8.8436C27.7259 8.894 27.6249 8.90974 27.4624 8.91919C26.0925 8.99636 24.727 9.07826 23.3615 9.15857C23.1903 9.1381 23.1069 9.10503 23.1464 9.06566C23.1683 9.04204 23.2211 9.00897 23.2737 9.00582C24.2089 8.94755 25.1397 8.8877 26.0793 8.84203C26.3471 8.82943 26.4218 8.76013 26.5579 8.70344C26.6018 8.68454 26.637 8.65619 26.694 8.64517C26.7511 8.63257 26.8345 8.63415 26.9092 8.631C28.4196 8.54123 29.93 8.45305 31.4403 8.36328C31.6116 8.38375 31.695 8.41682 31.6555 8.45619C31.6335 8.47982 31.5808 8.51289 31.5281 8.51604C30.9486 8.54911 30.3733 8.58218 29.7981 8.61683Z" fill="#FFE492"/>
<path d="M306.259 17.0033C306.03 17.0222 305.741 17.049 305.504 16.9576C305.389 16.9135 305.266 16.8994 305.117 16.9088C304.902 16.9246 304.683 16.9372 304.463 16.9466C304.406 16.9482 304.331 16.9309 304.274 16.9167C304.151 16.8883 304.046 16.8411 303.914 16.8285C303.782 16.8159 303.624 16.8505 303.488 16.8427C303.308 16.8316 303.234 16.7891 303.282 16.7498C303.308 16.7277 303.361 16.6962 303.418 16.6915C304.23 16.6332 304.235 16.6332 304.463 16.6899C304.639 16.734 304.801 16.7828 305.051 16.756C305.262 16.734 305.486 16.7293 305.701 16.7151C306 16.6962 306 16.6978 306.483 16.797C306.606 16.8222 306.737 16.8206 306.895 16.8064C307.032 16.7954 307.163 16.8206 307.273 16.8631C307.203 16.9167 307.102 16.9513 306.966 16.9608C306.746 16.9765 306.531 16.9876 306.259 17.0033Z" fill="#FFE492"/>
<path d="M298.176 16.5181C298.729 16.485 299.287 16.4567 299.84 16.4189C300.068 16.4032 300.248 16.4205 300.406 16.474C300.577 16.5323 300.771 16.5276 300.981 16.5166C301.113 16.5103 301.241 16.5354 301.328 16.5795C301.363 16.5969 301.355 16.6284 301.368 16.6536C300.885 16.6819 300.398 16.7118 299.91 16.737C299.853 16.7402 299.783 16.7244 299.73 16.7118C299.612 16.6851 299.511 16.6378 299.383 16.6284C299.111 16.6063 298.839 16.6488 298.562 16.6567C298.43 16.6598 298.303 16.6362 298.215 16.5937C298.18 16.5732 298.189 16.5433 298.176 16.5181Z" fill="#FFE492"/>
<path d="M98.2492 2.97735C98.8244 2.9427 99.3995 2.90965 99.9747 2.875C100.146 2.89705 100.225 2.92854 100.19 2.96791C100.168 2.99153 100.115 3.02461 100.062 3.02776C98.9121 3.09863 97.7619 3.16633 96.6159 3.23405C96.4447 3.21201 96.3656 3.18051 96.4008 3.14114C96.4227 3.11752 96.4754 3.08445 96.5281 3.0813C97.0989 3.04507 97.674 3.012 98.2492 2.97735Z" fill="#FFE492"/>
<path d="M9.62087 11.7291C9.36183 11.7322 9.08966 11.7905 8.79988 11.7464C8.74281 11.7385 8.66375 11.7133 8.66814 11.6992C8.67693 11.6755 8.72962 11.6456 8.7867 11.6362C9.03696 11.5968 9.34873 11.5921 9.47606 11.4818C9.53752 11.4251 9.65168 11.4062 9.80535 11.3952C9.9678 11.3826 10.0819 11.3873 10.2093 11.4204C10.3761 11.4629 10.5166 11.5417 10.7801 11.5007C10.7932 11.5259 10.8239 11.5543 10.8107 11.5779C10.7975 11.6015 10.7406 11.6236 10.6879 11.6409C10.6396 11.6566 10.5736 11.6708 10.5122 11.6755C10.2224 11.6944 9.93261 11.7102 9.62087 11.7291Z" fill="#FFE492"/>
<path d="M237.967 11.4127C238.182 11.4001 238.406 11.3938 238.617 11.3718C238.784 11.3544 238.889 11.3654 239.021 11.4032C239.245 11.4694 239.258 11.4631 239.807 11.4725C239.868 11.4741 239.943 11.4977 239.978 11.5182C240 11.5292 239.969 11.5592 239.943 11.5749C239.903 11.5954 239.846 11.6222 239.793 11.6222C239.447 11.6269 239.095 11.7198 238.757 11.6127C238.586 11.5592 238.397 11.534 238.165 11.5576C238.024 11.5718 237.875 11.5781 237.73 11.5844C237.589 11.5907 237.445 11.5733 237.357 11.5261C237.229 11.4568 237.304 11.43 237.532 11.4348C237.677 11.4379 237.822 11.4206 237.967 11.4127Z" fill="#FFE492"/>
<path d="M317.542 22.2679C317.819 22.2522 318.096 22.2333 318.377 22.2207C318.434 22.2176 318.504 22.2349 318.557 22.2459C318.767 22.2932 318.737 22.3735 318.745 22.4443C318.75 22.5183 318.262 22.5782 318.056 22.5278C317.828 22.4711 317.621 22.4066 317.305 22.4412C317.182 22.4538 317.037 22.4254 316.958 22.3798C316.84 22.3136 316.906 22.2868 317.13 22.2916C317.261 22.2947 317.402 22.2774 317.542 22.2679Z" fill="#FFE492"/>
<path d="M178.149 0.832558C178.435 0.815235 178.72 0.788475 179.006 0.7869C179.172 0.785325 179.256 0.837286 179.216 0.875082C179.194 0.898705 179.142 0.931778 179.089 0.934928C178.518 0.972724 177.947 1.00423 177.377 1.03887C177.21 1.01683 177.126 0.983759 177.166 0.945962C177.188 0.92234 177.241 0.890842 177.293 0.886117C177.579 0.864069 177.864 0.849881 178.149 0.832558Z" fill="#FFE492"/>
<path d="M312.067 17.1417C312.343 17.1259 312.624 17.1023 312.901 17.0944C313.046 17.0913 313.16 17.1275 313.178 17.1684C313.186 17.1873 313.116 17.2204 313.059 17.2283C312.664 17.2818 312.238 17.2881 311.825 17.3149C311.694 17.3228 311.553 17.2976 311.474 17.2535C311.356 17.1858 311.421 17.1606 311.645 17.1653C311.786 17.1669 311.926 17.1496 312.067 17.1417Z" fill="#FFE492"/>
<path d="M245.22 11.6253C245.36 11.6174 245.505 11.5969 245.641 11.6032C245.786 11.6111 245.878 11.6568 245.922 11.7025C245.97 11.7544 245.966 11.8033 245.922 11.8473C245.852 11.9229 245.782 11.9198 245.619 11.8694C245.369 11.7907 245.351 11.8001 244.855 11.8032C244.798 11.8032 244.728 11.7796 244.684 11.7591C244.618 11.7276 244.653 11.6788 244.807 11.6505C244.921 11.63 245.079 11.6332 245.22 11.6253Z" fill="#FFE492"/>
<path d="M301.78 16.6253C301.986 16.6127 302.193 16.5922 302.399 16.5922C302.544 16.5906 302.658 16.6269 302.671 16.6662C302.676 16.6851 302.61 16.7166 302.557 16.7261C302.307 16.7686 302.026 16.7717 301.754 16.7859C301.626 16.7922 301.486 16.767 301.407 16.7229C301.288 16.6568 301.359 16.6268 301.574 16.6363C301.64 16.6394 301.71 16.63 301.78 16.6253Z" fill="#FFE492"/>
<path d="M269.303 14.693C268.996 14.7119 268.706 14.6883 268.728 14.6473C268.758 14.5938 268.886 14.5591 269.017 14.5497C269.228 14.5339 269.439 14.5213 269.654 14.5119C269.79 14.5056 269.913 14.5292 270.023 14.5701C269.957 14.6205 269.856 14.6568 269.724 14.6678C269.588 14.6788 269.443 14.6851 269.303 14.693Z" fill="#FFE492"/>
<path d="M267.286 14.4914C267.492 14.4788 267.699 14.4583 267.905 14.4583C268.05 14.4567 268.164 14.4929 268.177 14.5323C268.182 14.5512 268.116 14.5827 268.063 14.5922C267.813 14.6347 267.532 14.6378 267.26 14.652C267.132 14.6583 266.992 14.6331 266.913 14.589C266.794 14.5229 266.864 14.493 267.08 14.5024C267.145 14.5056 267.216 14.4961 267.286 14.4914Z" fill="#FFE492"/>
<path d="M242.731 11.6126C242.938 11.6 243.144 11.5795 243.35 11.5779C243.495 11.5764 243.609 11.6126 243.623 11.652C243.627 11.6709 243.561 11.7008 243.508 11.7118C243.258 11.7543 242.977 11.7575 242.705 11.7717C242.578 11.778 242.437 11.7528 242.358 11.7087C242.24 11.6425 242.31 11.6126 242.525 11.622C242.591 11.6252 242.661 11.6157 242.731 11.6126Z" fill="#FFE492"/>
<path d="M241.575 11.5196C241.794 11.507 241.865 11.4991 241.935 11.4991C242.067 11.4991 242.203 11.518 242.282 11.5637C242.4 11.6299 242.33 11.6488 242.115 11.6519C241.838 11.6551 241.566 11.6881 241.29 11.6944C241.145 11.6976 241.03 11.6598 241.022 11.6204C241.017 11.6015 241.083 11.5684 241.136 11.5621C241.32 11.5385 241.522 11.5243 241.575 11.5196Z" fill="#FFE492"/>
<path d="M265.499 2.25472C265.359 2.2626 265.21 2.28465 265.078 2.27677C264.902 2.26575 264.832 2.22323 264.876 2.18386C264.902 2.16181 264.951 2.13032 265.003 2.12559C265.284 2.10354 265.57 2.08936 265.851 2.07361C266.018 2.09723 266.092 2.1303 266.048 2.16967C266.022 2.19172 265.974 2.22164 265.921 2.22794C265.785 2.24369 265.64 2.24685 265.499 2.25472Z" fill="#FFE492"/>
<path d="M95.1004 3.16329C95.2366 3.16172 95.3594 3.18219 95.4648 3.22156C95.3989 3.27196 95.3024 3.30503 95.1707 3.3192C95.1048 3.3255 95.0302 3.33022 94.9599 3.33179C94.8238 3.33494 94.7008 3.3129 94.5955 3.27352C94.6613 3.22313 94.7623 3.19006 94.8896 3.17588C94.9555 3.16959 95.0302 3.16802 95.1004 3.16329Z" fill="#FFE492"/>
<path d="M310.566 17.1356C310.562 17.09 310.83 17.038 311.071 17.0396C311.199 17.0412 311.33 17.0632 311.405 17.1057C311.519 17.1703 311.453 17.1955 311.238 17.1908C311.106 17.1876 310.966 17.2144 310.834 17.2097C310.685 17.2081 310.597 17.1734 310.566 17.1356Z" fill="#FFE492"/>
<path d="M246.492 11.8157C246.488 11.7984 246.466 11.7779 246.479 11.7621C246.562 11.6755 247.067 11.6488 247.199 11.7244C247.221 11.7385 247.23 11.7621 247.212 11.7763C247.186 11.7984 247.137 11.8267 247.085 11.833C246.949 11.8488 246.808 11.8566 246.668 11.8582C246.606 11.8582 246.549 11.8314 246.492 11.8157Z" fill="#FFE492"/>
<path d="M11.1826 11.4771C10.6645 11.5102 10.6557 11.507 10.7479 11.4283C10.8313 11.3574 10.985 11.3149 11.2089 11.3149C11.2748 11.3149 11.345 11.3117 11.4021 11.318C11.4636 11.3259 11.5514 11.3416 11.5646 11.3605C11.591 11.3968 11.5162 11.4361 11.3845 11.4629C11.3274 11.4755 11.2528 11.4724 11.1826 11.4771Z" fill="#FFE492"/>
<path d="M101.587 2.94149C101.433 2.96827 101.301 2.95882 101.205 2.90843C101.108 2.85803 101.262 2.79818 101.53 2.78401C101.6 2.78086 101.675 2.76827 101.74 2.77457C101.806 2.77929 101.872 2.79817 101.912 2.81707C101.982 2.84857 101.938 2.8911 101.798 2.92732C101.741 2.9415 101.657 2.93834 101.587 2.94149Z" fill="#FFE492"/>
<path d="M309.652 17.0171C309.691 16.9966 309.731 16.9762 309.775 16.9573C309.937 16.984 310.007 17.0155 309.963 17.0518C309.937 17.0738 309.884 17.0927 309.845 17.1132C309.682 17.0864 309.617 17.0533 309.652 17.0171Z" fill="#FFE492"/>
<path d="M18.1367 29.4052C18.1367 29.3863 18.1982 29.3564 18.2465 29.3501C18.3387 29.3391 18.4528 29.3611 18.5318 29.4052C18.6416 29.4682 18.5758 29.5013 18.3738 29.484C18.2333 29.4714 18.1367 29.4399 18.1367 29.4052Z" fill="#FFE492"/>
<path d="M248.282 10.3494C248.339 10.3636 248.396 10.3778 248.448 10.3935C248.374 10.4518 248.282 10.477 248.185 10.4612C248.123 10.4518 248.071 10.4329 248.014 10.4187C248.088 10.3604 248.176 10.3384 248.282 10.3494Z" fill="#FFE492"/>
<path d="M246.761 10.2785C246.849 10.2549 246.954 10.2675 247.077 10.3132C247.038 10.3336 247.003 10.3573 246.954 10.373C246.871 10.3982 246.761 10.3856 246.643 10.3384C246.678 10.3195 246.717 10.299 246.761 10.2785Z" fill="#FFE492"/>
<path d="M245.596 10.3477C245.653 10.3618 245.71 10.376 245.763 10.3918C245.688 10.45 245.6 10.4752 245.499 10.4595C245.438 10.45 245.385 10.4311 245.328 10.4169C245.403 10.3587 245.491 10.3351 245.596 10.3477Z" fill="#FFE492"/>
<path d="M244.742 10.2643C244.808 10.2958 244.773 10.3336 244.646 10.3761C244.589 10.362 244.523 10.3509 244.479 10.332C244.409 10.3021 244.444 10.2627 244.575 10.2202C244.628 10.236 244.685 10.2501 244.742 10.2643Z" fill="#FFE492"/>
</svg>
