<svg width="103" height="16" viewBox="0 0 103 16" fill="none" xmlns="http://www.w3.org/2000/svg">
<path d="M7.5 0.929199L9.18386 6.11157H14.6329L10.2245 9.31445L11.9084 14.4968L7.5 11.2939L3.09161 14.4968L4.77547 9.31445L0.367076 6.11157H5.81614L7.5 0.929199Z" fill="#FFE492"/>
<path d="M29.5 0.929199L31.1839 6.11157H36.6329L32.2245 9.31445L33.9084 14.4968L29.5 11.2939L25.0916 14.4968L26.7755 9.31445L22.3671 6.11157H27.8161L29.5 0.929199Z" fill="#FFE492"/>
<path d="M51.5 0.929199L53.1839 6.11157H58.6329L54.2245 9.31445L55.9084 14.4968L51.5 11.2939L47.0916 14.4968L48.7755 9.31445L44.3671 6.11157H49.8161L51.5 0.929199Z" fill="#FFE492"/>
<path d="M73.5 0.929199L75.1839 6.11157H80.6329L76.2245 9.31445L77.9084 14.4968L73.5 11.2939L69.0916 14.4968L70.7755 9.31445L66.3671 6.11157H71.8161L73.5 0.929199Z" fill="#FFE492"/>
<path d="M95.5 0.929199L97.1839 6.11157H102.633L98.2245 9.31445L99.9084 14.4968L95.5 11.2939L91.0916 14.4968L92.7755 9.31445L88.3671 6.11157H93.8161L95.5 0.929199Z" fill="#FFE492"/>
</svg>
