<svg width="259" height="51" viewBox="0 0 259 51" fill="none" xmlns="http://www.w3.org/2000/svg">
<path d="M241.917 26.4511C241.565 26.4929 241.209 26.5217 240.864 26.5844C240.64 26.6236 240.544 26.5086 240.395 26.4486C240.345 26.4277 240.292 26.3858 240.246 26.3911C239.897 26.4329 239.549 26.4799 239.2 26.5269C239.094 26.6288 239.026 26.7646 238.863 26.8143C238.703 26.8613 238.514 26.8613 238.336 26.8848C238.102 26.9135 237.867 26.9423 237.632 26.9684C237.515 26.9815 237.419 27.0311 237.38 27.1251C237.373 27.1408 237.451 27.18 237.494 27.2035C237.636 27.2819 237.775 27.3707 237.931 27.4308C238.08 27.4882 238.265 27.3942 238.425 27.4673C238.784 27.6319 238.788 27.6293 239.062 27.5979C239.296 27.5692 239.531 27.5379 239.766 27.517C239.812 27.5118 239.865 27.5509 239.915 27.5718C240.064 27.6293 240.16 27.7599 240.381 27.7103C240.548 27.6711 240.733 27.6633 240.907 27.6424C241.053 27.7181 241.188 27.8043 241.344 27.8644C241.49 27.9219 241.533 27.9663 241.454 28.042C241.383 28.1126 241.284 28.1413 241.152 28.1465C241.035 28.1492 240.918 28.1726 240.8 28.1857C240.74 28.1935 240.683 28.1988 240.626 28.2066C240.402 28.2354 240.402 28.2353 239.993 28.0682C239.833 28.0029 239.652 28.0943 239.499 28.0316C239.396 27.9898 239.307 27.9271 239.207 27.8827C239.165 27.8644 239.097 27.8618 239.044 27.867C238.866 27.8853 238.688 27.8984 238.518 27.9323C238.397 27.9558 238.326 28.029 238.34 28.1021C238.344 28.1309 238.429 28.1727 238.479 28.1753C238.592 28.1805 238.713 28.1439 238.823 28.1622C238.93 28.1805 239.04 28.2327 239.119 28.2902C239.279 28.4104 239.46 28.3033 239.613 28.3346C239.773 28.3686 239.904 28.4731 240.057 28.5358C240.096 28.5514 240.171 28.5253 240.231 28.5175C240.406 28.4992 240.58 28.4835 240.754 28.4652C240.9 28.541 241.056 28.6089 241.188 28.6951C241.426 28.8519 241.682 28.9119 241.991 28.8362C242.165 28.7944 242.336 28.81 242.475 28.9119C242.617 29.0164 242.781 29.006 242.962 28.9851C243.129 28.9642 243.3 28.9067 243.47 28.9798C243.84 29.1418 243.844 29.1497 244.281 29.087C244.412 29.0687 244.512 29.0634 244.611 29.1235C244.704 29.1784 244.803 29.2254 244.899 29.2776C245.074 29.2594 245.251 29.2411 245.426 29.2202C245.65 29.1915 245.774 29.228 245.827 29.3743C245.859 29.4631 245.874 29.5441 245.952 29.6042C246.044 29.6773 246.144 29.6747 246.279 29.6538C246.407 29.6355 246.499 29.6068 246.553 29.5128C246.574 29.4736 246.617 29.437 246.656 29.4056C246.688 29.3821 246.738 29.3456 246.766 29.3508C246.819 29.3612 246.89 29.39 246.908 29.4239C247.082 29.74 247.082 29.7426 247.26 29.8341C247.456 29.9359 247.658 30.0274 247.836 30.1423C247.996 30.2442 248.156 30.1998 248.33 30.1998C248.462 30.1998 248.547 30.2677 248.537 30.3356C248.529 30.3748 248.48 30.4323 248.437 30.4375C248.089 30.4897 247.737 30.5341 247.385 30.5707C247.342 30.5759 247.289 30.5289 247.239 30.5054C247.139 30.4584 247.05 30.3852 246.944 30.3696C246.837 30.3539 246.713 30.3931 246.595 30.4061C246.478 30.4192 246.354 30.4532 246.247 30.4323C246.14 30.4114 246.055 30.3356 245.955 30.286C245.909 30.2625 245.845 30.2285 245.806 30.2364C245.547 30.2991 245.355 30.2128 245.17 30.0979C245.131 30.0744 245.063 30.0587 245.013 30.0639C244.601 30.1084 244.192 30.1606 243.78 30.2102C243.613 30.2311 243.477 30.1397 243.442 29.9856C243.424 29.8994 243.388 29.8132 243.388 29.7269C243.388 29.5702 243.193 29.484 243.051 29.5023C242.816 29.5284 242.578 29.5493 242.347 29.5885C242.158 29.6198 241.998 29.5885 241.87 29.4945C241.721 29.3874 241.55 29.4083 241.38 29.437C241.252 29.4579 241.216 29.5441 241.223 29.7609C241.23 29.9359 241.17 29.9908 240.939 30.0195C240.647 30.0561 240.352 30.0927 240.057 30.1214C240.011 30.1266 239.958 30.0822 239.911 30.0587C239.812 30.0117 239.723 29.9359 239.616 29.9203C239.51 29.902 239.385 29.9412 239.268 29.9568C239.151 29.9699 239.026 30.0065 238.919 29.9882C238.813 29.9699 238.724 29.8915 238.628 29.8419C238.582 29.8184 238.525 29.7844 238.479 29.7896C238.244 29.8105 238.009 29.8419 237.775 29.8706C237.512 29.902 237.512 29.902 237.138 29.74C236.968 29.6669 236.797 29.7244 236.63 29.7453C236.452 29.7662 236.285 29.7766 236.146 29.6721C236.054 29.6042 235.951 29.5624 235.841 29.5754C235.545 29.6068 235.254 29.646 234.959 29.6773C234.909 29.6826 234.842 29.6695 234.802 29.646C234.614 29.5363 234.429 29.4501 234.166 29.5049C233.939 29.5519 233.693 29.5545 233.466 29.599C233.341 29.6225 233.284 29.7061 233.309 29.7714C233.323 29.8053 233.398 29.8445 233.448 29.8445C233.562 29.8471 233.686 29.8079 233.793 29.8236C234.013 29.8549 234.123 30.0744 234.411 30.0143C234.582 29.9777 234.76 29.9647 234.938 29.9542C234.984 29.9516 235.033 30.0012 235.083 30.0274C235.225 30.0979 235.35 30.1893 235.556 30.1423C235.727 30.1057 235.908 30.0953 236.082 30.0744C236.36 30.0404 236.36 30.0431 236.719 30.2024C236.889 30.2782 237.06 30.2181 237.227 30.1998C237.352 30.1867 237.469 30.1606 237.568 30.1972C237.721 30.252 237.832 30.3774 238.02 30.3696C238.198 30.3617 238.372 30.3252 238.55 30.3121C238.66 30.3043 238.763 30.3461 238.852 30.4166C238.944 30.4871 239.044 30.5185 239.165 30.5028C239.339 30.4819 239.517 30.4558 239.694 30.4427C239.744 30.4401 239.801 30.4636 239.847 30.4845C239.947 30.5315 240.043 30.5864 240.139 30.636C240.313 30.6203 240.491 30.6151 240.662 30.5838C240.793 30.5603 240.886 30.5707 240.992 30.623C241.127 30.6935 241.238 30.8189 241.458 30.7588C241.568 30.7301 241.696 30.7379 241.806 30.7118C241.941 30.6778 242.034 30.6909 242.13 30.7692C242.311 30.9181 242.539 30.9208 242.773 30.8633C243.029 30.8006 243.221 30.8738 243.413 30.9887C243.616 31.1089 243.616 31.1062 243.772 31.3962C243.819 31.4798 243.95 31.519 244.06 31.5033C244.245 31.4772 244.405 31.4902 244.54 31.5895C244.683 31.6966 244.853 31.6835 245.027 31.6548C245.259 31.6156 245.49 31.5817 245.678 31.7332C245.771 31.8063 245.87 31.8246 245.995 31.8063C246.347 31.7593 246.702 31.7306 247.047 31.6731C247.257 31.6365 247.377 31.7201 247.52 31.7907C247.712 31.8873 247.921 31.9735 247.921 32.1799C247.921 32.2138 247.971 32.253 248.014 32.2791C248.106 32.334 248.206 32.381 248.302 32.4333C248.444 32.5116 248.583 32.5769 248.778 32.5351C248.949 32.5012 249.13 32.4907 249.304 32.4672C249.479 32.4437 249.639 32.4306 249.795 32.5299C249.976 32.6422 250.168 32.7494 250.375 32.8329C250.52 32.893 250.712 32.7912 250.869 32.8721C250.965 32.9218 251.057 32.9792 251.16 33.021C251.203 33.0393 251.271 33.0262 251.327 33.021C251.445 33.0106 251.566 33.0028 251.679 32.9766C251.811 32.9479 251.911 32.9531 252.01 33.0132C252.103 33.0681 252.195 33.1438 252.302 33.1595C252.462 33.183 252.639 33.0785 252.799 33.1987C252.881 33.2588 252.984 33.3162 253.091 33.3345C253.198 33.3528 253.322 33.3136 253.436 33.3162C253.486 33.3162 253.546 33.358 253.574 33.392C253.592 33.4103 253.567 33.4599 253.542 33.486C253.51 33.5174 253.464 33.5592 253.418 33.5644C253.066 33.6114 252.714 33.6506 252.362 33.695C252.152 33.7211 252.152 33.7211 251.729 33.5566C251.63 33.5174 251.519 33.5252 251.395 33.5435C251.228 33.567 251.057 33.6114 250.883 33.5644C250.656 33.3868 250.375 33.3711 250.076 33.439C249.952 33.4677 249.838 33.4677 249.745 33.4181C249.55 33.3188 249.344 33.2274 249.169 33.1099C249.034 33.0184 248.97 33.0106 248.913 33.136C248.896 33.1752 248.878 33.2169 248.881 33.2535C248.903 33.3841 248.942 33.5121 248.963 33.6427C248.97 33.6793 248.942 33.7211 248.924 33.7603C248.867 33.87 248.793 33.8622 248.668 33.7707C248.544 33.6793 248.394 33.6193 248.195 33.661C248.025 33.6976 247.84 33.6924 247.669 33.7316C247.406 33.7891 247.221 33.7055 247.033 33.5931C246.994 33.5696 246.926 33.5566 246.876 33.5618C246.347 33.6219 245.82 33.6898 245.291 33.7499C245.177 33.7629 245.074 33.7237 244.985 33.6532C244.892 33.5827 244.789 33.5461 244.675 33.5592C244.206 33.614 243.737 33.6637 243.268 33.7316C243.076 33.7603 242.923 33.7263 242.791 33.6349C242.692 33.567 242.599 33.5461 242.475 33.5539C242.34 33.5618 242.244 33.5879 242.176 33.6637C242.112 33.7368 242.158 33.7812 242.301 33.8387C242.453 33.9014 242.596 33.9824 242.741 34.0555C242.859 34.0451 242.976 34.0241 243.09 34.0267C243.14 34.0267 243.186 34.0738 243.236 34.0999C243.378 34.1756 243.509 34.2514 243.712 34.2096C243.883 34.173 244.064 34.1652 244.238 34.1417C244.48 34.113 244.48 34.113 244.871 34.2775C244.971 34.3193 245.077 34.3167 245.205 34.2932C245.315 34.2749 245.429 34.3115 245.507 34.3899C245.539 34.4212 245.529 34.4735 245.461 34.6459C245.461 34.7739 245.536 34.7164 245.561 34.6328C245.6 34.5126 245.525 34.4735 245.383 34.5388C245.283 34.5858 245.234 34.6537 245.259 34.7086C245.273 34.7373 245.34 34.7739 245.461 34.6459C245.774 34.4891 246.012 34.4708 246.24 34.429C246.375 34.4055 246.46 34.416 246.567 34.4839C246.695 34.5649 246.823 34.6511 247.033 34.6093C247.26 34.5623 247.502 34.557 247.733 34.5178C247.946 34.4813 248.057 34.5962 248.192 34.6642C248.355 34.7451 248.537 34.6537 248.686 34.7007C248.842 34.7477 248.952 34.8627 249.134 34.8836C249.397 34.813 249.564 34.9437 249.763 35.0299C249.92 35.0952 250.104 35.0377 250.271 35.009C250.46 34.9776 250.616 35.0064 250.748 35.1004C250.897 35.2075 251.064 35.184 251.235 35.1605C251.633 35.1082 251.647 35.1004 251.879 35.2441C252.046 35.3486 252.206 35.3016 252.373 35.2885C252.519 35.359 252.661 35.4348 252.814 35.4975C252.853 35.5131 252.927 35.487 252.988 35.4792C253.162 35.4583 253.34 35.4374 253.514 35.4165C253.631 35.4034 253.756 35.3642 253.862 35.3799C253.969 35.3982 254.058 35.474 254.154 35.5236C254.25 35.5732 254.35 35.6229 254.442 35.6751C254.584 35.7535 254.719 35.8188 254.918 35.7796C255.089 35.7456 255.267 35.7352 255.444 35.7117C255.668 35.6829 255.661 35.6908 256.077 35.8475C256.301 35.9337 256.532 35.8292 256.76 35.8188C256.874 35.8136 256.984 35.8423 257.062 35.9181C257.094 35.9494 257.084 36.0016 257.094 36.0461C256.508 36.1166 255.917 36.1767 255.338 36.2629C255.114 36.2968 254.997 36.2028 254.876 36.1244C254.677 35.999 254.413 36.1819 254.225 36.0199C254.111 35.9233 253.948 35.8684 253.752 35.9154C253.638 35.9416 253.518 35.9389 253.4 35.9624C253.102 36.0199 252.828 36.0225 252.59 35.8423C252.508 35.7796 252.391 35.7456 252.305 35.6856C252.206 35.6203 252.11 35.5837 251.992 35.5967C251.463 35.6594 250.936 35.7221 250.41 35.79C250.364 35.7952 250.318 35.8344 250.279 35.8632C250.179 35.9363 250.211 35.9938 250.371 36.0408C250.424 36.0565 250.467 36.0904 250.517 36.1166C250.613 36.1662 250.702 36.2446 250.808 36.2629C250.915 36.2812 251.04 36.2446 251.157 36.2315C251.274 36.2185 251.399 36.1793 251.505 36.1949C251.612 36.2132 251.701 36.289 251.8 36.336C251.847 36.3595 251.903 36.3987 251.95 36.3961C252.184 36.3804 252.415 36.3517 252.65 36.3282C252.796 36.3987 252.92 36.5006 253.094 36.5241C253.205 36.5398 253.322 36.511 253.436 36.5162C253.486 36.5189 253.55 36.5581 253.574 36.592C253.589 36.6129 253.542 36.6652 253.507 36.6913C253.372 36.7905 253.187 36.7722 253.02 36.8036C252.839 36.8375 252.675 36.8271 252.536 36.7252C252.444 36.6573 252.341 36.6208 252.227 36.6338C251.932 36.6678 251.64 36.707 251.345 36.7357C251.295 36.7409 251.235 36.7174 251.189 36.6991C250.815 36.5398 250.815 36.5345 250.552 36.5685C250.165 36.6181 250.165 36.6181 249.905 36.4797C249.856 36.4535 249.802 36.4039 249.76 36.4066C249.347 36.4483 248.938 36.4901 248.529 36.5502C248.394 36.5685 248.302 36.5685 248.202 36.5006C248.117 36.4431 248.017 36.3778 247.911 36.3621C247.801 36.3465 247.68 36.3856 247.562 36.3987C247.445 36.4118 247.321 36.4457 247.218 36.4248C247.111 36.4039 247.018 36.3308 246.926 36.2786C246.83 36.2237 246.727 36.2263 246.595 36.2472C246.19 36.3073 246.187 36.2994 245.785 36.1375C245.739 36.1192 245.678 36.0983 245.628 36.1035C245.333 36.1349 245.042 36.1741 244.747 36.2054C244.633 36.2185 244.523 36.1845 244.444 36.1087C244.412 36.0774 244.423 36.0251 244.402 35.9233C244.377 35.8997 244.405 35.9416 244.412 35.9807C244.466 35.9755 244.53 35.9807 244.569 35.9598C244.668 35.9102 244.718 35.8449 244.693 35.79C244.679 35.7613 244.612 35.7247 244.569 35.7247C244.491 35.7247 244.423 35.7822 244.402 35.9233C244.178 36.0095 243.94 36.0278 243.708 36.0696C243.573 36.0957 243.488 36.0826 243.381 36.0147C243.253 35.9311 243.122 35.8501 242.912 35.8919C242.684 35.9389 242.443 35.9468 242.208 35.9834C241.938 36.0252 241.821 35.79 241.593 35.7953C241.358 35.8005 241.124 35.8449 240.889 35.8763C240.683 35.9024 240.683 35.9024 240.256 35.7326C240.1 35.6699 239.915 35.7613 239.762 35.696C239.659 35.6542 239.57 35.5915 239.471 35.5471C239.428 35.5288 239.36 35.5288 239.307 35.534C239.012 35.5654 238.713 35.5863 238.429 35.6438C238.105 35.7117 237.86 35.6385 237.629 35.4844C237.337 35.5131 237.042 35.5288 236.754 35.5784C236.545 35.615 236.424 35.5288 236.281 35.4583C236.232 35.4348 236.189 35.3956 236.136 35.3851C236.082 35.3747 236.018 35.3956 235.961 35.4034C235.727 35.4322 235.485 35.4452 235.257 35.4923C234.977 35.5523 234.87 35.3381 234.653 35.312C234.507 35.44 234.429 35.615 234.141 35.6281C233.906 35.6385 233.672 35.6803 233.437 35.7091C233.32 35.7221 233.203 35.7378 233.085 35.7509C232.897 35.7744 232.808 35.8762 232.847 36.033C232.868 36.1192 232.886 36.2054 232.904 36.2916C232.939 36.4457 232.851 36.5763 232.701 36.5946C232.289 36.6443 231.88 36.6965 231.468 36.7409C231.357 36.754 231.251 36.7095 231.162 36.639C231.069 36.5685 230.966 36.5371 230.852 36.5502C230.44 36.5998 230.031 36.6521 229.619 36.6965C229.573 36.7017 229.512 36.6756 229.466 36.6547C229.366 36.6077 229.27 36.5528 229.174 36.5032C228.94 36.5267 228.709 36.5424 228.478 36.5737C228.104 36.6207 228.104 36.6233 227.83 36.4797C227.781 36.4535 227.731 36.4039 227.685 36.4066C227.507 36.417 227.333 36.4431 227.155 36.4666C226.632 36.5345 226.632 36.5345 226.479 36.4562C226.341 36.383 226.216 36.2942 226.007 36.336C225.779 36.383 225.537 36.3987 225.303 36.4248C225.128 36.4431 224.954 36.464 224.78 36.4692C224.734 36.4719 224.684 36.4222 224.634 36.3961C224.492 36.3151 224.353 36.2498 224.158 36.2942C224.044 36.3203 223.923 36.3256 223.806 36.3386C223.5 36.3752 223.5 36.3752 222.999 36.2184C222.949 36.2028 222.889 36.1845 222.839 36.1923C222.426 36.2393 222.018 36.2916 221.605 36.336C221.555 36.3412 221.495 36.3255 221.445 36.3125C220.883 36.161 220.883 36.161 220.286 36.2341C220.059 36.2603 220.051 36.2707 219.813 36.1322C219.707 36.0722 219.618 36.0434 219.493 36.0617C219.024 36.1244 218.551 36.1662 218.085 36.2394C217.876 36.2707 217.755 36.1923 217.613 36.1218C217.563 36.0983 217.509 36.0461 217.467 36.0487C216.997 36.0983 216.528 36.1584 216.059 36.208C216.016 36.2132 215.963 36.161 215.913 36.1375C215.817 36.0905 215.725 36.0199 215.618 36.0042C215.508 35.9886 215.387 36.0278 215.266 36.0408C214.971 36.0748 214.971 36.0722 214.63 35.9181C214.583 35.8972 214.523 35.8684 214.477 35.8736C214.007 35.9259 213.535 35.9703 213.069 36.0461C212.802 36.0879 212.621 36.0121 212.432 35.9024C212.393 35.8789 212.326 35.8684 212.276 35.8736C211.746 35.9337 211.22 36.0016 210.69 36.0617C210.58 36.0748 210.473 36.0304 210.385 35.9624C210.242 35.8553 210.075 35.8684 209.898 35.8919C209.489 35.9468 209.485 35.9442 209.243 35.8188C209.194 35.7927 209.151 35.7587 209.098 35.7456C209.048 35.7326 208.984 35.7404 208.93 35.7456C208.696 35.7718 208.461 35.8005 208.227 35.8292C207.992 35.858 207.754 35.8736 207.523 35.9181C207.238 35.9729 207.103 35.8031 206.904 35.7247C206.612 35.7587 206.314 35.7796 206.026 35.8344C205.805 35.8762 205.702 35.7613 205.557 35.7012C205.507 35.6803 205.453 35.6359 205.407 35.6411C204.877 35.6986 204.348 35.7613 203.821 35.8318C203.693 35.8475 203.608 35.8266 203.502 35.7639C203.263 35.6228 203.253 35.6281 202.854 35.6803C202.68 35.7038 202.513 35.7247 202.364 35.6176C202.232 35.521 202.072 35.4975 201.884 35.5288C201.653 35.568 201.415 35.5889 201.18 35.615C200.945 35.6438 200.711 35.6829 200.476 35.696C200.288 35.709 200.174 35.5863 200.024 35.5236C199.978 35.5053 199.914 35.5027 199.861 35.5079C199.626 35.5314 199.385 35.5497 199.157 35.5941C198.88 35.649 198.727 35.5053 198.531 35.4217C198.489 35.4034 198.417 35.4139 198.364 35.4217C197.952 35.4687 197.543 35.521 197.13 35.5706C196.985 35.5001 196.835 35.4322 196.69 35.3616C196.455 35.3878 196.22 35.4165 195.986 35.4426C195.808 35.4635 195.626 35.4713 195.459 35.5105C195.243 35.5628 195.136 35.44 194.99 35.3799C194.94 35.359 194.887 35.3146 194.841 35.3198C194.546 35.3486 194.251 35.3799 193.959 35.4243C193.682 35.4687 193.572 35.2336 193.344 35.2362C193.109 35.2388 192.868 35.2728 192.64 35.3198C192.377 35.3747 192.192 35.2911 192.004 35.1788C191.965 35.1553 191.897 35.1422 191.847 35.1474C191.552 35.1788 191.261 35.218 190.966 35.2493C190.916 35.2545 190.855 35.2415 190.806 35.2258C190.244 35.0717 190.244 35.0691 189.999 35.1004C189.824 35.1213 189.647 35.1474 189.469 35.1605C189.419 35.1657 189.358 35.1422 189.312 35.1213C188.943 34.962 188.943 34.9593 188.676 34.9907C188.441 35.0194 188.207 35.0481 187.972 35.0769C187.826 35.0063 187.677 34.9384 187.531 34.8679C187.24 34.9019 186.941 34.928 186.653 34.975C186.518 34.9959 186.429 34.9881 186.326 34.9228C186.198 34.8444 186.07 34.753 185.857 34.7974C185.629 34.8444 185.387 34.8496 185.156 34.8888C184.879 34.9358 184.765 34.6981 184.541 34.7007C184.306 34.7033 184.065 34.7373 183.837 34.7843C183.574 34.8392 183.389 34.7556 183.201 34.6433C183.162 34.6198 183.094 34.6067 183.044 34.6119C182.397 34.6877 181.754 34.7634 181.107 34.8444C180.708 34.894 180.708 34.8966 179.951 34.753C179.898 34.7425 179.841 34.7321 179.788 34.7373C179.553 34.7608 179.311 34.7791 179.084 34.8235C178.806 34.8784 178.653 34.7373 178.458 34.6511C178.415 34.6328 178.348 34.6432 178.291 34.6485C178.113 34.6668 177.939 34.6903 177.761 34.7112C177.526 34.7399 177.292 34.7686 177.057 34.7974C176.911 34.7295 176.762 34.6589 176.616 34.591C176.325 34.625 176.026 34.6433 175.738 34.6981C175.518 34.7399 175.415 34.6302 175.269 34.5675C175.219 34.5466 175.166 34.5022 175.12 34.5048C174.59 34.5623 174.06 34.6224 173.534 34.6955C173.317 34.7268 173.217 34.6093 173.072 34.5492C173.022 34.5309 172.965 34.497 172.919 34.5022C172.567 34.5388 172.215 34.5832 171.863 34.6276C171.664 34.6537 171.664 34.6537 171.23 34.4917C171.18 34.4734 171.123 34.4552 171.074 34.4604C169.957 34.591 168.844 34.7295 167.728 34.8601C167.614 34.8731 167.511 34.834 167.422 34.7634C167.33 34.6929 167.227 34.6563 167.113 34.6694C166.644 34.7242 166.171 34.7739 165.705 34.8418C165.513 34.8705 165.36 34.8365 165.229 34.7451C165.129 34.6772 165.037 34.6511 164.912 34.6668C164.678 34.6981 164.443 34.7242 164.208 34.753C163.974 34.7817 163.739 34.8105 163.504 34.8392C163.27 34.8679 163.032 34.8836 162.8 34.928C162.516 34.9829 162.377 34.8209 162.182 34.7399C161.83 34.7791 161.478 34.8183 161.129 34.8601C160.66 34.9149 160.191 34.975 159.721 35.0273C159.679 35.0325 159.626 34.9855 159.576 34.962C159.43 34.8966 159.323 34.8052 159.106 34.834C158.054 34.9724 156.995 35.09 155.939 35.2258C155.718 35.2545 155.622 35.1422 155.473 35.0821C155.423 35.0638 155.366 35.0273 155.32 35.0325C154.733 35.0978 154.147 35.1709 153.56 35.2415C153.322 35.2702 153.322 35.2702 152.924 35.1082C152.878 35.0899 152.817 35.0664 152.767 35.0717C152.003 35.1605 151.242 35.2545 150.478 35.346C150.364 35.359 150.261 35.3224 150.168 35.2519C150.08 35.1814 149.973 35.1422 149.863 35.1553C149.159 35.2389 148.451 35.3198 147.751 35.4113C147.562 35.4374 147.406 35.4139 147.271 35.3198C147.175 35.2519 147.079 35.2232 146.958 35.2388C145.902 35.3668 144.846 35.4896 143.79 35.6255C143.587 35.6516 143.445 35.602 143.317 35.5158C143.214 35.4478 143.125 35.4348 142.997 35.4452C142.862 35.4583 142.781 35.487 142.706 35.5654C142.61 35.6673 142.549 35.7953 142.322 35.8031C142.087 35.8109 141.849 35.8423 141.618 35.8867C141.397 35.9311 141.294 35.8136 141.156 35.743C141.053 35.6934 140.957 35.6856 140.825 35.7091C140.704 35.73 140.63 35.7744 140.558 35.8579C140.402 36.0356 140.388 36.0356 140.196 35.9233C140.093 35.8632 140 35.8162 139.886 35.8266C139.417 35.8788 138.948 35.9363 138.479 35.9964C138.208 36.0304 138.205 36.0356 138.002 35.905C137.903 35.8397 137.807 35.8083 137.689 35.824C136.399 35.9807 135.108 36.1323 133.818 36.2968C133.618 36.3229 133.483 36.2681 133.341 36.1897C133.295 36.1636 133.249 36.127 133.195 36.1166C133.142 36.1061 133.082 36.1166 133.025 36.1218C132.086 36.2341 131.144 36.3412 130.209 36.4666C129.996 36.4954 129.882 36.4118 129.736 36.3439C129.686 36.3203 129.644 36.2838 129.59 36.2733C129.537 36.2655 129.473 36.2838 129.416 36.2916C128.477 36.4039 127.535 36.511 126.6 36.6364C126.376 36.6652 126.28 36.5554 126.135 36.498C126.085 36.4771 126.031 36.4379 125.985 36.4431C125.69 36.4718 125.399 36.511 125.104 36.545C124.4 36.6312 123.696 36.7122 122.992 36.801C122.721 36.835 122.604 36.6025 122.377 36.6129C122.081 36.626 121.79 36.6782 121.495 36.7148C121.26 36.7435 121.026 36.7697 120.791 36.801C120.56 36.8297 120.56 36.8297 119.984 36.6782C119.934 36.6651 119.874 36.6469 119.824 36.6521C119.003 36.7487 118.178 36.8454 117.36 36.9499C117.172 36.9734 117.015 36.9604 116.88 36.8637C116.784 36.7958 116.685 36.7618 116.567 36.7775C115.334 36.9264 114.103 37.0753 112.87 37.2216C112.823 37.2268 112.763 37.2007 112.717 37.1798C112.617 37.1328 112.521 37.0779 112.425 37.0283C112.354 37.0884 112.262 37.1432 112.216 37.2111C112.152 37.3025 112.066 37.3287 111.931 37.3443C111.796 37.36 111.711 37.3548 111.604 37.2869C111.476 37.2033 111.344 37.138 111.135 37.1641C109.844 37.3287 108.554 37.4776 107.263 37.6395C107.05 37.6657 106.95 37.5507 106.801 37.4906C106.751 37.4723 106.694 37.4436 106.648 37.4488C106.118 37.5089 105.592 37.5742 105.062 37.6369C103.594 37.8146 102.126 37.9844 100.661 38.1725C100.394 38.2064 100.213 38.1411 100.024 38.0288C99.9853 38.0053 99.9178 37.9922 99.868 37.9974C97.813 38.243 95.758 38.4911 93.7066 38.7393C93.5964 38.7524 93.4897 38.7106 93.4008 38.6426C93.3084 38.5721 93.2053 38.5382 93.0915 38.5512C92.1529 38.6635 91.2144 38.7759 90.2758 38.8908C90.0411 38.9196 90.0375 38.9221 89.7958 38.7968C89.746 38.7706 89.6927 38.721 89.6536 38.7262C89.5718 38.7393 89.4936 38.8046 89.4367 38.8934C89.3798 38.9874 89.2909 39.0136 89.1594 39.0319C89.0243 39.0502 88.9354 39.0423 88.8323 38.9796C88.7008 38.9013 88.5798 38.8255 88.3665 38.8516C85.6681 39.186 82.9696 39.5073 80.2711 39.8391C80.0542 39.8652 79.9547 39.7555 79.8053 39.6954C79.7556 39.6771 79.7058 39.651 79.6525 39.6457C79.5956 39.6405 79.5352 39.6562 79.4783 39.664C75.0768 40.1943 70.6754 40.7272 66.2739 41.2575C66.0108 41.2889 66.0144 41.2889 65.7264 41.5292C65.6908 41.5579 65.6446 41.5971 65.5948 41.6023C64.2473 41.7695 62.8964 41.9315 61.5453 42.0934C60.9587 42.164 60.3721 42.2371 59.7855 42.3051C59.5757 42.3286 59.5757 42.3286 59.0744 42.6107C59.0318 42.6342 58.9819 42.6656 58.9322 42.6708C56.5857 42.9555 54.2391 43.2403 51.8891 43.5198C51.7042 43.5407 51.5549 43.5877 51.4696 43.7131C51.4091 43.8019 51.3309 43.8541 51.2136 43.8698C49.5711 44.0683 47.9285 44.2695 46.2824 44.4628C46.0869 44.4863 45.9695 44.5595 45.8735 44.6692C45.8415 44.7057 45.8131 44.7475 45.7669 44.7736C45.7242 44.7971 45.6602 44.805 45.6069 44.8128C44.199 44.9826 42.7911 45.1577 41.3797 45.3196C41.1699 45.3431 41.0845 45.4398 40.9814 45.5417C40.9459 45.5756 40.921 45.6227 40.8747 45.6462C40.8285 45.6671 40.761 45.6671 40.7041 45.6723C39.5309 45.8133 38.3576 45.957 37.1844 46.0981C36.9568 46.085 36.907 46.2365 36.7968 46.328C36.7577 46.3593 36.7293 46.4011 36.6831 46.422C36.6333 46.4429 36.5693 46.4403 36.5088 46.4455C35.5702 46.5578 34.6316 46.678 33.6895 46.7825C33.4726 46.806 33.4299 46.9392 33.3126 47.0306C33.2735 47.0594 33.2344 47.1038 33.1882 47.1116C32.6016 47.1874 32.015 47.2579 31.4284 47.3258C31.2328 47.3493 31.2328 47.3468 30.888 47.6054C30.8488 47.6341 30.8026 47.6655 30.7528 47.6733C29.8746 47.783 28.993 47.8875 28.1112 47.9946C27.9975 48.0077 27.9193 48.0704 27.8624 48.1592C27.8055 48.248 27.7237 48.3055 27.61 48.3185C26.906 48.4047 26.202 48.4935 25.4981 48.5719C25.3025 48.5928 25.1746 48.6581 25.0892 48.7757C25.0252 48.8645 24.947 48.9089 24.8226 48.9245C24.1186 49.0081 23.4147 49.0996 22.7072 49.1727C22.501 49.1936 22.3943 49.2824 22.309 49.3922C22.2414 49.481 22.1632 49.5123 22.0316 49.528C20.7411 49.6795 19.447 49.831 18.1599 49.9982C17.9431 50.0269 17.8328 49.9355 17.6906 49.8702C17.488 49.7788 17.2996 49.6795 17.2996 49.4757C17.2996 49.4444 17.2391 49.4078 17.1965 49.3817C16.8801 49.1858 16.88 49.1858 16.8303 48.9768C16.8018 48.8488 16.7698 48.7182 16.7449 48.5876C16.6987 48.3734 16.5849 48.3185 16.2578 48.3577C16.1405 48.3708 16.0232 48.389 15.9059 48.3995C15.7316 48.4178 15.6001 48.3316 15.5681 48.1748C15.5503 48.0886 15.529 48.0024 15.5113 47.9162C15.689 47.8953 15.6854 47.8927 15.9983 47.5766C16.1298 47.4434 16.1299 47.4434 15.8775 47.3102C15.7815 47.2605 15.689 47.2057 15.5859 47.1586C15.5397 47.1377 15.4793 47.1247 15.4295 47.1299C15.1344 47.1613 14.8429 47.1978 14.5513 47.2344C14.082 47.2919 14.082 47.2919 13.6056 47.0254C13.5665 47.0045 13.506 46.9654 13.5131 46.9445C13.5522 46.8478 13.6482 46.806 13.7691 46.7955C13.9469 46.7799 14.1211 46.7537 14.2953 46.7328C14.4126 46.7198 14.5299 46.7041 14.6473 46.6911C14.7575 46.5918 14.8713 46.4951 14.9744 46.3933C15.138 46.2365 15.1379 46.2313 14.9139 46.1216C14.7717 46.0484 14.6188 45.9831 14.4731 45.9152C14.2988 45.9361 14.1211 45.9596 13.9469 45.9779C13.7264 46.0014 13.6376 45.9518 13.5807 45.782C13.5309 45.6331 13.5913 45.5051 13.762 45.4737C13.9362 45.4424 14.0998 45.4215 14.1887 45.2883C14.274 45.1603 14.4233 45.1106 14.6082 45.1002C14.7255 45.0923 14.8428 45.0741 14.9602 45.0584C15.1131 45.0375 15.1948 44.9043 15.1629 44.7554C15.1451 44.6587 15.1095 44.5777 14.9709 44.5568C14.3558 44.4654 14.3486 44.468 14.0429 44.2904C14.0144 44.2747 13.9932 44.2277 14.0038 44.2042C14.0216 44.165 14.0607 44.1075 14.1034 44.0997C14.5122 44.0422 14.9211 43.99 15.3299 43.9508C15.465 43.9377 15.5646 43.9194 15.6108 43.8228C15.6748 43.6895 15.6464 43.5668 15.5219 43.4753C15.4828 43.4466 15.4188 43.41 15.3761 43.4127C14.9068 43.4597 14.4411 43.5197 13.9718 43.5668C13.9291 43.572 13.8509 43.5276 13.8332 43.4936C13.7976 43.431 13.8509 43.3474 13.9753 43.3186C14.1389 43.2794 14.306 43.2768 14.4162 43.1462C14.5691 42.9607 14.7575 42.791 14.9281 42.6133C14.9566 42.582 15.0029 42.5219 14.9922 42.5166C14.9033 42.4592 14.8002 42.4148 14.7078 42.3599C14.5513 42.2685 14.5513 42.1405 14.5869 42.0177C14.6153 41.9184 14.722 41.8792 14.8535 41.8792C14.9104 41.8792 14.9815 41.8793 15.0277 41.8558C15.1486 41.7983 15.1877 41.7251 15.1273 41.6703C15.0917 41.6389 15.0277 41.5945 14.9851 41.5998C14.2243 41.686 13.4598 41.7695 12.7025 41.8766C12.4785 41.908 12.3755 41.8087 12.2404 41.7382C12.1373 41.6833 12.0412 41.6624 11.9133 41.7016C11.7924 41.7382 11.6751 41.7173 11.6004 41.6311C11.54 41.5606 11.6466 41.5005 11.9346 41.4326C11.9879 41.4195 12.0484 41.4117 12.0875 41.3855C12.4999 41.1034 12.4999 41.1008 12.7843 41.0642C13.0616 41.0303 13.0617 41.0277 13.2074 40.8761C13.275 40.8056 13.3496 40.7351 13.4136 40.6619C13.4385 40.6332 13.4812 40.5809 13.467 40.5653C13.3887 40.4843 13.282 40.466 13.1576 40.4843C12.8803 40.5287 12.5533 40.4921 12.4075 40.7403C12.3506 40.8343 12.2617 40.8605 12.1337 40.8761C10.8467 41.0277 9.55964 41.1896 8.26907 41.3359C8.0593 41.3594 7.96337 41.4561 7.88159 41.5632C7.81049 41.652 7.73225 41.6781 7.59715 41.6938C7.46205 41.7095 7.35534 41.7173 7.27712 41.6311C7.2309 41.5789 7.27002 41.5057 7.37668 41.4326C7.52956 41.3281 7.5011 41.1975 7.45133 41.0747C7.41578 40.9937 7.30557 40.9362 7.18824 40.9415C7.01403 40.9519 6.84698 40.9806 6.70121 40.8761C6.61588 40.8161 6.5092 40.7742 6.41321 40.722C6.22833 40.6149 6.04345 40.5052 5.78391 40.5757C5.60615 40.5496 5.48171 40.4556 5.3395 40.3824C5.10129 40.2623 5.07996 40.244 5.25062 40.116C5.4426 39.9723 5.29325 39.7842 5.39991 39.6431C5.51368 39.4916 5.67017 39.3584 5.80882 39.2174C5.84438 39.1808 5.87639 39.1468 5.91194 39.1102C5.83017 39.058 5.75552 38.9927 5.65953 38.9561C5.53509 38.9091 5.47109 38.8516 5.47821 38.6897C5.45332 38.6662 5.46391 38.7262 5.49235 38.7419C5.52435 38.7576 5.60263 38.7445 5.64174 38.7262C5.74128 38.6766 5.79101 38.6113 5.76612 38.5564C5.7519 38.5277 5.6844 38.4911 5.64174 38.4911C5.56352 38.4911 5.49598 38.5486 5.47465 38.6897C5.07645 38.7968 4.66397 38.849 4.25156 38.8908C4.20889 38.896 4.15559 38.8438 4.10582 38.8177C3.94228 38.7289 3.94225 38.7315 3.46229 38.7053C3.41251 38.7027 3.345 38.6662 3.32011 38.6296C3.21701 38.4702 3.22059 38.2952 3.17082 38.1254C3.26325 38.0157 3.35562 37.9086 3.45161 37.8015C3.6436 37.5847 3.89253 37.394 4.04185 37.1563C4.00985 37.0283 3.96718 36.9003 4.12361 36.7958C4.56803 36.6652 4.5645 36.6652 4.68538 36.5398C5.03024 36.1845 5.37153 35.8266 5.73062 35.4766C5.82661 35.3851 5.82662 35.3355 5.65597 35.2963C5.60264 35.2859 5.54568 35.2833 5.48879 35.2885C5.31103 35.3068 5.13327 35.3538 4.95906 35.3433C4.78485 35.3355 4.65686 35.2206 4.51464 35.15C4.36888 35.0769 4.22312 35.0011 4.07735 34.9254C3.91025 34.9332 3.74318 35.0064 3.57608 34.8888C3.44809 34.7974 3.28811 34.7321 3.14235 34.6563C3.25256 34.4578 3.4588 34.3063 3.61879 34.1312C3.76456 33.9719 3.76803 33.9745 4.15911 33.8517C4.34399 33.7943 4.40799 33.4991 4.25156 33.4129C4.06312 33.3084 3.86407 33.2117 3.67208 33.1124C3.50498 33.1203 3.33436 33.1908 3.17437 33.0733C3.04994 32.9845 2.9077 32.9244 2.70149 32.9583C2.35307 33.0158 1.99755 33.0445 1.64558 33.0916C1.5247 33.1072 1.39311 33.0968 1.33978 33.008C1.30423 32.9453 1.40734 32.8591 1.52466 32.8408C1.70243 32.8147 1.8624 32.7833 1.95128 32.6527C2.03661 32.5221 2.19303 32.4829 2.3779 32.4646C2.42768 32.4594 2.4846 32.428 2.50949 32.3967C2.63748 32.2452 2.7797 32.1146 3.05346 32.1198C3.16723 32.0676 3.22763 32.0022 3.19208 31.9395C3.17075 31.9056 3.09613 31.8612 3.05346 31.8664C2.75837 31.8925 2.46329 31.9187 2.17531 31.9657C2.04021 31.9866 1.93705 31.9918 1.85173 31.9134C1.79129 31.8612 1.82328 31.7906 1.93705 31.7149C2.0366 31.6496 2.06507 31.5738 2.05796 31.485C2.04018 31.2786 1.9335 31.2186 1.59219 31.2316C1.34688 31.2421 1.28644 31.2081 1.23311 31.0305C1.21888 30.9887 1.18339 30.9312 1.20828 30.9025C1.36116 30.7248 1.46071 30.5054 1.74869 30.4218C1.86246 30.3905 1.9833 30.3905 2.0544 30.3226C2.12551 30.2546 2.18953 30.1763 2.2642 30.1109C2.35663 30.0326 2.42057 29.9595 2.3779 29.9098C2.3068 29.821 2.19307 29.8132 2.06152 29.8445C1.94775 29.8706 1.82687 29.8732 1.70955 29.8889C1.49978 29.9176 1.32917 29.8497 1.30428 29.7348C1.23673 29.4318 1.1656 29.1314 1.10516 28.8283C1.09805 28.7918 1.11578 28.7447 1.14422 28.7134C1.24377 28.6037 1.35047 28.4992 1.45358 28.3921C1.57446 28.2693 1.76647 28.2928 1.93002 28.2693C2.16111 28.2354 2.16103 28.2379 2.47034 27.9872C2.59123 27.8879 2.801 27.9271 2.92543 27.8383C2.96454 27.8095 3.02498 27.7625 3.01432 27.7364C3.0001 27.7024 2.92903 27.6763 2.8757 27.6606C2.82592 27.645 2.7655 27.6371 2.71217 27.645C2.0651 27.7207 1.42161 27.8017 0.774544 27.8749C0.66433 27.8879 0.543446 27.8305 0.504338 27.7495C0.465229 27.6737 0.475861 27.5823 0.46875 27.4961C0.571854 27.389 0.689134 27.2897 0.778016 27.1748C0.845567 27.0859 0.923798 27.0467 1.0589 27.0415C1.23666 27.0337 1.41089 27.0023 1.60999 26.9788C1.97974 26.5974 2.34236 26.1978 2.74055 25.8164C2.90054 25.6623 2.86149 25.5055 2.89349 25.3409C2.92549 25.1894 3.16368 25.213 3.32367 25.1685C3.45166 25.132 3.49427 25.0484 3.44449 24.9909C3.41605 24.9569 3.35209 24.9177 3.30232 24.9177C3.18499 24.9177 3.06767 24.9413 2.95035 24.9543C2.83302 24.9674 2.69793 24.9596 2.60193 25.004C2.50949 25.0458 2.44902 25.1346 2.38858 25.2103C2.32103 25.2939 2.23221 25.3227 2.09711 25.3279C1.9229 25.3331 1.7487 25.3566 1.57449 25.3749C1.3825 25.273 1.18336 25.1738 0.998487 25.0667C0.962934 25.0458 0.955785 24.9857 0.95934 24.9465C0.966451 24.8446 0.913135 24.7819 0.79581 24.7323C0.696262 24.6905 0.614483 24.6304 0.522045 24.5782C0.593151 24.5076 0.671395 24.4397 0.72828 24.3639C0.852716 24.2046 1.00917 24.0897 1.27937 24.0949C1.38603 23.993 1.47133 23.8676 1.60999 23.7971C1.74154 23.7292 1.96553 23.7971 2.06508 23.643C2.11485 23.5672 2.18956 23.481 2.28555 23.4496C2.43843 23.4 2.63752 23.4262 2.7264 23.2799C2.77973 23.1963 2.85792 23.1205 2.96102 23.0996C3.07835 23.0761 3.1992 23.0709 3.28452 23.0213C3.33074 22.9951 3.38052 22.9533 3.38052 22.9168C3.38052 22.8933 3.30947 22.8567 3.2597 22.841C3.21348 22.8227 3.15297 22.8097 3.09964 22.8149C2.92188 22.8306 2.74767 22.8593 2.5699 22.875C2.52013 22.8802 2.46326 22.8619 2.40993 22.8462C2.2535 22.8044 2.26414 22.7522 2.38858 22.6582C2.51302 22.5667 2.60195 22.4492 2.70505 22.342C2.81882 22.3238 2.96101 22.3316 3.03923 22.282C3.17077 22.201 3.26319 22.0834 3.36985 21.9816C3.48717 21.9659 3.60805 21.9607 3.71826 21.9319C3.76448 21.9215 3.78583 21.864 3.82494 21.8301C3.89604 21.7647 3.95653 21.6707 4.05252 21.6394C4.20896 21.5923 4.40094 21.6106 4.49338 21.4669C4.54671 21.3834 4.62845 21.2945 4.728 21.2893C5.00531 21.2789 5.12264 21.1352 5.26485 20.9993C5.37151 20.8975 5.59906 20.9497 5.71638 20.8478C5.7946 20.7825 5.85152 20.7015 5.92974 20.6388C5.96173 20.6127 6.02926 20.5997 6.08259 20.5918C6.37412 20.5527 6.6692 20.5239 6.96074 20.4821C7.00696 20.4743 7.04966 20.4351 7.08521 20.4038C7.15987 20.3358 7.20604 20.2418 7.29848 20.1974C7.39091 20.153 7.52244 20.153 7.63621 20.1399C8.00241 20.1007 8.03088 20.1112 8.19798 19.8891C8.33308 19.7089 8.66376 19.8369 8.77398 19.6384C8.83797 19.5234 8.95525 19.4294 9.16501 19.4163C9.4601 19.398 9.75163 19.3484 10.0467 19.3144C10.3098 19.2831 10.3063 19.2831 10.5907 19.0401C10.7187 18.9304 10.9072 18.9461 11.0743 18.9252C11.252 18.9043 11.4155 18.873 11.5009 18.7424C11.5862 18.6144 11.7426 18.5725 11.9239 18.5543C12.091 18.536 12.2795 18.549 12.411 18.4446C12.731 18.1938 12.7275 18.1911 12.9515 18.165C13.3034 18.1232 13.6554 18.0814 14.0074 18.037C14.242 18.0083 14.4873 18.0031 14.7078 17.9456C14.8678 17.9038 14.9388 17.7575 15.0419 17.6556C15.3335 17.6165 15.625 17.5773 15.9165 17.5407C16.3254 17.4884 16.7378 17.4414 17.1502 17.3918C17.328 17.2925 17.3529 17.0731 17.6516 17.0627C17.8293 17.0574 18.0035 17.0235 18.1813 17.0026C18.4764 16.966 18.7679 16.919 19.063 16.9007C19.287 16.8876 19.326 16.7466 19.4434 16.6577C19.4825 16.6264 19.5181 16.582 19.5643 16.5742C20.0265 16.501 20.5028 16.4853 20.9544 16.3782C21.0006 16.3678 21.0433 16.3129 21.0539 16.2737C21.061 16.2528 21.0006 16.2137 20.9615 16.1954C20.9153 16.1745 20.8548 16.1536 20.8051 16.1588C19.3367 16.3338 17.8684 16.5115 16.4001 16.6865C16.1939 16.7126 16.1939 16.71 15.6926 16.9973C15.6499 17.0209 15.6001 17.047 15.5468 17.0548C15.3121 17.0862 15.0739 17.1045 14.8428 17.1437C14.6544 17.175 14.498 17.1436 14.3629 17.0496C14.2669 16.9817 14.1673 16.9608 14.0464 16.966C13.9113 16.9738 13.8225 17.0026 13.7443 17.0731C13.6412 17.1698 13.5878 17.2951 13.371 17.3213C12.3719 17.4336 11.3728 17.559 10.3773 17.6791C10.2387 17.6426 10.1711 17.5877 10.2067 17.5224C10.228 17.4832 10.2707 17.431 10.3134 17.4258C10.7222 17.3709 11.1346 17.3239 11.5435 17.2716C11.6004 17.2638 11.6786 17.269 11.7106 17.2429C11.867 17.1253 11.924 16.9346 12.219 16.9216C12.3897 16.9137 12.5639 16.8746 12.7274 16.838C12.7737 16.8276 12.8163 16.7727 12.827 16.7335C12.8305 16.7126 12.7737 16.6734 12.731 16.6551C12.5746 16.5794 12.3933 16.6708 12.2368 16.6186C12.1835 16.6003 12.1088 16.5742 12.0981 16.5428C12.091 16.5141 12.1515 16.4671 12.1941 16.4383C12.2332 16.4122 12.2865 16.3887 12.3399 16.3809C12.8092 16.3208 13.2785 16.2581 13.7478 16.2111C13.9398 16.1928 14.0749 16.1275 14.1602 16.0073C14.2242 15.9185 14.3024 15.8715 14.4233 15.8584C15.2446 15.7617 16.0658 15.6546 16.8907 15.5658C17.0969 15.5449 17.2036 15.4587 17.2889 15.3464C17.3565 15.2576 17.4347 15.2262 17.5662 15.2106C18.743 15.0747 19.9127 14.9232 21.0895 14.7926C21.3064 14.7691 21.3704 14.6568 21.4806 14.5601C21.5197 14.5261 21.5446 14.4844 21.5943 14.4635C21.6441 14.4426 21.7081 14.4451 21.7685 14.4399C22.7071 14.3276 23.6458 14.2075 24.588 14.103C24.8084 14.0794 24.851 13.9488 24.9648 13.8574C25.0039 13.8287 25.0395 13.7816 25.0857 13.7738C25.7896 13.685 26.4936 13.6014 27.1975 13.5152C27.6668 13.4577 28.1361 13.4003 28.6054 13.3454C28.8365 13.3193 28.8365 13.3166 29.1494 13.0685C29.1849 13.0397 29.2347 13.0058 29.281 12.9979C30.632 12.8308 31.9794 12.6714 33.3304 12.5069C33.4442 12.4938 33.5259 12.4337 33.5828 12.3449C33.6397 12.2561 33.7215 12.196 33.8318 12.1829C34.8877 12.0523 35.9436 11.9243 37.0031 11.8015C37.195 11.7806 37.3301 11.7179 37.4154 11.6004C37.4794 11.5116 37.5577 11.4646 37.6785 11.4515C38.7345 11.3261 39.7904 11.1929 40.8499 11.0727C41.0526 11.0492 41.1521 10.9604 41.2516 10.8559C41.2872 10.8193 41.3156 10.7592 41.3583 10.754C41.8845 10.6809 42.4071 10.6051 42.9368 10.5555C43.1573 10.5346 43.232 10.4249 43.3208 10.3204C43.3919 10.2368 43.4737 10.208 43.6088 10.1976C43.9039 10.1741 44.1955 10.1297 44.4834 10.0853C44.5261 10.0774 44.5794 10.02 44.583 9.9834C44.5901 9.91548 44.5083 9.86845 44.3732 9.84494C42.9653 10.0147 41.5539 10.1845 40.146 10.3543C39.9149 10.3831 39.9149 10.3831 39.602 10.6312C39.5665 10.66 39.5166 10.6939 39.4669 10.7018C38.1158 10.8663 36.7684 11.0283 35.4174 11.1929C35.3036 11.2059 35.2219 11.266 35.165 11.3548C35.1081 11.4437 35.0263 11.5037 34.9161 11.5168C33.6255 11.6735 32.3349 11.8329 31.0408 11.9818C30.8488 12.0027 30.7138 12.0627 30.6284 12.1829C30.5644 12.2717 30.4862 12.3188 30.3653 12.3318C29.1316 12.4781 27.9015 12.6322 26.6642 12.7733C26.5398 12.7864 26.4474 12.7106 26.4545 12.6401C26.4581 12.6035 26.5113 12.5434 26.554 12.5382C27.1975 12.452 27.8375 12.3632 28.4846 12.2979C28.7014 12.277 28.7654 12.162 28.8756 12.0654C28.9111 12.0314 28.9396 11.987 28.9858 11.9687C29.0356 11.9478 29.0996 11.9504 29.16 11.9452C30.6853 11.7597 32.2105 11.5717 33.7393 11.3966C33.9597 11.3705 34.0023 11.2425 34.1161 11.1511C34.1552 11.1197 34.1908 11.0727 34.237 11.0675C34.7063 11.0048 35.1756 10.9499 35.6449 10.8951C36.4662 10.7958 37.2874 10.6965 38.1123 10.5973C38.3505 10.5685 38.3505 10.5685 38.6562 10.323C38.6918 10.2942 38.7416 10.2577 38.7878 10.2525C40.9601 9.98863 43.1324 9.72479 45.3047 9.46356C45.4185 9.4505 45.5003 9.39042 45.5571 9.3016C45.614 9.2154 45.6958 9.1527 45.806 9.13703C48.7427 8.78176 51.6758 8.42647 54.6125 8.07643C54.8045 8.05292 54.9396 7.99805 55.0249 7.87528C55.0853 7.78646 55.1671 7.73945 55.288 7.72378C58.5162 7.33455 61.7444 6.94532 64.9762 6.55348C67.1485 6.29226 69.3208 6.0258 71.4931 5.7698C71.6922 5.74629 71.7988 5.6653 71.8983 5.55819C71.9303 5.52162 71.9623 5.46153 72.005 5.45631C72.4708 5.391 72.9365 5.33093 73.4022 5.27085C73.548 5.34138 73.6938 5.40931 73.8395 5.47984C73.9497 5.38058 74.0565 5.27869 74.1667 5.17943C74.8706 5.10367 75.5639 4.98612 76.2749 4.94954C76.3212 4.94693 76.3709 4.99657 76.4207 5.0227C76.7513 5.18727 76.9398 5.1742 77.1495 4.95477C77.2242 4.87641 77.2882 4.80588 77.4019 4.79281C77.7539 4.74579 78.1095 4.71444 78.4579 4.65959C78.6464 4.63085 78.8028 4.65697 78.9379 4.75101C79.0339 4.81893 79.1334 4.84768 79.2508 4.832C79.8978 4.75364 80.5413 4.67787 81.1884 4.59428C81.2346 4.58905 81.2772 4.54463 81.3128 4.51328C81.3874 4.44536 81.4515 4.37224 81.5226 4.30171C81.6186 4.34611 81.7252 4.38008 81.8035 4.43755C81.903 4.50547 81.9954 4.50545 82.1305 4.48717C84.7117 4.17108 87.2964 3.86284 89.8775 3.54414C90.098 3.51802 90.194 3.62774 90.3433 3.68521C90.3931 3.70611 90.4428 3.73222 90.4962 3.73745C90.553 3.74267 90.6135 3.72701 90.6704 3.71917C92.608 3.48407 94.5457 3.25156 96.4833 3.01646C96.7393 2.98511 96.7393 2.98511 97.1197 3.14707C97.166 3.16797 97.2264 3.19148 97.2761 3.18364C98.1579 3.08177 99.0396 2.97206 99.9177 2.86757C100.031 2.85451 100.128 2.8963 100.231 2.95638C100.433 3.07393 100.447 3.07394 100.597 2.90153C100.668 2.82055 100.743 2.77089 100.86 2.74738C100.988 2.72126 101.091 2.72913 101.191 2.77615C101.333 2.84145 101.436 2.95115 101.653 2.92242C102.591 2.79964 103.533 2.69777 104.469 2.57238C104.682 2.54365 104.796 2.63246 104.938 2.69777C104.988 2.72128 105.034 2.75785 105.087 2.76569C105.14 2.77352 105.204 2.75522 105.261 2.74738C106.435 2.60632 107.611 2.4679 108.781 2.31638C109.001 2.28765 109.098 2.39996 109.247 2.45743C109.297 2.47832 109.353 2.51491 109.4 2.50969C110.104 2.42871 110.811 2.34248 111.515 2.25627C111.768 2.22493 111.768 2.22754 112.151 2.38689C112.198 2.40779 112.258 2.42869 112.308 2.42346C113.129 2.32681 113.954 2.22754 114.775 2.12828C115.028 2.09693 115.028 2.09694 115.757 2.23277C115.81 2.24322 115.867 2.25892 115.92 2.25369C116.859 2.14136 117.801 2.03163 118.739 1.91147C118.928 1.88796 119.084 1.90885 119.219 2.00289C119.315 2.07081 119.415 2.09956 119.532 2.08389C120.588 1.95589 121.648 1.83311 122.7 1.69728C122.903 1.67115 123.034 1.7286 123.176 1.80436C123.223 1.83048 123.269 1.86706 123.322 1.87751C123.376 1.88796 123.436 1.8775 123.493 1.86966C124.549 1.74166 125.608 1.6215 126.661 1.48305C126.874 1.45432 126.988 1.54313 127.13 1.60844C127.18 1.63195 127.233 1.67897 127.276 1.67636C127.688 1.63195 128.101 1.59278 128.509 1.52747C128.73 1.4909 128.826 1.61104 128.975 1.66851C129.025 1.6868 129.082 1.726 129.128 1.72078C130.01 1.6189 130.892 1.5118 131.77 1.40209C131.894 1.38641 131.987 1.4099 132.086 1.47782C132.218 1.56925 132.371 1.60583 132.563 1.57709C132.971 1.51701 133.384 1.47522 133.796 1.42559C134.038 1.39685 134.038 1.39686 134.777 1.5327C134.831 1.54315 134.888 1.55881 134.941 1.55359C135.645 1.47 136.352 1.38902 137.053 1.29759C137.241 1.27147 137.398 1.29497 137.533 1.38901C137.629 1.45693 137.725 1.48568 137.846 1.47001C138.493 1.39164 139.136 1.31327 139.783 1.2349C140.018 1.20616 140.253 1.15652 140.487 1.15652C140.658 1.15913 140.782 1.28451 140.935 1.34721C140.978 1.36549 141.049 1.34462 141.106 1.3394C141.927 1.24013 142.752 1.14869 143.57 1.03636C143.783 1.00763 143.897 1.09644 144.039 1.16175C144.089 1.18526 144.142 1.23228 144.185 1.22967C144.48 1.20093 144.771 1.16175 145.067 1.12779C145.419 1.08599 145.774 1.05464 146.122 0.997173C146.407 0.950152 146.514 1.17741 146.741 1.18525C146.915 1.19309 147.093 1.14869 147.267 1.12779C147.619 1.08599 147.971 1.03897 148.323 1.0024C148.448 0.989341 148.544 0.947527 148.583 0.853485C148.59 0.835199 148.529 0.796032 148.49 0.772521C148.017 0.50607 148.017 0.506057 147.541 0.563527C147.246 0.600099 146.954 0.636677 146.659 0.668024C146.61 0.673249 146.553 0.652352 146.503 0.636678C146.361 0.59227 146.375 0.540029 146.496 0.445987C146.617 0.351945 146.709 0.237016 146.812 0.129912C146.958 0.197832 147.1 0.265726 147.246 0.333646C147.363 0.320584 147.481 0.304934 147.598 0.291872C148.185 0.223953 148.771 0.153417 149.358 0.090722C149.4 0.0854974 149.454 0.137751 149.504 0.163873C149.646 0.239629 149.774 0.304918 149.98 0.276183C150.506 0.200427 151.036 0.14557 151.562 0.0802627C151.793 0.0515277 151.793 0.0515302 152.198 0.213491C152.245 0.231777 152.305 0.252677 152.355 0.247452C152.885 0.18737 153.411 0.122071 153.941 0.059376C154.054 0.0463146 154.165 0.0802729 154.246 0.156029C154.278 0.187376 154.271 0.239611 154.406 0.668024C154.826 1.01546 155.114 0.978903 155.405 0.947555C155.53 0.934494 155.64 0.92142 155.722 0.869174C155.764 0.840439 155.818 0.798637 155.818 0.764677C155.818 0.738554 155.74 0.69675 155.69 0.691526C155.338 0.63928 155.004 0.749011 154.659 0.772521C154.499 0.782971 154.36 0.69154 154.332 0.54264C154.325 0.500844 154.314 0.456438 154.303 0.414641C154.293 0.372845 154.285 0.328439 154.275 0.286642C154.136 0.273581 154.054 0.320594 153.994 0.409412C153.944 0.482555 153.873 0.566148 153.777 0.605332C153.681 0.647129 153.549 0.639306 153.432 0.652367C153.318 0.665429 153.194 0.699384 153.087 0.681098C152.981 0.6602 152.895 0.584431 152.796 0.537411C152.75 0.5139 152.693 0.479953 152.646 0.485178C152.238 0.529586 151.832 0.573979 151.427 0.631449C151.214 0.662796 151.107 0.553097 150.972 0.485178C150.865 0.432932 150.759 0.445977 150.741 0.566142C150.695 0.853492 150.858 0.97365 151.221 0.918792C151.519 0.871771 151.79 0.863959 152.024 1.04159C152.056 1.0651 152.131 1.07555 152.177 1.07032C152.469 1.03898 152.757 0.999789 153.048 0.968442C153.101 0.963217 153.158 0.97365 153.208 0.984099C153.934 1.12516 153.934 1.12779 154.179 1.09644C154.296 1.08077 154.41 1.0677 154.399 0.670639C154.623 0.244838 154.979 0.216109 155.324 0.153414C155.548 0.11423 155.644 0.229175 155.789 0.289257C155.839 0.310156 155.892 0.351944 155.939 0.34672C156.703 0.260515 157.464 0.169072 158.225 0.0724182C158.353 0.0567446 158.445 0.0724208 158.545 0.14034C158.673 0.226545 158.815 0.281414 159.018 0.250067C159.423 0.187372 159.835 0.148197 160.248 0.0959516C160.457 0.0698289 160.457 0.0698021 160.881 0.231763C160.927 0.250049 160.987 0.270948 161.037 0.265724C161.449 0.221315 161.858 0.166474 162.267 0.119453C162.381 0.106392 162.484 0.14296 162.573 0.213491C162.662 0.284023 162.768 0.320591 162.879 0.307529C163.291 0.260508 163.7 0.208279 164.109 0.161258C164.159 0.156034 164.219 0.174319 164.265 0.192604C164.699 0.354565 164.699 0.354539 164.898 0.328416C165.19 0.289232 165.488 0.270966 165.776 0.218721C166.057 0.166475 166.203 0.317974 166.395 0.401567C166.921 0.341485 167.451 0.291864 167.973 0.218721C168.187 0.187374 168.3 0.273571 168.443 0.34149C168.492 0.365 168.542 0.414639 168.588 0.412026C168.766 0.401577 168.94 0.372847 169.115 0.351949C169.289 0.331051 169.467 0.310156 169.641 0.289257C169.84 0.365013 169.971 0.542645 170.256 0.482563C170.427 0.445991 170.608 0.438154 170.782 0.417256C170.956 0.396358 171.134 0.375462 171.308 0.354564C171.426 0.341503 171.546 0.333654 171.66 0.310144C171.87 0.27096 171.973 0.398977 172.122 0.456447C172.172 0.474733 172.229 0.506059 172.275 0.500835C172.627 0.464263 172.983 0.432918 173.328 0.372836C173.594 0.325815 173.776 0.404193 173.964 0.513909C174.003 0.537419 174.071 0.55048 174.12 0.545255C174.533 0.500846 174.942 0.445973 175.351 0.398952C175.461 0.385891 175.567 0.427686 175.656 0.495605C175.749 0.566137 175.852 0.600122 175.966 0.58706C176.374 0.540039 176.787 0.487779 177.196 0.440758C177.246 0.435533 177.306 0.456435 177.352 0.477333C177.75 0.639294 177.75 0.641909 177.985 0.610562C178.042 0.602725 178.102 0.59748 178.159 0.589643C178.451 0.553071 178.753 0.540028 179.037 0.477333C179.365 0.406802 179.603 0.495623 179.834 0.644523C180.125 0.613175 180.424 0.594886 180.708 0.54264C180.922 0.503456 181.036 0.602717 181.178 0.668024C181.228 0.691535 181.281 0.738556 181.324 0.733331C181.736 0.688922 182.148 0.649752 182.554 0.584445C182.774 0.547874 182.87 0.665404 183.019 0.725487C183.069 0.746385 183.122 0.782976 183.169 0.777751C183.403 0.756853 183.638 0.72549 183.873 0.696755C184.146 0.662796 184.146 0.665406 184.509 0.824754C184.68 0.90051 184.85 0.840425 185.018 0.822139C185.195 0.801241 185.362 0.785573 185.505 0.892676C185.593 0.960595 185.7 1.00239 185.81 0.991944C186.045 0.968433 186.283 0.944934 186.514 0.90575C186.699 0.874403 186.859 0.895289 186.994 0.991944C187.09 1.05986 187.19 1.09384 187.307 1.07817C187.833 1.01547 188.363 0.950143 188.889 0.890061C188.935 0.884836 188.999 0.908356 189.042 0.931866C189.142 0.978887 189.238 1.03112 189.334 1.08337C189.565 1.05986 189.803 1.04943 190.03 1.01286C190.272 0.97629 190.493 0.963225 190.681 1.1069C190.72 1.13825 190.777 1.18263 190.823 1.18002C191.001 1.16957 191.175 1.14346 191.349 1.12256C191.524 1.10166 191.701 1.08076 191.876 1.05987C192.078 1.12517 192.206 1.31325 192.491 1.25317C192.661 1.2166 192.843 1.20876 193.017 1.18786C193.191 1.16697 193.369 1.14346 193.543 1.12517C193.6 1.11995 193.664 1.10688 193.714 1.11733C193.767 1.12778 193.813 1.16436 193.86 1.19048C194.002 1.26623 194.133 1.342 194.336 1.29759C194.507 1.26102 194.688 1.25318 194.862 1.22967C195.1 1.20093 195.1 1.20094 195.495 1.36551C195.655 1.43343 195.836 1.34462 195.989 1.40209C196.092 1.44127 196.181 1.50657 196.281 1.55097C196.323 1.56926 196.391 1.57709 196.441 1.57186C196.675 1.54835 196.914 1.52485 197.145 1.48567C197.333 1.45432 197.49 1.48566 197.621 1.57971C197.717 1.64762 197.813 1.67637 197.934 1.6607C198.521 1.58756 199.107 1.52484 199.69 1.44386C199.889 1.41513 200.049 1.45955 200.16 1.55359C200.348 1.71555 200.615 1.52486 200.81 1.65547C200.931 1.73645 201.052 1.8305 201.272 1.79131C201.678 1.7234 202.09 1.6868 202.499 1.63978C202.645 1.71031 202.79 1.78086 202.94 1.85139C203.174 1.82266 203.409 1.7939 203.644 1.76778C203.818 1.74688 203.996 1.72338 204.17 1.70509C204.227 1.69986 204.287 1.68941 204.341 1.70247C204.394 1.71554 204.437 1.7495 204.486 1.77563C204.732 1.90363 204.732 1.90625 205.137 1.85401C205.311 1.8305 205.478 1.81482 205.624 1.91931C205.759 2.01597 205.919 2.03424 206.104 2.00551C206.452 1.95326 206.804 1.91408 207.16 1.87751C207.27 1.86445 207.373 1.90886 207.466 1.97678C207.604 2.08388 207.775 2.07343 207.949 2.0447C208.18 2.00813 208.408 1.97156 208.603 2.11785C208.642 2.1492 208.703 2.19358 208.746 2.19097C209.037 2.17007 209.332 2.15441 209.617 2.10477C209.901 2.05514 210.04 2.2171 210.235 2.29547C210.527 2.26151 210.822 2.22754 211.113 2.19358C211.17 2.18575 211.238 2.16225 211.288 2.17531C211.497 2.23017 211.618 2.42608 211.906 2.366C212.073 2.33204 212.255 2.32161 212.429 2.31377C212.475 2.31116 212.536 2.35554 212.568 2.3895C212.585 2.40779 212.568 2.45742 212.546 2.48354C212.482 2.55669 212.404 2.62462 212.347 2.70038C212.34 2.71083 212.408 2.75783 212.447 2.77873C212.543 2.82575 212.653 2.81793 212.781 2.79703C212.891 2.77875 213.005 2.81532 213.083 2.89369C213.115 2.92503 213.104 2.97727 213.037 3.14968C213.037 3.27769 213.111 3.2202 213.136 3.13661C213.175 3.01645 213.101 2.97726 212.959 3.04257C212.859 3.08959 212.809 3.15752 212.834 3.21238C212.848 3.24111 212.916 3.27769 213.037 3.14968C213.35 2.99295 213.584 2.96423 213.819 2.93549C213.879 2.92765 213.951 2.90151 213.993 2.91719C214.146 2.97988 214.288 3.05565 214.438 3.12618C214.608 3.11051 214.768 3.07131 214.935 3.17319C215.17 3.31686 215.181 3.3038 215.408 3.27507C215.526 3.25939 215.643 3.24636 215.76 3.23329C215.878 3.22023 215.97 3.25941 216.073 3.31949C216.283 3.44227 216.301 3.44225 216.439 3.27507C216.521 3.17319 216.578 3.13924 216.681 3.18626C217.022 3.34561 217.026 3.35605 217.317 3.30903C217.559 3.26984 217.787 3.2594 217.964 3.4083C218.085 3.51279 218.124 3.48928 218.22 3.37957C218.476 3.0896 218.594 3.09482 219.074 3.3038C219.298 3.40307 219.529 3.29597 219.756 3.28291C219.948 3.27246 220.083 3.33515 220.098 3.49972C220.108 3.6016 220.14 3.67475 220.268 3.70871C220.318 3.72178 220.379 3.74006 220.428 3.73483C220.723 3.70348 221.015 3.66691 221.31 3.63033C221.459 3.61205 221.541 3.48929 221.513 3.32733C221.481 3.15492 221.538 3.09221 221.751 3.04257C221.879 3.01384 221.982 3.01908 222.085 3.06611C222.199 3.11835 222.167 3.16537 222.067 3.25941C221.829 3.48929 221.858 3.63033 222.163 3.78968C222.27 3.84454 222.355 3.89419 222.38 3.97517C222.394 4.01697 222.38 4.07182 222.412 4.10317C222.586 4.27819 222.828 4.39053 223.098 4.47412C223.358 4.40359 223.536 4.52112 223.735 4.61517C223.891 4.68831 224.076 4.62563 224.243 4.59951C224.432 4.57077 224.588 4.59166 224.723 4.68832C224.819 4.75624 224.919 4.78757 225.036 4.77451C225.271 4.74578 225.509 4.7275 225.74 4.6857C225.939 4.64913 226.088 4.70138 226.213 4.7902C226.369 4.90253 226.543 4.82676 226.707 4.84243C226.927 4.86072 227.038 5.0932 227.326 5.03051C227.496 4.99394 227.674 4.98088 227.852 4.97043C227.898 4.96782 227.955 5.01223 227.994 5.04358C228.182 5.18726 228.403 5.17942 228.645 5.13762C228.812 5.10889 228.975 5.08277 229.139 5.18204C229.409 5.34923 229.708 5.49552 229.992 5.64965C230.031 5.76981 230.003 5.91085 230.205 5.98138C230.312 6.01795 230.412 6.07283 230.493 6.13291C230.593 6.20344 230.685 6.22173 230.813 6.20345C231.044 6.16688 231.286 6.15901 231.514 6.11199C231.724 6.0702 231.855 6.15643 231.983 6.23741C232.086 6.30272 232.182 6.33405 232.307 6.28703C232.435 6.24262 232.527 6.27134 232.63 6.34187C232.776 6.43853 232.787 6.4281 233.27 6.45683C233.32 6.45944 233.38 6.49861 233.409 6.53257C233.423 6.55085 233.391 6.60313 233.366 6.62925C233.334 6.6606 233.284 6.69715 233.238 6.70498C232.712 6.7729 232.182 6.83299 231.656 6.9009C231.603 6.90874 231.546 6.92705 231.507 6.95317C231.464 6.9819 231.411 7.02106 231.411 7.05763C231.411 7.08376 231.482 7.11512 231.532 7.1334C231.688 7.19348 231.873 7.10206 232.026 7.16998C232.129 7.21439 232.214 7.27707 232.317 7.31886C232.36 7.33715 232.428 7.33455 232.481 7.32932C232.659 7.31104 232.833 7.28492 233.011 7.26924C233.06 7.26663 233.117 7.29277 233.163 7.31366C233.505 7.4704 233.505 7.47039 233.8 7.43643C233.917 7.42337 234.042 7.38418 234.152 7.39986C234.258 7.41553 234.351 7.48606 234.447 7.53047C234.646 7.62451 234.834 7.71594 234.849 7.9197C234.856 7.99807 234.973 8.06597 235.09 8.0712C235.204 8.07642 235.325 8.04771 235.442 8.03204C235.72 8.00069 235.72 8.00069 236.079 8.16004C236.178 8.20445 236.285 8.20966 236.413 8.18354C236.463 8.17309 236.523 8.18355 236.577 8.19661C236.751 8.2358 236.751 8.28542 236.637 8.37946C236.477 8.51791 236.491 8.53098 236.939 8.64853C237.11 8.69294 237.241 8.77654 237.384 8.84968C237.615 8.96723 237.611 8.96721 237.458 9.12134C237.423 9.1553 237.391 9.19188 237.355 9.22845C237.252 9.33033 237.17 9.44004 236.957 9.45049C236.722 9.46094 236.488 9.50275 236.253 9.53148C236.025 9.56022 235.965 9.62289 235.986 9.80052C236.011 10.0147 236.057 10.0382 236.466 10.0356C236.584 10.0356 236.687 10.0565 236.776 10.1271C236.733 10.2106 236.655 10.276 236.541 10.2916C236.249 10.3308 235.954 10.3648 235.663 10.3987C235.428 10.4275 235.194 10.4562 234.959 10.4849C234.813 10.5032 234.721 10.6391 234.76 10.7906C234.781 10.8768 234.799 10.963 234.817 11.0492C234.856 11.2216 234.93 11.266 235.169 11.2582C235.229 11.2556 235.286 11.2347 235.343 11.2399C235.574 11.2582 235.684 11.475 235.961 11.4306C236.193 11.394 236.434 11.3862 236.662 11.3392C236.872 11.2974 236.989 11.3914 237.135 11.462C237.184 11.4855 237.238 11.5351 237.28 11.5325C237.576 11.5037 237.871 11.475 238.159 11.4254C238.294 11.4045 238.375 11.4201 238.482 11.4828C238.738 11.6344 238.745 11.6265 239.126 11.5795C239.403 11.5429 239.407 11.5481 239.762 11.7075C239.862 11.7519 239.968 11.7519 240.096 11.731C240.263 11.7049 240.438 11.6631 240.612 11.7023C240.665 11.7127 240.733 11.7441 240.75 11.778C240.761 11.8015 240.711 11.859 240.669 11.8773C240.356 12.0131 239.99 11.9896 239.648 12.0445C239.542 12.0602 239.435 12.0105 239.346 11.94C239.254 11.8695 239.154 11.8407 239.033 11.8538C238.799 11.8825 238.56 11.9008 238.329 11.9426C238.13 11.9792 237.992 11.9191 237.853 11.8381C237.807 11.812 237.753 11.7623 237.707 11.765C237.181 11.8172 236.651 11.8695 236.129 11.9426C235.919 11.974 235.798 11.8904 235.656 11.8198C235.606 11.7963 235.556 11.7467 235.51 11.7493C235.332 11.7597 235.158 11.7885 234.98 11.8094C234.333 11.8877 233.69 11.9661 233.043 12.0393C233 12.0445 232.947 11.9896 232.897 11.9661C232.801 11.9191 232.701 11.8747 232.602 11.8303C232.424 11.8512 232.25 11.8773 232.072 11.893C231.944 11.9034 231.83 11.94 231.812 12.0393C231.802 12.1046 231.919 12.1646 232.044 12.1594C232.164 12.1542 232.285 12.1228 232.385 12.1568C232.879 12.324 232.879 12.3266 233.188 12.2926C233.459 12.2613 233.43 12.2352 233.668 12.3788C233.771 12.4415 233.864 12.4781 233.981 12.4624C234.273 12.4259 234.568 12.3893 234.863 12.3579C234.909 12.3527 234.969 12.3789 235.016 12.3998C235.364 12.5565 235.364 12.5617 235.652 12.5225C236.029 12.4755 236.043 12.4624 236.296 12.6218C236.47 12.7315 236.63 12.6557 236.797 12.6505C236.989 12.7524 237.199 12.8438 237.373 12.9588C237.579 13.0946 237.796 13.0711 238.031 13.0319C238.205 13.0032 238.376 12.9927 238.518 13.0998C238.653 13.1991 238.816 13.2096 239.001 13.1834C239.168 13.1599 239.339 13.1103 239.513 13.1677C239.559 13.1834 239.63 13.2226 239.627 13.2461C239.623 13.2827 239.577 13.335 239.531 13.3506C239.204 13.4577 238.845 13.4551 238.5 13.5047C238.454 13.5126 238.393 13.4838 238.347 13.4629C238.248 13.4159 238.152 13.3611 238.056 13.3114C237.881 13.3271 237.704 13.3323 237.533 13.3637C237.401 13.3872 237.302 13.3846 237.206 13.3219C237.117 13.2644 237.021 13.1939 236.914 13.1756C236.808 13.1573 236.683 13.1965 236.566 13.2122C236.449 13.2278 236.313 13.22 236.221 13.2618C236.129 13.3036 236.072 13.395 236.011 13.4682C235.944 13.5491 235.851 13.5753 235.716 13.5831C235.592 13.591 235.492 13.5805 235.4 13.5074C235.361 13.476 235.307 13.4525 235.254 13.4316C235.204 13.4133 235.147 13.3846 235.101 13.3898C234.571 13.4499 234.045 13.5152 233.515 13.5779C233.252 13.6092 233.256 13.6092 232.708 13.4551C232.659 13.442 232.598 13.4237 232.548 13.429C232.253 13.4603 231.962 13.4969 231.667 13.5335C231.368 13.57 231.372 13.5648 230.863 13.4002C230.771 13.3689 230.636 13.4107 230.525 13.4055C230.294 13.3924 230.181 13.173 229.91 13.2148C229.679 13.2514 229.437 13.2592 229.206 13.3062C228.997 13.348 228.876 13.2566 228.734 13.186C228.684 13.1625 228.63 13.1103 228.588 13.1155C228.058 13.173 227.532 13.2383 226.828 13.2461C226.654 13.2461 226.732 13.301 226.846 13.3193C227.009 13.348 227.063 13.2932 226.974 13.1887C226.91 13.1155 226.817 13.0789 226.743 13.0972C226.703 13.1077 226.654 13.1573 226.828 13.2461C227.013 13.3454 227.002 13.4002 227.034 13.4316C227.112 13.5073 227.223 13.5387 227.336 13.5282C227.514 13.51 227.688 13.4838 227.866 13.4682C227.916 13.4629 227.976 13.4812 228.022 13.5021C228.414 13.6641 228.417 13.6745 228.833 13.6119C228.965 13.5936 229.061 13.5936 229.164 13.6432C229.306 13.7111 229.409 13.826 229.626 13.7895C229.914 13.7398 230.209 13.7111 230.504 13.6824C230.55 13.6772 230.6 13.7242 230.653 13.7451C230.799 13.8078 230.906 13.9253 231.123 13.8757C231.29 13.8365 231.471 13.826 231.649 13.8182C231.695 13.8156 231.766 13.8574 231.787 13.8914C231.83 13.9514 231.777 14.022 231.656 14.0716C231.606 14.0925 231.539 14.0873 231.482 14.0951C231.247 14.1239 231.012 14.1552 230.778 14.1787C230.653 14.1918 230.536 14.231 230.522 14.3276C230.511 14.3929 230.639 14.4504 230.76 14.4452C230.938 14.4373 231.116 14.4164 231.286 14.3825C231.588 14.325 231.852 14.3407 232.097 14.5052C232.271 14.6202 232.26 14.5784 232.445 14.918C232.491 15.0042 232.63 15.012 232.751 15.0068C233.043 14.9937 233.178 15.0329 233.153 15.1139C233.121 15.2132 233.018 15.2445 232.886 15.2576C232.651 15.2785 232.417 15.3124 232.182 15.3412C232.125 15.349 232.061 15.3647 232.008 15.3594C231.955 15.3542 231.905 15.3229 231.859 15.2994C231.759 15.2497 231.674 15.174 231.567 15.1557C231.46 15.1374 231.336 15.1766 231.219 15.1923C231.101 15.2053 230.977 15.2445 230.87 15.2262C230.764 15.2079 230.675 15.1296 230.579 15.0826C230.532 15.0591 230.476 15.0225 230.429 15.0251C230.195 15.046 229.96 15.0799 229.725 15.1061C229.437 15.14 229.437 15.14 229.089 14.9781C228.99 14.931 228.886 14.9337 228.755 14.9546C228.47 14.9964 228.467 14.9885 227.948 14.837C227.898 14.8213 227.838 14.803 227.788 14.8109C227.258 14.871 226.732 14.9363 226.206 14.999C225.754 15.0538 225.754 15.0538 225.505 15.3151C225.32 15.5084 225.317 15.5084 225.498 15.5972C225.644 15.6703 225.775 15.7774 225.935 15.8166C226.085 15.8532 226.27 15.7356 226.433 15.8558C226.515 15.9159 226.622 15.9812 226.725 15.9916C226.888 16.0047 227.063 15.9289 227.219 16.0439C227.297 16.1013 227.415 16.1614 227.514 16.164C227.688 16.1693 227.866 16.1275 228.04 16.1092C228.094 16.1039 228.154 16.104 228.204 16.117C228.257 16.1327 228.303 16.164 228.35 16.1902C228.492 16.279 228.645 16.3208 228.83 16.2764C229.132 16.2032 229.402 16.2398 229.637 16.407C229.669 16.4305 229.747 16.4331 229.797 16.4227C229.925 16.3965 230.035 16.3939 230.131 16.4435C230.17 16.4644 230.227 16.501 230.22 16.5245C230.209 16.5637 230.166 16.6159 230.12 16.629C229.786 16.7178 229.427 16.7283 229.082 16.7753C229.036 16.7805 228.979 16.7466 228.933 16.723C228.833 16.676 228.748 16.5977 228.641 16.5794C228.534 16.5611 228.41 16.5951 228.293 16.6081C228.175 16.6212 228.051 16.6604 227.944 16.6447C227.838 16.6264 227.738 16.5611 227.653 16.5036C227.553 16.4383 227.457 16.4305 227.326 16.4566C227.155 16.4906 226.977 16.4958 226.803 16.5141C226.707 16.4645 226.611 16.4096 226.511 16.3626C226.465 16.339 226.408 16.3103 226.359 16.3129C226.124 16.3338 225.889 16.3652 225.655 16.3939C225.42 16.4226 225.42 16.4227 225.022 16.2607C224.976 16.2424 224.915 16.2215 224.865 16.2267C224.57 16.2581 224.279 16.2972 223.984 16.3286C223.87 16.3417 223.767 16.3051 223.674 16.2346C223.585 16.164 223.479 16.1248 223.369 16.1379C222.899 16.1928 222.43 16.245 221.961 16.3103C221.772 16.3364 221.612 16.3129 221.484 16.2189C221.335 16.1118 221.168 16.1379 220.994 16.1588C220.599 16.2111 220.595 16.2084 220.343 16.0752C220.293 16.0491 220.243 15.9994 220.197 16.0021C219.788 16.0412 219.376 16.0778 218.971 16.1405C218.757 16.1745 218.644 16.083 218.501 16.0151C218.452 15.9916 218.398 15.942 218.356 15.9472C218.061 15.9759 217.765 16.0021 217.477 16.0543C217.189 16.1066 217.079 15.8636 216.862 15.8662C216.567 15.8689 216.276 15.9289 215.984 15.9655C215.75 15.9942 215.515 16.023 215.28 16.0517C215.046 16.0804 214.811 16.1039 214.576 16.1379C214.452 16.1562 214.359 16.1327 214.256 16.0674C214.125 15.9812 213.968 15.9133 213.826 15.8349C213.609 15.7226 213.609 15.7226 213.346 15.7539C213.289 15.7617 213.229 15.767 213.172 15.7748C212.742 15.8323 212.742 15.8271 212.194 15.6625C212.169 15.6546 212.105 15.6834 212.08 15.7043C212.006 15.7722 211.938 15.8453 211.871 15.9159C211.775 15.8741 211.657 15.8506 211.593 15.7905C211.412 15.6207 211.128 15.8532 210.943 15.686C210.875 15.6233 210.758 15.5684 210.651 15.5528C210.541 15.5371 210.417 15.5737 210.303 15.5893C210.008 15.6285 210.008 15.6259 209.755 15.8584C209.627 15.9733 209.442 15.9524 209.275 15.9786C209.101 16.0073 208.934 16.023 208.788 15.9159C208.657 15.8192 208.497 15.7957 208.308 15.8271C208.077 15.8662 207.839 15.8897 207.604 15.9132C207.555 15.9185 207.494 15.9054 207.444 15.8897C206.9 15.7356 206.9 15.733 206.637 15.767C206.52 15.7827 206.399 15.7879 206.285 15.8114C206.093 15.8532 205.948 15.7983 205.809 15.7147C205.763 15.6886 205.709 15.639 205.663 15.6416C205.428 15.6547 205.197 15.6782 204.966 15.7017C204.789 15.72 204.611 15.7304 204.44 15.767C204.156 15.8271 204.017 15.6572 203.821 15.5789C203.53 15.6128 203.235 15.6363 202.943 15.6834C202.808 15.7043 202.719 15.6964 202.616 15.6337C202.485 15.5554 202.364 15.4666 202.151 15.5057C201.866 15.558 201.567 15.5763 201.276 15.6076C201.08 15.5267 200.938 15.3621 200.657 15.4221C200.487 15.4587 200.305 15.4665 200.131 15.4874C199.896 15.5162 199.662 15.5423 199.427 15.5737C199.175 15.605 199.178 15.5972 198.791 15.4431C198.567 15.3516 198.336 15.4535 198.108 15.4692C197.93 15.4822 197.841 15.6024 197.884 15.7565C197.927 15.9106 197.831 16.0308 197.667 16.0517C197.258 16.1013 196.846 16.1536 196.437 16.198C196.387 16.2032 196.327 16.1849 196.281 16.1666C195.843 16.0021 195.843 16.0047 195.648 16.0282C195.356 16.0674 195.058 16.0883 194.77 16.1379C194.571 16.1719 194.425 16.117 194.297 16.0282C194.197 15.9603 194.105 15.9446 193.977 15.9603C192.569 16.1353 191.161 16.2973 189.757 16.4775C189.547 16.5036 189.426 16.4279 189.284 16.3574C189.234 16.3338 189.188 16.2842 189.138 16.2842C189.021 16.2842 188.903 16.3077 188.786 16.3234C188.26 16.3861 187.734 16.4618 187.204 16.5089C186.98 16.5298 186.92 16.6499 186.824 16.7492C186.749 16.825 186.664 16.8563 186.532 16.8667C186.404 16.8772 186.312 16.8641 186.212 16.7962C186.084 16.7074 185.938 16.6525 185.739 16.6891C185.508 16.7309 185.273 16.7492 185.035 16.7779C184.914 16.791 184.822 16.838 184.783 16.932C184.776 16.9477 184.85 16.9869 184.893 17.0104C185.035 17.0888 185.17 17.1802 185.33 17.2351C185.494 17.2899 185.672 17.2272 185.842 17.2115C185.903 17.2063 185.96 17.1907 186.016 17.1933C186.07 17.1959 186.134 17.2089 186.173 17.2325C186.358 17.35 186.553 17.431 186.809 17.3605C187.03 17.3944 187.144 17.6112 187.424 17.5538C187.595 17.5198 187.773 17.5041 187.951 17.4911C187.997 17.4885 188.047 17.5355 188.096 17.559C188.239 17.6243 188.352 17.7288 188.566 17.6844C188.793 17.6374 189.035 17.6295 189.266 17.593C189.394 17.5721 189.486 17.5903 189.586 17.6583C189.714 17.7445 189.86 17.8098 190.059 17.768C190.23 17.7314 190.411 17.7235 190.585 17.7C190.813 17.6713 190.813 17.6739 191.218 17.8359C191.264 17.8542 191.325 17.8751 191.374 17.8698C191.669 17.8385 191.961 17.7993 192.256 17.768C192.37 17.7549 192.48 17.7889 192.558 17.8646C192.59 17.896 192.58 17.9482 192.59 17.9926C192.004 18.0632 191.417 18.1232 190.834 18.2094C190.614 18.2434 190.514 18.1363 190.368 18.0762C190.318 18.0553 190.265 18.0109 190.219 18.0161C189.806 18.0605 189.398 18.1076 188.989 18.165C188.861 18.1833 188.765 18.1729 188.669 18.0971C188.424 17.896 188.125 18.0057 187.848 18.0344C187.634 18.0553 187.567 18.1363 187.592 18.3087C187.624 18.5125 187.751 18.5752 188.079 18.5386C188.196 18.5255 188.313 18.5072 188.431 18.4968C188.544 18.4863 188.647 18.5203 188.74 18.5908C188.829 18.6614 188.935 18.6979 189.046 18.6875C189.28 18.664 189.518 18.6405 189.746 18.6013C189.934 18.5699 190.091 18.5961 190.222 18.6927C190.368 18.7998 190.539 18.7763 190.71 18.7528C191.108 18.7005 191.111 18.7032 191.36 18.8338C191.41 18.8599 191.46 18.9095 191.506 18.9069C191.915 18.8678 192.327 18.8338 192.729 18.7711C192.939 18.7397 193.06 18.8233 193.198 18.8912C193.248 18.9148 193.298 18.967 193.344 18.9618C193.639 18.933 193.934 18.9043 194.222 18.8547C194.357 18.8312 194.439 18.8468 194.549 18.9095C194.812 19.0636 194.819 19.0584 195.193 19.0088C195.307 18.9931 195.431 18.9644 195.538 18.9853C195.644 19.0062 195.73 19.0819 195.829 19.129C195.875 19.1499 195.932 19.1786 195.982 19.1734C196.217 19.1525 196.451 19.1211 196.686 19.0924C196.906 19.0637 196.906 19.0663 197.319 19.2282C197.486 19.2962 197.66 19.2387 197.827 19.2178C198.009 19.1943 198.172 19.1943 198.311 19.2962C198.449 19.398 198.617 19.3928 198.794 19.3719C198.961 19.351 199.132 19.2936 199.303 19.3641C199.694 19.526 199.694 19.5286 199.936 19.4973C200.288 19.4529 200.636 19.4111 200.991 19.3719C201.038 19.3667 201.098 19.398 201.144 19.4189C201.244 19.466 201.329 19.5443 201.436 19.5626C201.543 19.5835 201.667 19.5521 201.781 19.5365C202.147 19.4868 202.172 19.4686 202.417 19.641C202.623 19.782 202.879 19.5783 203.071 19.7402C203.182 19.8317 203.331 19.9048 203.537 19.8604C203.708 19.8238 203.885 19.8134 204.063 19.7925C204.344 19.7585 204.344 19.7611 204.7 19.9179C204.746 19.9388 204.806 19.9649 204.852 19.9597C205.087 19.9388 205.325 19.9205 205.553 19.8735C205.82 19.8186 205.99 19.9179 206.189 20.0145C206.346 20.0903 206.531 20.0276 206.698 20.0015C206.879 19.9753 207.043 19.9832 207.178 20.085C207.32 20.1895 207.487 20.1765 207.665 20.1556C207.832 20.1373 208.003 20.0772 208.173 20.1503C208.539 20.3123 208.539 20.3123 208.806 20.281C209.041 20.2522 209.275 20.2209 209.51 20.2C209.556 20.1948 209.613 20.2287 209.659 20.2522C209.759 20.2992 209.844 20.3776 209.951 20.3959C210.057 20.4142 210.182 20.3802 210.299 20.3672C210.417 20.3541 210.541 20.3149 210.648 20.3306C210.754 20.3463 210.854 20.4116 210.939 20.4691C211.039 20.537 211.131 20.5448 211.266 20.5187C211.437 20.4847 211.615 20.4769 211.789 20.4586C211.885 20.5082 211.984 20.5579 212.077 20.6127C212.173 20.6702 212.276 20.665 212.408 20.6467C212.845 20.584 212.848 20.5918 213.215 20.7538C213.382 20.8269 213.556 20.7669 213.723 20.7486C213.901 20.7277 214.068 20.7172 214.207 20.8217C214.342 20.921 214.509 20.934 214.687 20.9027C214.8 20.8818 214.921 20.8687 215.038 20.8609C215.092 20.8583 215.156 20.8687 215.195 20.8896C215.383 20.9994 215.568 21.0986 215.828 21.0281C216.055 21.049 216.169 21.2632 216.443 21.2214C216.674 21.1848 216.916 21.177 217.143 21.1299C217.353 21.0882 217.502 21.1613 217.609 21.2528C217.801 21.4147 218.071 21.1953 218.263 21.3546C218.373 21.4461 218.516 21.5192 218.729 21.48C218.964 21.4382 219.038 21.4931 219.106 21.6576C219.145 21.7517 219.138 21.8274 219.067 21.9006C218.996 21.9763 218.917 21.9633 218.804 21.8771C218.672 21.7804 218.516 21.7621 218.327 21.783C218.142 21.8039 218.028 21.6681 217.876 21.6159C217.723 21.561 217.541 21.6524 217.381 21.5819C217.005 21.4173 217.005 21.4173 216.749 21.4487C216.574 21.4696 216.393 21.48 216.222 21.5166C216.02 21.561 215.888 21.48 215.75 21.4069C215.7 21.3807 215.65 21.3311 215.607 21.3337C215.198 21.3729 214.786 21.4095 214.381 21.4748C214.167 21.5087 214.054 21.4147 213.911 21.3494C213.862 21.3259 213.808 21.2789 213.766 21.2841C213.414 21.3207 213.065 21.3677 212.713 21.4121C212.646 21.4826 212.571 21.5505 212.507 21.6263C212.44 21.7047 212.347 21.7386 212.212 21.736C211.988 21.736 211.768 21.8457 211.544 21.7073C211.312 21.5662 211.295 21.5741 211.071 21.608C210.786 21.6524 210.484 21.642 210.217 21.7439C210.171 21.7621 210.121 21.8118 210.121 21.8483C210.118 21.8718 210.193 21.9058 210.239 21.9267C210.395 21.9894 210.577 21.898 210.733 21.9633C210.836 22.0051 210.921 22.0678 211.025 22.1122C211.067 22.1305 211.131 22.1279 211.188 22.1252C211.249 22.1226 211.305 22.1044 211.362 22.107C211.416 22.1096 211.473 22.1252 211.515 22.1487C211.711 22.248 211.917 22.3395 212.091 22.457C212.262 22.5719 212.422 22.4936 212.592 22.4883C213.275 22.6712 213.275 22.6738 213.734 22.6164C213.847 22.6033 213.965 22.5876 214.082 22.5902C214.132 22.5902 214.178 22.6372 214.228 22.6634C214.37 22.7417 214.505 22.8123 214.704 22.7705C214.875 22.7339 215.056 22.7261 215.23 22.7025C215.465 22.6738 215.465 22.6738 215.863 22.8384C215.963 22.8802 216.07 22.875 216.198 22.8541C216.308 22.8358 216.421 22.875 216.5 22.9507C216.532 22.9821 216.521 23.0343 216.532 23.0787C216.18 23.1205 215.824 23.1493 215.483 23.212C215.262 23.2511 215.163 23.1388 215.017 23.0787C214.967 23.0578 214.914 23.0134 214.868 23.0187C214.519 23.0578 214.171 23.1022 213.823 23.1545C213.78 23.1597 213.727 23.2198 213.723 23.2563C213.716 23.3243 213.805 23.3896 213.933 23.387C214.103 23.3843 214.271 23.3399 214.423 23.447C214.551 23.5411 214.711 23.5829 214.9 23.5411C215.014 23.5176 215.135 23.5176 215.248 23.4967C215.55 23.434 215.824 23.447 216.052 23.6247C216.226 23.6717 216.397 23.6273 216.564 23.6038C216.688 23.5855 216.809 23.5672 216.898 23.6168C217.086 23.7213 217.271 23.8258 217.531 23.7553C217.812 23.8284 218.025 23.9826 218.26 24.1079C218.37 24.168 218.455 24.202 218.583 24.1628C218.636 24.1472 218.7 24.1471 218.757 24.1393C218.875 24.1262 218.999 24.087 219.106 24.1027C219.212 24.121 219.301 24.1968 219.397 24.2438C219.444 24.2673 219.497 24.3065 219.543 24.3039C219.721 24.2908 219.895 24.2647 220.069 24.2438C220.243 24.2255 220.418 24.2072 220.592 24.1889C220.738 24.2569 220.887 24.3248 221.033 24.3927C221.267 24.364 221.502 24.3352 221.733 24.3091C221.993 24.2778 221.993 24.2804 222.366 24.4423C222.533 24.5155 222.711 24.4684 222.871 24.4345C223.137 24.3796 223.315 24.4789 223.504 24.5834C223.543 24.6043 223.614 24.6173 223.66 24.6069C223.845 24.5703 224.005 24.5991 224.14 24.6957C224.236 24.7636 224.332 24.795 224.449 24.7819C224.858 24.7323 225.267 24.68 225.676 24.6356C225.726 24.6304 225.783 24.6539 225.829 24.6748C226.191 24.8342 226.195 24.842 226.462 24.8002C226.7 24.7636 226.92 24.748 227.109 24.8916C227.148 24.923 227.208 24.9674 227.251 24.9648C227.542 24.9387 227.838 24.9099 228.126 24.8655C228.257 24.8446 228.35 24.8525 228.453 24.9125C228.584 24.9883 228.702 25.0797 228.918 25.0458C229.519 24.9491 229.523 24.9648 230.234 25.145C230.284 25.1581 230.351 25.1372 230.408 25.1267C230.529 25.1006 230.618 25.1372 230.724 25.1973C230.963 25.3331 230.97 25.3253 231.197 25.2965C231.372 25.273 231.553 25.2678 231.724 25.2286C231.987 25.1712 232.161 25.273 232.356 25.3697C232.513 25.4455 232.694 25.3827 232.861 25.3592C233.043 25.3331 233.206 25.3409 233.341 25.4402C233.434 25.5081 233.533 25.5447 233.65 25.5317C234.059 25.4846 234.468 25.4324 234.877 25.3854C234.927 25.3801 234.987 25.401 235.034 25.4193C235.439 25.5813 235.439 25.5891 235.841 25.529C235.969 25.5108 236.075 25.5055 236.171 25.5604C236.264 25.6126 236.363 25.6623 236.459 25.7119C236.633 25.6936 236.811 25.6884 236.982 25.657C237.113 25.6335 237.206 25.644 237.309 25.6988C237.444 25.7694 237.558 25.8921 237.771 25.832C237.881 25.8033 238.009 25.8112 238.119 25.785C238.251 25.7511 238.34 25.772 238.443 25.8399C238.571 25.9209 238.703 26.0045 238.909 25.9627C239.136 25.9156 239.378 25.9078 239.609 25.8712C239.737 25.8503 239.826 25.8712 239.929 25.9392C240.057 26.0254 240.203 26.0802 240.402 26.0463C240.807 25.981 240.811 25.994 241.205 26.1586C241.305 26.2004 241.412 26.1952 241.54 26.1743C241.65 26.156 241.764 26.1952 241.842 26.2709C241.917 26.3545 241.909 26.4067 241.917 26.4511ZM210.235 2.89107C210.118 2.90413 210.001 2.9198 209.83 2.69254C209.819 2.65335 209.826 2.60634 209.802 2.57238C209.745 2.50185 209.656 2.45222 209.549 2.44438C209.357 2.43393 209.126 2.52273 209.13 2.59065C209.133 2.64812 209.194 2.69775 209.311 2.74477C209.361 2.76305 209.4 2.79441 209.446 2.81531C209.581 2.87539 209.688 2.99296 209.883 2.93288C209.866 2.8519 209.848 2.77092 209.883 2.93288C209.866 3.03214 209.919 3.10268 210.047 3.13141C210.082 3.13925 210.136 3.13401 210.164 3.11834C210.274 3.06087 210.292 2.98252 210.21 2.77615C210.196 2.81011 210.207 2.87017 210.239 2.88584C210.271 2.90152 210.349 2.88847 210.388 2.87018C210.488 2.82055 210.537 2.75524 210.513 2.70038C210.498 2.67165 210.431 2.63507 210.388 2.63507C210.313 2.63507 210.246 2.69254 210.235 2.89107ZM238.983 33.1856C238.724 33.2352 238.425 33.2169 238.166 33.3188C238.12 33.3371 238.073 33.3841 238.07 33.4207C238.066 33.4442 238.137 33.4782 238.18 33.4965C238.276 33.5383 238.383 33.5252 238.507 33.5121C238.695 33.4938 238.806 33.614 238.951 33.6741C238.998 33.6924 239.058 33.7054 239.108 33.7002C239.396 33.6689 239.68 33.6349 239.968 33.5984C240.018 33.5905 240.071 33.5722 240.114 33.5487C240.256 33.4729 240.242 33.4233 240.103 33.3659C239.951 33.3032 239.83 33.1987 239.673 33.149C239.449 33.0785 239.222 33.1725 238.983 33.1856ZM218.793 35.0926C218.619 35.1135 218.448 35.1344 218.274 35.1553C218.217 35.1631 218.156 35.1657 218.103 35.1761C217.993 35.1944 217.911 35.2493 217.858 35.3355C217.94 35.4034 218.039 35.4426 218.149 35.4348C218.324 35.4191 218.494 35.3851 218.668 35.3773C218.857 35.3668 218.967 35.4844 219.113 35.5445C219.159 35.5628 219.216 35.5654 219.269 35.568C219.532 35.5784 219.692 35.4426 219.643 35.2519C219.607 35.103 219.472 35.0142 219.308 35.0325C219.138 35.0508 218.964 35.0717 218.793 35.0926ZM240.199 29.3246C240.242 29.2802 240.288 29.2489 240.31 29.2097C240.374 29.0765 240.349 28.9772 240.231 28.8727C240.089 28.7447 239.915 28.8309 239.755 28.844C239.716 28.8466 239.673 28.9015 239.652 28.9354C239.638 28.9589 239.638 29.0086 239.659 29.0216C239.833 29.1261 240.018 29.2228 240.199 29.3246ZM209.357 21.608C209.186 21.6289 209.012 21.6446 208.842 21.6733C208.799 21.6812 208.76 21.7308 208.735 21.7647C208.689 21.8274 208.738 21.9136 208.884 21.9215C209.051 21.9319 209.226 21.8875 209.4 21.8666C209.62 21.8405 209.752 21.7438 209.67 21.6602C209.592 21.5793 209.485 21.5636 209.357 21.608ZM22.2094 16.0256C22.3232 16.0125 22.4405 16.0021 22.5543 15.9838C22.6609 15.9655 22.7428 15.908 22.7961 15.8218C22.7072 15.7539 22.6076 15.7173 22.4974 15.7252C22.3232 15.7408 22.1526 15.7617 21.9819 15.7879C21.8752 15.8035 21.7722 15.861 21.7473 15.9498C21.7224 16.0177 21.9605 16.0569 22.2094 16.0256ZM194.322 15.6233C194.368 15.6468 194.414 15.6938 194.46 15.6938C194.574 15.6938 194.692 15.6781 194.798 15.652C194.844 15.6416 194.88 15.5946 194.901 15.558C194.915 15.5345 194.912 15.4927 194.891 15.4718C194.788 15.3464 194.375 15.3908 194.307 15.5345C194.3 15.5606 194.318 15.5946 194.322 15.6233ZM183.105 1.31848C183.115 1.36027 183.119 1.40207 183.133 1.44386C183.162 1.52223 183.24 1.57971 183.354 1.6189C183.442 1.55359 183.489 1.48046 183.485 1.40209C183.482 1.36029 183.471 1.31847 183.457 1.27667C183.428 1.1983 183.35 1.14085 183.236 1.10167C183.147 1.16437 183.105 1.2375 183.105 1.31848ZM248.416 35.5471C248.384 35.5811 248.352 35.615 248.316 35.6464C248.412 35.7221 248.501 35.7456 248.569 35.7038C248.611 35.6777 248.636 35.6385 248.668 35.6046C248.572 35.5288 248.487 35.5079 248.416 35.5471ZM246.204 35.9024C246.25 35.9259 246.293 35.9572 246.343 35.9729C246.425 35.999 246.499 35.9546 246.556 35.8606C246.51 35.8371 246.467 35.8057 246.418 35.79C246.336 35.7639 246.261 35.8083 246.204 35.9024ZM247.605 35.4243C247.58 35.487 247.63 35.5393 247.762 35.5837C247.794 35.5497 247.836 35.5184 247.858 35.4818C247.893 35.4217 247.833 35.3669 247.705 35.3251C247.669 35.3564 247.637 35.3904 247.605 35.4243ZM240.1 32.6083C240.075 32.671 240.125 32.7232 240.256 32.7676C240.288 32.7337 240.331 32.7023 240.352 32.6658C240.388 32.6057 240.327 32.5508 240.199 32.509C240.164 32.5404 240.132 32.5743 240.1 32.6083ZM229.875 14.1238C229.843 14.1578 229.811 14.1918 229.775 14.2231C229.871 14.2989 229.96 14.3224 230.028 14.2806C230.07 14.2545 230.095 14.2153 230.127 14.1813C230.031 14.1056 229.946 14.0847 229.875 14.1238ZM220.08 4.31736C220.165 4.33565 220.236 4.29909 220.297 4.20244C220.251 4.17893 220.208 4.14757 220.158 4.1319C220.076 4.10578 220.002 4.1502 219.945 4.24424C219.991 4.27037 220.037 4.29385 220.08 4.31736ZM214.879 3.70348C214.847 3.73744 214.815 3.7714 214.779 3.80275C214.875 3.87851 214.964 3.90201 215.031 3.86021C215.074 3.83409 215.099 3.79491 215.131 3.76095C215.035 3.68519 214.95 3.66691 214.879 3.70348ZM179.606 1.31586C179.574 1.34982 179.542 1.38378 179.507 1.41513C179.603 1.49089 179.692 1.51439 179.759 1.47259C179.802 1.44647 179.827 1.40728 179.859 1.37333C179.763 1.29757 179.677 1.27929 179.606 1.31586ZM3.97779 22.5693C3.93157 22.5458 3.88539 22.5223 3.84273 22.4962C3.73963 22.5667 3.70764 22.632 3.76452 22.6817C3.80008 22.713 3.85337 22.7313 3.89958 22.7548C4.00624 22.6843 4.03112 22.6216 3.97779 22.5693Z" fill="#FFE492"/>
<path d="M24.5992 13.345C24.1903 13.3946 23.785 13.4573 23.3762 13.4887C23.1593 13.5043 23.0811 13.6167 22.9922 13.7212C22.9211 13.8048 22.8394 13.8309 22.7078 13.8465C21.5986 13.9745 20.4928 14.1104 19.3871 14.2436C19.2485 14.2097 19.1809 14.1548 19.2129 14.0895C19.2307 14.0503 19.2734 13.9955 19.316 13.9902C20.0733 13.8936 20.827 13.7943 21.5878 13.7185C21.8047 13.6976 21.8652 13.5827 21.9754 13.4887C22.0109 13.4573 22.0394 13.4103 22.0856 13.392C22.1318 13.3711 22.1994 13.3737 22.2598 13.3685C23.4829 13.2196 24.7059 13.0733 25.9289 12.9244C26.0676 12.9584 26.1351 13.0132 26.1031 13.0786C26.0854 13.1177 26.0427 13.1726 26 13.1778C25.5307 13.2327 25.0649 13.2875 24.5992 13.345Z" fill="#FFE492"/>
<path d="M248.461 27.2561C248.276 27.2874 248.042 27.3318 247.85 27.1803C247.757 27.1072 247.658 27.0837 247.537 27.0993C247.363 27.1255 247.185 27.1464 247.007 27.162C246.961 27.1646 246.9 27.1359 246.854 27.1124C246.755 27.0654 246.669 26.987 246.563 26.9661C246.456 26.9452 246.328 27.0027 246.218 26.9896C246.072 26.9713 246.012 26.9008 246.051 26.8355C246.072 26.7989 246.115 26.7467 246.161 26.7388C246.819 26.6422 246.822 26.6422 247.007 26.7362C247.149 26.8094 247.281 26.8903 247.483 26.8459C247.654 26.8093 247.835 26.8015 248.01 26.778C248.251 26.7466 248.251 26.7493 248.643 26.9138C248.742 26.9556 248.849 26.953 248.977 26.9295C249.087 26.9112 249.194 26.953 249.282 27.0236C249.226 27.1124 249.144 27.1699 249.034 27.1855C248.856 27.2116 248.682 27.2299 248.461 27.2561Z" fill="#FFE492"/>
<path d="M241.916 26.4507C242.364 26.3958 242.816 26.3488 243.263 26.2861C243.448 26.26 243.594 26.2887 243.722 26.3775C243.861 26.4742 244.017 26.4664 244.188 26.4481C244.295 26.4376 244.398 26.4794 244.469 26.5525C244.497 26.5813 244.49 26.6335 244.501 26.6753C244.11 26.7224 243.715 26.772 243.32 26.8138C243.274 26.819 243.217 26.7929 243.175 26.772C243.079 26.7276 242.997 26.6492 242.894 26.6335C242.673 26.597 242.453 26.6675 242.229 26.6805C242.122 26.6858 242.019 26.6466 241.948 26.5761C241.92 26.5421 241.927 26.4925 241.916 26.4507Z" fill="#FFE492"/>
<path d="M80.0268 3.9907C80.4926 3.93323 80.9583 3.87839 81.424 3.82092C81.5627 3.85749 81.6267 3.90973 81.5983 3.97504C81.5805 4.01422 81.5378 4.06908 81.4951 4.07431C80.5636 4.19186 79.6322 4.30417 78.7043 4.4165C78.5656 4.37993 78.5016 4.32769 78.5301 4.26238C78.5478 4.2232 78.5905 4.16834 78.6332 4.16311C79.0954 4.10303 79.5611 4.04817 80.0268 3.9907Z" fill="#FFE492"/>
<path d="M8.25949 18.507C8.04984 18.5122 7.82957 18.6088 7.59504 18.5357C7.54885 18.5226 7.48487 18.4808 7.48842 18.4573C7.49553 18.4181 7.53818 18.3685 7.58437 18.3528C7.78692 18.2875 8.03924 18.2797 8.14229 18.0968C8.19204 18.0028 8.28443 17.9714 8.4088 17.9532C8.54028 17.9323 8.63264 17.9401 8.73569 17.9949C8.87072 18.0655 8.98445 18.1961 9.19765 18.1282C9.20832 18.17 9.23313 18.217 9.22247 18.2562C9.21181 18.2953 9.16569 18.3319 9.12305 18.3607C9.08396 18.3868 9.0306 18.4103 8.98086 18.4181C8.74633 18.4495 8.51179 18.4756 8.25949 18.507Z" fill="#FFE492"/>
<path d="M193.163 17.9821C193.338 17.9612 193.519 17.9507 193.69 17.914C193.825 17.8852 193.91 17.9035 194.017 17.9664C194.198 18.0763 194.209 18.0659 194.653 18.0816C194.703 18.0842 194.763 18.1235 194.792 18.1575C194.809 18.1758 194.785 18.2256 194.763 18.2518C194.731 18.2858 194.685 18.3303 194.642 18.3303C194.361 18.3382 194.077 18.4926 193.803 18.3146C193.665 18.2256 193.512 18.1837 193.323 18.223C193.21 18.2465 193.089 18.257 192.971 18.2675C192.858 18.2779 192.74 18.2491 192.669 18.1706C192.566 18.0554 192.627 18.0109 192.811 18.0188C192.929 18.024 193.046 17.9952 193.163 17.9821Z" fill="#FFE492"/>
<path d="M257.598 35.9889C257.822 35.9628 258.045 35.9314 258.273 35.9105C258.319 35.9053 258.376 35.9341 258.419 35.9523C258.589 36.0307 258.564 36.1639 258.571 36.2815C258.575 36.4042 258.18 36.5035 258.013 36.4199C257.829 36.3259 257.662 36.2188 257.406 36.2763C257.306 36.2972 257.189 36.2501 257.125 36.1744C257.029 36.0647 257.083 36.0202 257.264 36.0281C257.37 36.0333 257.484 36.0046 257.598 35.9889Z" fill="#FFE492"/>
<path d="M144.726 0.433017C144.957 0.404218 145.188 0.359732 145.419 0.357114C145.554 0.354496 145.621 0.440876 145.589 0.503711C145.571 0.542982 145.529 0.597963 145.486 0.6032C145.024 0.666034 144.562 0.718405 144.1 0.776003C143.965 0.73935 143.898 0.684379 143.93 0.621544C143.947 0.582273 143.99 0.52991 144.033 0.522055C144.264 0.485402 144.495 0.461816 144.726 0.433017Z" fill="#FFE492"/>
<path d="M253.165 27.4859C253.389 27.4597 253.617 27.4204 253.841 27.4073C253.958 27.4021 254.05 27.4623 254.064 27.5303C254.072 27.5618 254.015 27.6167 253.968 27.6298C253.649 27.7188 253.304 27.7293 252.97 27.7738C252.863 27.7869 252.75 27.745 252.686 27.6717C252.59 27.5592 252.643 27.5173 252.824 27.5251C252.938 27.5278 253.052 27.4989 253.165 27.4859Z" fill="#FFE492"/>
<path d="M199.035 18.335C199.149 18.3219 199.266 18.2879 199.376 18.2984C199.494 18.3114 199.568 18.3874 199.604 18.4633C199.643 18.5497 199.639 18.6309 199.604 18.7042C199.547 18.8298 199.49 18.8246 199.359 18.7408C199.156 18.6099 199.142 18.6256 198.74 18.6309C198.694 18.6309 198.637 18.5916 198.602 18.5575C198.548 18.5052 198.577 18.424 198.701 18.3769C198.794 18.3429 198.922 18.3481 199.035 18.335Z" fill="#FFE492"/>
<path d="M244.835 26.6287C245.002 26.6078 245.169 26.5739 245.336 26.5739C245.453 26.5713 245.545 26.6313 245.556 26.6966C245.56 26.7279 245.506 26.7801 245.464 26.7957C245.261 26.8662 245.034 26.8714 244.813 26.8949C244.71 26.9053 244.597 26.8636 244.533 26.7905C244.437 26.6809 244.494 26.6313 244.668 26.647C244.721 26.6522 244.778 26.6365 244.835 26.6287Z" fill="#FFE492"/>
<path d="M218.537 23.4236C218.288 23.4549 218.053 23.4158 218.071 23.3479C218.096 23.2592 218.199 23.2018 218.306 23.1861C218.476 23.16 218.647 23.1392 218.821 23.1235C218.931 23.1131 219.031 23.1522 219.12 23.22C219.066 23.3035 218.985 23.3636 218.878 23.3818C218.768 23.4001 218.65 23.4105 218.537 23.4236Z" fill="#FFE492"/>
<path d="M216.907 23.0892C217.074 23.0683 217.241 23.0344 217.408 23.0344C217.525 23.0318 217.618 23.0918 217.628 23.157C217.632 23.1883 217.579 23.2405 217.536 23.2562C217.333 23.3266 217.106 23.3318 216.886 23.3553C216.783 23.3658 216.669 23.324 216.605 23.2509C216.509 23.1414 216.566 23.0918 216.74 23.1075C216.793 23.1127 216.85 23.097 216.907 23.0892Z" fill="#FFE492"/>
<path d="M197.02 18.3135C197.187 18.2926 197.354 18.2587 197.521 18.2561C197.639 18.2535 197.731 18.3135 197.742 18.3787C197.745 18.41 197.692 18.4596 197.649 18.4779C197.447 18.5483 197.219 18.5536 196.999 18.577C196.896 18.5875 196.782 18.5457 196.718 18.4727C196.622 18.3631 196.679 18.3135 196.853 18.3291C196.907 18.3344 196.963 18.3187 197.02 18.3135Z" fill="#FFE492"/>
<path d="M196.085 18.1599C196.262 18.139 196.319 18.126 196.376 18.126C196.483 18.126 196.593 18.1573 196.657 18.233C196.753 18.3426 196.696 18.3739 196.522 18.3791C196.298 18.3843 196.078 18.4391 195.854 18.4496C195.736 18.4548 195.644 18.3921 195.637 18.3269C195.633 18.2956 195.687 18.2408 195.729 18.2304C195.879 18.1912 196.042 18.1677 196.085 18.1599Z" fill="#FFE492"/>
<path d="M215.458 2.79142C215.345 2.80446 215.224 2.841 215.117 2.82795C214.975 2.80969 214.918 2.73924 214.954 2.67401C214.975 2.63748 215.014 2.58529 215.057 2.57746C215.284 2.54093 215.515 2.51743 215.743 2.49133C215.878 2.53047 215.938 2.58527 215.902 2.6505C215.881 2.68703 215.842 2.73661 215.799 2.74705C215.689 2.77314 215.572 2.77837 215.458 2.79142Z" fill="#FFE492"/>
<path d="M77.4751 4.29836C77.5853 4.29575 77.6847 4.32967 77.77 4.3949C77.7167 4.4784 77.6385 4.5332 77.5319 4.55668C77.4786 4.56712 77.4182 4.57494 77.3614 4.57755C77.2512 4.58276 77.1517 4.54623 77.0664 4.481C77.1197 4.3975 77.2014 4.34271 77.3045 4.31922C77.3578 4.30878 77.4183 4.30619 77.4751 4.29836Z" fill="#FFE492"/>
<path d="M251.951 27.4753C251.948 27.3996 252.164 27.3135 252.36 27.3161C252.463 27.3187 252.569 27.3552 252.63 27.4257C252.722 27.5327 252.669 27.5744 252.495 27.5666C252.388 27.5614 252.275 27.6057 252.168 27.5979C252.047 27.5953 251.976 27.5379 251.951 27.4753Z" fill="#FFE492"/>
<path d="M200.067 18.6504C200.063 18.6217 200.045 18.5878 200.056 18.5617C200.124 18.4182 200.532 18.3738 200.639 18.4991C200.657 18.5225 200.664 18.5617 200.65 18.5852C200.628 18.6217 200.589 18.6687 200.547 18.6791C200.436 18.7052 200.323 18.7182 200.209 18.7208C200.159 18.7208 200.113 18.6765 200.067 18.6504Z" fill="#FFE492"/>
<path d="M9.5228 18.0893C9.10349 18.1441 9.09639 18.1389 9.17101 18.0084C9.23852 17.891 9.36291 17.8205 9.54414 17.8205C9.59744 17.8205 9.65428 17.8153 9.70047 17.8257C9.75022 17.8388 9.82133 17.8649 9.83199 17.8962C9.85331 17.9562 9.79285 18.0214 9.68624 18.0658C9.64005 18.0867 9.57965 18.0815 9.5228 18.0893Z" fill="#FFE492"/>
<path d="M82.7271 3.93058C82.6028 3.97494 82.4962 3.9593 82.418 3.8758C82.3398 3.7923 82.4642 3.69313 82.681 3.66965C82.7378 3.66443 82.7982 3.64357 82.8515 3.65401C82.9048 3.66183 82.9582 3.69312 82.9902 3.72443C83.047 3.77662 83.0115 3.84709 82.8978 3.90711C82.8516 3.93059 82.784 3.92536 82.7271 3.93058Z" fill="#FFE492"/>
<path d="M251.209 27.279C251.241 27.245 251.273 27.2111 251.308 27.1798C251.44 27.2242 251.496 27.2763 251.461 27.3364C251.44 27.3729 251.397 27.4042 251.365 27.4381C251.233 27.3938 251.18 27.339 251.209 27.279Z" fill="#FFE492"/>
<path d="M15.156 47.8271C15.156 47.7957 15.2058 47.7462 15.2448 47.7357C15.3195 47.7175 15.4118 47.754 15.4758 47.8271C15.5646 47.9314 15.5114 47.9862 15.3479 47.9575C15.2342 47.9366 15.156 47.8845 15.156 47.8271Z" fill="#FFE492"/>
<path d="M201.514 16.2191C201.56 16.2426 201.606 16.2661 201.649 16.2922C201.588 16.3888 201.514 16.4305 201.436 16.4044C201.386 16.3887 201.343 16.3574 201.297 16.3339C201.357 16.2374 201.428 16.2009 201.514 16.2191Z" fill="#FFE492"/>
<path d="M200.283 16.1018C200.355 16.0627 200.44 16.0836 200.539 16.1593C200.507 16.1932 200.479 16.2323 200.44 16.2584C200.372 16.3002 200.283 16.2793 200.188 16.201C200.216 16.1697 200.248 16.1358 200.283 16.1018Z" fill="#FFE492"/>
<path d="M199.342 16.2165C199.388 16.24 199.434 16.2635 199.477 16.2896C199.416 16.3861 199.345 16.4279 199.264 16.4018C199.214 16.3861 199.171 16.3548 199.125 16.3313C199.185 16.2348 199.256 16.1956 199.342 16.2165Z" fill="#FFE492"/>
<path d="M198.648 16.0783C198.701 16.1305 198.673 16.1931 198.57 16.2636C198.524 16.2401 198.47 16.2218 198.435 16.1905C198.378 16.141 198.407 16.0757 198.513 16.0052C198.556 16.0313 198.602 16.0548 198.648 16.0783Z" fill="#FFE492"/>
</svg>
